<?xml version="1.0" encoding="UTF-8"?>
<svg xmlns="http://www.w3.org/2000/svg" xmlns:xlink="http://www.w3.org/1999/xlink"
     width="600" height="600.0" viewBox="-1.005 -1.005 2.01 2.01">
<defs>
</defs>
<circle cx="0" cy="0" r="1" fill="none" stroke-width="0.006" stroke="black" />
<path d="M0.244806472343,0.0039866378273 A2.8444718818534667,2.8444718818534667,0,0,1,0.2594500291,-0.00978578045514 A8.010059624997366,8.010059624997366,0,0,1,0.218658714067,-0.0186860336947 A2.2100147869552913,2.2100147869552913,0,0,0,0.250383893729,0.0547003882149 A33.28590092705556,33.28590092705556,0,0,0,0.219992711148,0.0490674858294 A2.5482594414892783,2.5482594414892783,0,0,0,0.258620468557,0.130628103057 A1.6144837343527747,1.6144837343527747,0,0,1,0.361311358586,-0.0384918247296 A1.211332730870197,1.211332730870197,0,0,0,0.384701276311,0.0201010445889 A8.14817265674518,8.14817265674518,0,0,1,0.356965000373,0.0143123030187 A1.3248838542981312,1.3248838542981312,0,0,0,0.392115379721,0.0906270525586 A1.0922842632847412,1.0922842632847412,0,0,1,0.493475375137,-0.0685929323761 A5.049914969377661,5.049914969377661,0,0,1,-0.0510168245753,-0.111227061101 A3.9791056298811673,3.9791056298811673,0,0,0,0.102814939608,-0.249140936017 A3.217157449268295,3.217157449268295,0,0,0,0.115648191022,-0.169247555354 A11.610212138956806,11.610212138956806,0,0,0,0.254065700204,-0.313815521428 A1.3126694714722993,1.3126694714722993,0,0,0,0.26839039239,-0.252542897381 A1.332409560053736,1.332409560053736,0,0,1,0.241553775135,-0.262861465127 A1.4488667187594373,1.4488667187594373,0,0,0,0.265524172555,-0.173451921354 A4.438225849870671,4.438225849870671,0,0,1,0.393793823216,-0.335291188516 A1.0390210627094811,1.0390210627094811,0,0,1,-0.0934741022224,-0.490971281371 A0.743629415295582,0.743629415295582,0,0,0,0.0698800121629,-0.556341312743 A0.6467539529361932,0.6467539529361932,0,0,1,-0.215066032644,-0.806348889782 A8.180058333890425,8.180058333890425,0,0,1,-0.00439379648133,0.729372211626 A0.4639408884860227,0.4639408884860227,0,0,0,-0.336858180035,0.580456748448 A1.6712869254235454,1.6712869254235454,0,0,1,-0.221961354821,0.475211801936 A1.4277624542301632,1.4277624542301632,0,0,1,-0.218265802255,0.537045528977 A1.180148945947705,1.180148945947705,0,0,1,-0.0697673881466,0.437522098525 A0.927370510301289,0.927370510301289,0,0,0,-0.519998876928,0.357354577103 A1.5591094229757947,1.5591094229757947,0,0,0,-0.432459225454,0.234573247342 A0.7844079527158991,0.7844079527158991,0,0,1,-0.409887129224,0.296964764716 A2.3491540279351866,2.3491540279351866,0,0,0,-0.304563795044,0.142466677199 A1.343749814737645,1.343749814737645,0,0,1,-0.279704660724,0.205274619328 A1.5939782320779956,1.5939782320779956,0,0,0,-0.298846505466,0.200343099094 A8.418078604931244,8.418078604931244,0,0,0,-0.290635847076,0.19316200657 A1.6651838159389112,1.6651838159389112,0,0,0,-0.327517787428,0.184416731812 A1.1704105558436086,1.1704105558436086,0,0,1,-0.302874433186,0.250752793006 A1.2745754825259206,1.2745754825259206,0,0,0,-0.328848002506,0.243460742011 A1.0792564770211563,1.0792564770211563,0,0,1,-0.305235083774,0.317635976558 A8.636253079185586,8.636253079185586,0,0,0,-0.189249112306,0.168847452968 A2.0727826351964347,2.0727826351964347,0,0,1,-0.170035591766,0.232378490278 A1.6311557252786697,1.6311557252786697,0,0,0,-0.19795012838,0.223033117047 A1.8369282876108994,1.8369282876108994,0,0,1,-0.17498343539,0.306045668057 A7.727007791764403,7.727007791764403,0,0,1,-0.0341261844982,0.142846069177 A3.2293110762566677,3.2293110762566677,0,0,0,-0.541884761132,0.133241505337 A0.9880177816156418,0.9880177816156418,0,0,0,-0.455094604183,0.00358167567802 A0.9779940977821248,0.9779940977821248,0,0,1,-0.427860571324,0.0653218951551 A1.2214142303029472,1.2214142303029472,0,0,0,-0.34133747491,-0.0974989972819 A1.862959477383932,1.862959477383932,0,0,1,-0.308863704467,-0.0421700387427 A71.77822556354775,71.77822556354775,0,0,1,-0.327560395136,-0.043977865606 A1.566976761493418,1.566976761493418,0,0,0,-0.320421417768,-0.0524533448716 A25.23956163824936,25.23956163824936,0,0,1,-0.358597774746,-0.0558945132162 A1.5606996461696636,1.5606996461696636,0,0,1,-0.324093703983,0.00827394986561 A7.542702224256016,7.542702224256016,0,0,0,-0.352157629846,0.0043814630415 A1.4140673280641374,1.4140673280641374,0,0,1,-0.316363744533,0.0800515142698 A1.878897421910609,1.878897421910609,0,0,0,-0.224801147671,-0.0956610217802 A3.383635547692226,3.383635547692226,0,0,1,-0.190934690667,-0.0369614724561 A38.78484564515994,38.78484564515994,0,0,1,-0.21055096311,-0.0388642385868 A2.4892638207115456,2.4892638207115456,0,0,0,-0.202904578426,-0.0479133345214 A20.70507448486929,20.70507448486929,0,0,1,-0.243888576921,-0.0517297888848 A2.5904142490023774,2.5904142490023774,0,0,1,-0.206495934106,0.016976285636 A9.791614478269308,9.791614478269308,0,0,0,-0.225865579389,0.0145345013005 A2.8857134669648032,2.8857134669648032,0,0,0,-0.218011727211,0.00574696812614 A12.599135761048935,12.599135761048935,0,0,0,-0.248022536376,0.00216571398282 A2.4660209110563485,2.4660209110563485,0,0,0,-0.247448709077,0.00151720967158 A1.9995936202411124,1.9995936202411124,0,0,1,-0.246988086175,0.00340665111778 A7.688552160923146,7.688552160923146,0,0,0,-0.241506421147,0.00207119003721 A1.9527379933062736,1.9527379933062736,0,0,0,-0.244567226536,-0.010299011905 A2.541220441648662,2.541220441648662,0,0,1,-0.259345080621,0.00646922975063 A14.843255059203292,14.843255059203292,0,0,1,-0.229520905097,0.010089986353 A2.9892247792471394,2.9892247792471394,0,0,1,-0.237343025321,0.0188108690736 A11.095288255725544,11.095288255725544,0,0,1,-0.196283246561,0.0240936904123 A2.512319798097042,2.512319798097042,0,0,0,-0.233676949217,-0.0450871141563 A16.58451941420821,16.58451941420821,0,0,0,-0.214344478512,-0.0432336171856 A2.565909612553187,2.565909612553187,0,0,1,-0.221979653361,-0.0342535898003 A26.46684396572391,26.46684396572391,0,0,0,-0.180449638573,-0.0301229595803 A3.2516099748189626,3.2516099748189626,0,0,0,-0.2254795773,-0.107831650563 A1.9222371386853778,1.9222371386853778,0,0,1,-0.315699754016,0.068279730702 A1.3904729428869556,1.3904729428869556,0,0,0,-0.342892927264,0.0110004799423 A8.293343898185968,8.293343898185968,0,0,1,-0.314627223685,0.0150719772243 A1.5320079394804038,1.5320079394804038,0,0,0,-0.349116384397,-0.0497597007323 A19.37226294852464,19.37226294852464,0,0,0,-0.331096509539,-0.0480604973143 A1.5970060577074299,1.5970060577074299,0,0,1,-0.338216266076,-0.0396815857042 A38.5629030792185,38.5629030792185,0,0,0,-0.299015428265,-0.0357388694382 A1.822223229787625,1.822223229787625,0,0,0,-0.342150864647,-0.108798223491 A1.2395825372919875,1.2395825372919875,0,0,1,-0.426939110702,0.0546325374666 A0.9666497014824809,0.9666497014824809,0,0,0,-0.454841967676,-0.00671166753794 A0.9998723391665993,0.9998723391665993,0,0,1,-0.550785458139,0.13786300205 A3.3594957979346534,3.3594957979346534,0,0,1,-0.0461449667164,0.147579436917 A7.071332741541519,7.071332741541519,0,0,0,-0.172401144952,0.294735293606 A1.7973103992562849,1.7973103992562849,0,0,0,-0.189728409191,0.23149150892 A1.6637207867374941,1.6637207867374941,0,0,1,-0.161887725308,0.241045750966 A2.0224773672551115,2.0224773672551115,0,0,0,-0.18720432112,0.15684228955 A9.63473747123925,9.63473747123925,0,0,1,-0.303142021893,0.307167816565 A1.0654578156226522,1.0654578156226522,0,0,0,-0.320951039906,0.25081803313 A1.2943725511896773,1.2943725511896773,0,0,1,-0.294991360227,0.258395021422 A1.1542000946762974,1.1542000946762974,0,0,0,-0.319053509401,0.191658579863 A1.6991358915676125,1.6991358915676125,0,0,1,-0.301638719259,0.19584372416 A9.363988777002417,9.363988777002417,0,0,1,-0.309751139782,0.202984108805 A1.6250616131235724,1.6250616131235724,0,0,1,-0.271287067806,0.213008961364 A1.3224259550383035,1.3224259550383035,0,0,0,-0.303705162495,0.130955868228 A2.417296429970468,2.417296429970468,0,0,1,-0.408295275334,0.287221762449 A0.777093342120275,0.777093342120275,0,0,0,-0.431616140111,0.224730418109 A1.588835079191031,1.588835079191031,0,0,1,-0.527831806896,0.361522914809 A0.9378067165870173,0.9378067165870173,0,0,1,-0.0803890395872,0.438057740614 A1.1636695036426739,1.1636695036426739,0,0,0,-0.214550744682,0.529022135868 A1.4037127229578723,1.4037127229578723,0,0,0,-0.218285151544,0.466442407303 A1.6384279217639273,1.6384279217639273,0,0,0,-0.344568635444,0.583639898897 A0.4665382111445182,0.4665382111445182,0,0,1,-0.00134427709712,0.736813220226 A7.448879847877823,7.448879847877823,0,0,0,-0.210538509859,-0.795532952966 A0.641773180607958,0.641773180607958,0,0,0,0.0606260061905,-0.556056472496 A0.7503248989405414,0.7503248989405414,0,0,1,-0.104602573676,-0.492710464423 A1.0262259714568895,1.0262259714568895,0,0,0,0.384801947519,-0.331421675305 A4.213806636413713,4.213806636413713,0,0,0,0.26764454892,-0.185132819833 A1.4745027058958489,1.4745027058958489,0,0,1,0.248978565756,-0.254328384792 A1.311441288745504,1.311441288745504,0,0,0,0.275946384677,-0.244248697086 A1.3336773498821766,1.3336773498821766,0,0,1,0.257020569066,-0.324219020509 A13.489594188836262,13.489594188836262,0,0,1,0.11938620972,-0.181288209914 A3.346344504846363,3.346344504846363,0,0,1,0.106746843861,-0.260478450858 A4.17862974533578,4.17862974533578,0,0,1,-0.0649685647297,-0.107146286596 A4.761383452864725,4.761383452864725,0,0,0,0.484457508948,-0.0642513730932 A1.0781526428809267,1.0781526428809267,0,0,0,0.392267261197,0.0795537511263 A1.3462876954235372,1.3462876954235372,0,0,1,0.365672286589,0.0214461784953 A7.42243042955836,7.42243042955836,0,0,0,0.393252190759,0.0270375628147 A1.2292001611169714,1.2292001611169714,0,0,1,0.362784123221,-0.0496518467791 A1.583799872957901,1.583799872957901,0,0,0,0.258809550463,0.118525671595 A2.62863995595797,2.62863995595797,0,0,1,0.229654085803,0.0566160759252 A55.42348141278966,55.42348141278966,0,0,1,0.259916362762,0.0621408153421 A2.2702207208382776,2.2702207208382776,0,0,1,0.228090567163,-0.0107877960801 A7.307651375079196,7.307651375079196,0,0,0,0.24777287516,-0.00655057266035 A2.750585452740445,2.750585452740445,0,0,0,0.2409281207,-0.000116569394338 A2.597037555989641,2.597037555989641,0,0,0,0.244806472343,0.0039866378273 L0.24451962677,0.0159463234424 A2.4817143529862933,2.4817143529862933,0,0,1,0.228909486684,-0.000469114924953 A2.621521192457628,2.621521192457628,0,0,1,0.230138698338,-0.00162797621565 A6.459822395686988,6.459822395686988,0,0,0,0.242212967892,0.000918891119086 A2.3675934234157983,2.3675934234157983,0,0,0,0.274135008044,0.0731572102092 A24426.638737424197,24426.638737424197,0,0,0,0.244072940061,0.0678094993418 A2.7599523965859647,2.7599523965859647,0,0,0,0.259250903597,0.100316855231 A1.5403109726761313,1.5403109726761313,0,0,1,0.365175693752,-0.0663035660499 A1.2573547935575773,1.2573547935575773,0,0,0,0.406013285144,0.0372356165667 A6.549325603173108,6.549325603173108,0,0,1,0.378674759178,0.0319494794146 A1.3800990026279043,1.3800990026279043,0,0,0,0.392711694258,0.0629177451856 A1.0579109260647912,1.0579109260647912,0,0,1,0.470762386276,-0.0575720727467 A4.386669393469667,4.386669393469667,0,0,1,-0.0858835784015,-0.101130006603 A4.519749178726722,4.519749178726722,0,0,0,0.112596631901,-0.277318889979 A3.561814254743884,3.561814254743884,0,0,0,0.124987336334,-0.199204871956 A17.820826833786384,17.820826833786384,0,0,0,0.261474692448,-0.33960155699 A1.3668539574503509,1.3668539574503509,0,0,0,0.287419622891,-0.231953041405 A1.2815401581372268,1.2815401581372268,0,0,1,0.260266031474,-0.241653236657 A1.5151179984080438,1.5151179984080438,0,0,0,0.270930942976,-0.202487222512 A3.9177562939196604,3.9177562939196604,0,0,1,0.371072890533,-0.325596445481 A1.0078833614010754,1.0078833614010754,0,0,1,-0.121120213922,-0.495591043894 A0.7608039051368874,0.7608039051368874,0,0,0,0.0467132541644,-0.555888525681 A0.6346146573153563,0.6346146573153563,0,0,1,-0.203051857087,-0.778188081875 A6.569904277647065,6.569904277647065,0,0,1,0.00296223069187,0.747690842662 A0.47061669956775143,0.47061669956775143,0,0,0,-0.355814654938,0.588486776824 A1.5919169015890993,1.5919169015890993,0,0,1,-0.212689644014,0.453068736643 A1.369485446161789,1.369485446161789,0,0,1,-0.208863756741,0.516769600423 A1.14010052188043,1.14010052188043,0,0,1,-0.0962443814406,0.439085151597 A0.9541685342070964,0.9541685342070964,0,0,0,-0.539283185828,0.367655231679 A1.6360588300806236,1.6360588300806236,0,0,0,-0.430541087986,0.209833789083 A0.7665793395628959,0.7665793395628959,0,0,1,-0.406056557785,0.272418905277 A2.5279557317393366,2.5279557317393366,0,0,0,-0.302577046539,0.11360167168 A1.2920247725570182,1.2920247725570182,0,0,1,-0.258774314764,0.224763870297 A1.6744862645270995,1.6744862645270995,0,0,0,-0.325900625721,0.20696377015 A11.265551108821505,11.265551108821505,0,0,0,-0.317939166491,0.199882665219 A1.753221781579649,1.753221781579649,0,0,1,-0.306441517247,0.202701779343 A1.131011751548816,1.131011751548816,0,0,1,-0.283307936869,0.270012616033 A1.3256103854819332,1.3256103854819332,0,0,0,-0.309233213193,0.262023955298 A1.0456888601713392,1.0456888601713392,0,0,1,-0.300091637816,0.291262136564 A11.659632246395141,11.659632246395141,0,0,0,-0.18421349564,0.138719306581 A1.9519556300431824,1.9519556300431824,0,0,1,-0.149817729952,0.254123430039 A1.7155511198808178,1.7155511198808178,0,0,0,-0.177538540886,0.24427606412 A1.741450903662634,1.741450903662634,0,0,1,-0.168546248173,0.277582417999 A6.274511016072594,6.274511016072594,0,0,1,-0.0640775155668,0.154724181121 A3.5767134176586306,3.5767134176586306,0,0,0,-0.563892278441,0.144589349373 A1.0184744938413648,1.0184744938413648,0,0,0,-0.454691018834,-0.0221482412864 A0.950372724391927,0.950372724391927,0,0,1,-0.425776928811,0.0385426882873 A1.2682173737338522,1.2682173737338522,0,0,0,-0.343546930687,-0.125650370053 A1.7648227754449253,1.7648227754449253,0,0,1,-0.284163254185,-0.0259474814128 A22.767767062821736,22.767767062821736,0,0,1,-0.354071440733,-0.0333856382374 A1.6447217197152322,1.6447217197152322,0,0,0,-0.346988024278,-0.0416227780175 A14.36712540238545,14.36712540238545,0,0,0,-0.334798406998,-0.0403973046064 A1.4912930437063163,1.4912930437063163,0,0,1,-0.300386741087,0.0254366534447 A9.751436720652853,9.751436720652853,0,0,0,-0.32894821862,0.0211064905486 A1.3568839281513734,1.3568839281513734,0,0,1,-0.314883363194,0.050572993545 A1.9916761314140266,1.9916761314140266,0,0,0,-0.226621600917,-0.125999159917 A3.0726305831298926,3.0726305831298926,0,0,1,-0.16466905348,-0.0197768400188 A17.930784641327417,17.930784641327417,0,0,1,-0.239032551505,-0.027447255386 A2.69089870513902,2.69089870513902,0,0,0,-0.231421919197,-0.0363255322429 A12.774980953109083,12.774980953109083,0,0,0,-0.218286933035,-0.0350119631554 A2.404261477573855,2.404261477573855,0,0,1,-0.180945018101,0.0348813229447 A13.868291710079209,13.868291710079209,0,0,0,-0.254436833745,0.0251389541263 A3.1600817651645863,3.1600817651645863,0,0,0,-0.246669323704,0.016515824592 A20.26120872211626,20.26120872211626,0,0,0,-0.27620411615,0.0128236408771 A2.663765635704849,2.663765635704849,0,0,0,-0.240378672795,-0.0280744044495 A1.8869337179074004,1.8869337179074004,0,0,1,-0.231249181764,0.00832759988579 A6.755593912947183,6.755593912947183,0,0,1,-0.25321759967,0.0135800986062 A2.0748199343930556,2.0748199343930556,0,0,1,-0.251897238833,0.0191636246123 A2.36183731236627,2.36183731236627,0,0,0,-0.230937335464,-0.00438286629113 A10.272616429439397,10.272616429439397,0,0,1,-0.200656572288,-0.000848210055615 A2.743948744776679,2.743948744776679,0,0,1,-0.208550748117,0.00804135872301 A8.32655271052405,8.32655271052405,0,0,0,-0.221773092021,0.00642595627768 A2.7178539892259317,2.7178539892259317,0,0,0,-0.259111888111,-0.0615701224344 A33.01722958784242,33.01722958784242,0,0,0,-0.185686985689,-0.0550357403672 A2.383143499531248,2.383143499531248,0,0,1,-0.193342253557,-0.0458814128442 A128.54756382267067,128.54756382267067,0,0,1,-0.206586782087,-0.0471171915877 A3.604081005620259,3.604081005620259,0,0,0,-0.223910947435,-0.0773439876937 A1.8179159056250829,1.8179159056250829,0,0,1,-0.317535932551,0.0976311177655 A1.4513958139245007,1.4513958139245007,0,0,0,-0.365985943549,-0.00535858784825 A6.6427625756467545,6.6427625756467545,0,0,1,-0.338231082843,-0.00174353969746 A1.6062496408480917,1.6062496408480917,0,0,0,-0.372704074275,-0.0649269377906 A46.26939182577086,46.26939182577086,0,0,0,-0.304310348885,-0.0591878457826 A1.5243986643984164,1.5243986643984164,0,0,1,-0.311470332682,-0.0505647125886 A245.75798850646635,245.75798850646635,0,0,0,-0.323535288391,-0.0516610106979 A1.9281258416226978,1.9281258416226978,0,0,0,-0.340297751445,-0.0804804693338 A1.1954584843703158,1.1954584843703158,0,0,1,-0.429458043028,0.0812716538246 A0.9957898366397245,0.9957898366397245,0,0,0,-0.455700658875,0.0189974668698 A0.9710138687252687,0.9710138687252687,0,0,1,-0.528309060569,0.126108276165 A3.052716757743126,3.052716757743126,0,0,1,-0.0160294485728,0.135802159866 A8.977935396893098,8.977935396893098,0,0,0,-0.178868275108,0.322801891197 A1.900262693870742,1.900262693870742,0,0,0,-0.210406254076,0.210462916072 A1.5850527053177814,1.5850527053177814,0,0,1,-0.182390708913,0.219475511033 A2.153705940389406,2.153705940389406,0,0,0,-0.192386451639,0.186714637006 A7.476256280716947,7.476256280716947,0,0,1,-0.308454887192,0.333114353606 A1.1009376901639638,1.1009376901639638,0,0,0,-0.34079991388,0.232612431062 A1.2463229528840858,1.2463229528840858,0,0,1,-0.314819589152,0.23946258253 A1.1959243019100139,1.1959243019100139,0,0,0,-0.340276492537,0.173750118949 A1.6171566596440379,1.6171566596440379,0,0,1,-0.273948146584,0.189163106614 A7.312241473316834,7.312241473316834,0,0,1,-0.282302178667,0.196407070441 A1.5499337263801343,1.5499337263801343,0,0,0,-0.292423252096,0.193844559556 A1.377432890869819,1.377432890869819,0,0,0,-0.306006875536,0.159618400003 A2.2544491551314336,2.2544491551314336,0,0,1,-0.412413944493,0.311369953086 A0.7958579550311553,0.7958579550311553,0,0,0,-0.433905964943,0.249181791562 A1.5169540463294702,1.5169540463294702,0,0,1,-0.507963162807,0.350991100905 A0.9123890550494874,0.9123890550494874,0,0,1,-0.0537867522667,0.436946398314 A1.2060909695016724,1.2060909695016724,0,0,0,-0.223719469225,0.548851670217 A1.4658232855015711,1.4658232855015711,0,0,0,-0.227388461128,0.488133374681 A1.723594979368161,1.723594979368161,0,0,0,-0.324988917969,0.575774674303 A0.46022245332789596,0.46022245332789596,0,0,1,-0.00924117713181,0.71795026263 A9.595231581791424,9.595231581791424,0,0,0,-0.221173352203,-0.821361686898 A0.6545493885166263,0.6545493885166263,0,0,0,0.083699892067,-0.557024681596 A0.7340042520095453,0.7340042520095453,0,0,1,-0.0766463399964,-0.488646886136 A1.0591116546464874,1.0591116546464874,0,0,0,0.407026537662,-0.341064341198 A4.82491930881803,4.82491930881803,0,0,0,0.26245742026,-0.155789609182 A1.4124186330988815,1.4124186330988815,0,0,1,0.230584682817,-0.275764037537 A1.3655226985079483,1.3655226985079483,0,0,0,0.257214600931,-0.265109033955 A1.2827126317871251,1.2827126317871251,0,0,1,0.249663887309,-0.298006139964 A9.605695308419763,9.605695308419763,0,0,1,0.110044069922,-0.151067924238 A3.041856710351753,3.041856710351753,0,0,1,0.0968770299335,-0.231991152763 A3.7141307582076704,3.7141307582076704,0,0,1,-0.0301178542903,-0.117441342383 A5.556401424809433,5.556401424809433,0,0,0,0.506816479095,-0.0749341087086 A1.1144937480063786,1.1144937480063786,0,0,0,0.392102757927,0.107181715998 A1.294370227069135,1.294370227069135,0,0,1,0.343865771182,0.00342591735196 A9.551400288990097,9.551400288990097,0,0,0,0.371829601712,0.00950060396589 A1.185801799516986,1.185801799516986,0,0,1,0.359290070006,-0.0216906924404 A1.6632604032715823,1.6632604032715823,0,0,0,0.25849304628,0.148697666414 A2.437146741385429,2.437146741385429,0,0,1,0.20544817139,0.0376297528254 A20.8195728820011,20.8195728820011,0,0,1,0.236025718072,0.0434095516939 A2.1260284008468844,2.1260284008468844,0,0,1,0.204506806178,-0.0306582817221 A9.362223653497091,9.362223653497091,0,0,0,0.276823608049,-0.0145631715968 A2.99879635138559,2.99879635138559,0,0,0,0.24451962677,0.0159463234424 Z" fill="black" opacity="0.7" />
</svg>