<?xml version="1.0" encoding="UTF-8"?>
<svg xmlns="http://www.w3.org/2000/svg" xmlns:xlink="http://www.w3.org/1999/xlink"
     width="900" height="300.0" viewBox="-4.5 -2.9 9 3">
<defs>
</defs>
<rect x="-10" y="-10" width="20" height="10" fill="silver" />
<path d="M-0.3892831956494893,-0.0 A10.791354573010365,10.791354573010365,0,1,0,-4.132455934785288,-0.0 A12.207711290166571,12.207711290166571,0,1,1,-0.38928319564948866,1.7763568394002505e-15 Z" fill="yellow" />
<path d="M-0.38928319564948866,-1.7763568394002505e-15 A8.445626951949233,8.445626951949233,0,1,0,-4.132455934785299,-3.552713678800501e-15 A9.543832436109545,9.543832436109545,0,1,1,-0.3892831956494882,-0.0 Z" fill="yellow" />
<path d="M-0.3892831956494889,-0.0 A6.630505976862466,6.630505976862466,0,1,0,-4.132455934785287,8.881784197001252e-16 A7.479556305151383,7.479556305151383,0,1,1,-0.38928319564949065,-8.881784197001252e-16 Z" fill="yellow" />
<path d="M-0.38928319564948843,-0.0 A5.231954494782281,5.231954494782281,0,1,0,-4.132455934785291,-0.0 A5.885192272730436,5.885192272730436,0,1,1,-0.3892831956494889,-0.0 Z" fill="yellow" />
<path d="M-0.38928319564948866,-4.440892098500626e-16 A4.162106830922054,4.162106830922054,0,1,0,-4.132455934785296,-8.881784197001252e-16 A4.66057250565705,4.66057250565705,0,1,1,-0.38928319564948866,-0.0 Z" fill="yellow" />
<path d="M-0.38928319564948866,-4.440892098500626e-16 A3.353748522240239,3.353748522240239,0,1,0,-4.132455934785295,4.440892098500626e-16 A3.7287587978160466,3.7287587978160466,0,1,1,-0.38928319564948866,-4.440892098500626e-16 Z" fill="yellow" />
<path d="M-0.38928319564948843,-0.0 A2.7560934881586294,2.7560934881586294,0,1,0,-4.132455934785295,-0.0 A3.0312088350603092,3.0312088350603092,0,1,1,-0.389283195649488,-0.0 Z" fill="yellow" />
<path d="M-0.3892831956494882,2.220446049250313e-16 A2.3315933341189585,2.3315933341189585,0,1,0,-4.132455934785295,2.220446049250313e-15 A2.524098204087761,2.524098204087761,0,1,1,-0.38928319564948866,-6.661338147750939e-16 Z" fill="yellow" />
<path d="M-0.38928319564948843,1.1102230246251565e-16 A2.0535783286457368,2.0535783286457368,0,1,0,-4.132455934785295,-1.887379141862766e-15 A2.175567071096931,2.175567071096931,0,1,1,-0.38928319564948866,-0.0 Z" fill="yellow" />
<path d="M-0.3892831956494882,-5.551115123125783e-17 A1.9045818454690693,1.9045818454690693,0,1,0,-4.132455934785298,-2.55351295663786e-15 A1.9637185495042602,1.9637185495042602,0,1,1,-0.38928319564948866,-2.220446049250313e-16 Z" fill="yellow" />
<path d="M-0.3892831956494882,2.0816681711721685e-16 A1.8752430017734834,1.8752430017734834,0,0,0,-4.132455934785298,3.8719027983802334e-15 A1.8752430017734838,1.8752430017734838,0,1,1,-0.38928319564948843,-1.6653345369377348e-16 Z" fill="yellow" />
<path d="M-0.389283195649488,4.440892098500626e-16 A1.9637185495042608,1.9637185495042608,0,0,0,-4.132455934785303,1.1102230246251565e-14 A1.9045818454690693,1.9045818454690693,0,0,1,-0.38928319564948866,5.551115123125783e-17 Z" fill="yellow" />
<path d="M-0.3892831956494882,3.552713678800501e-15 A2.1755670710969217,2.1755670710969217,0,0,0,-4.13245593478531,4.707345624410664e-14 A2.053578328645741,2.053578328645741,0,0,1,-0.3892831956494882,3.3306690738754696e-16 Z" fill="yellow" />
<path d="M-0.38928319564948954,-2.4424906541753444e-15 A2.524098204087771,2.524098204087771,0,0,0,-4.132455934785252,-8.149037000748649e-14 A2.3315933341189456,2.3315933341189456,0,0,1,-0.38928319564948133,1.199040866595169e-14 Z" fill="yellow" />
<path d="M-0.3892831956494873,4.440892098500626e-16 A3.0312088350603075,3.0312088350603075,0,0,0,-4.132455934785304,2.220446049250313e-15 A2.7560934881586254,2.7560934881586254,0,0,1,-0.38928319564949,-1.3322676295501878e-15 Z" fill="yellow" />
<path d="M-0.38928319564948755,4.440892098500626e-16 A3.7287587978160452,3.7287587978160452,0,0,0,-4.1324559347853045,8.881784197001252e-16 A3.353748522240244,3.353748522240244,0,0,1,-0.3892831956494869,-4.440892098500626e-16 Z" fill="yellow" />
<path d="M-0.38928319564948755,-0.0 A4.66057250565706,4.66057250565706,0,0,0,-4.132455934785302,-1.7763568394002505e-15 A4.162106830922058,4.162106830922058,0,0,1,-0.38928319564948866,-0.0 Z" fill="yellow" />
<path d="M-0.38928319564948755,-0.0 A5.885192272730463,5.885192272730463,0,0,0,-4.132455934785298,8.881784197001252e-16 A5.231954494782287,5.231954494782287,0,0,1,-0.38928319564948777,-0.0 Z" fill="yellow" />
<path d="M-0.38928319564948866,-0.0 A7.4795563051514105,7.4795563051514105,0,0,0,-4.132455934785308,1.7763568394002505e-15 A6.6305059768624925,6.6305059768624925,0,0,1,-0.38928319564948755,8.881784197001252e-16 Z" fill="yellow" />
<path d="M-0.3892831956494851,1.7763568394002505e-15 A9.543832436109591,9.543832436109591,0,0,0,-4.1324559347853125,1.7763568394002505e-15 A8.445626951949302,8.445626951949302,0,0,1,-0.38928319564948755,-0.0 Z" fill="yellow" />
<path d="M-0.3892831956494882,-0.0 A12.20771129016667,12.20771129016667,0,0,0,-4.132455934785303,-0.0 A10.791354573010409,10.791354573010409,0,0,1,-0.38928319564948755,-0.0 Z" fill="yellow" />
<path d="M-0.389283195649488,1.3183898417423734e-16 A1.8719925444949703,1.8719925444949703,0,0,0,-4.1324559347852965,1.3808398868775384e-15 A1.8719925444949705,1.8719925444949705,0,1,1,-0.3892831956494882,2.0816681711721685e-17 Z" fill="#aaaa00" />
<path d="M-3.7320508075688785,-2.5951463200613034e-15 A2.366764825233452,2.366764825233452,0,1,1,0.9999999999999998,-7.771561172376096e-16 A2.3667648252334517,2.3667648252334517,0,0,0,-3.7320508075688776,9.617306950815419e-15 Z" fill="black" />
<path d="M-0.26794919243112325,-1.1102230246251565e-16 A1.7325921016377632,1.7325921016377632,0,0,0,-3.732050807568882,-2.2412627309620348e-15 A1.7325921016377608,1.7325921016377608,0,1,1,-0.2679491924311239,-2.7755575615628914e-17 Z" fill="black" />
<path d="M0.9999999999999994,-2.1510571102112408e-16 A0.6341727235956903,0.6341727235956903,0,0,0,-0.2679491924311227,4.475586568020162e-16 A0.6341727235956908,0.6341727235956908,0,1,1,0.9999999999999999,3.469446951953614e-18 Z" fill="black" />
<path d="M2.446631805020695,-1.3960665510937944 A1.4285460158133456,1.4285460158133456,0,0,0,-0.16918236979316603,-0.33652469112052324 A0.3455077045754972,0.3455077045754972,0,0,1,0.13250043543218554,-0.26355977967245886 A1.428546015813349,1.428546015813349,0,0,1,1.7921174811550973,-0.6497921282229389 A1.6288220358559296,1.6288220358559296,0,0,1,2.4466318050206946,-1.3960665510937953 Z" fill="blue" />
<path d="M-0.04463936122126455,2.2203256738966874e-16 A1.266861583443488,1.266861583443488,0,1,1,2.4890838056657114,2.625266243708097e-15" stroke="red" stroke-width="0.05" fill="none" />
<path d="M-0.04463936122126433,2.220446049250313e-16 A1.292283385241644,1.292283385241644,0,1,1,2.489083805665711,2.4980018054066022e-15" stroke="green" stroke-width="0.03" fill="none" />
<path d="M-0.04463936122126366,-4.996003610813204e-16 A1.2922833852416409,1.2922833852416409,0,0,1,2.489083805665702,-2.2870594307278225e-14" stroke="black" stroke-width="0.03" fill="none" />
<circle cx="0.0" cy="-0.3333333333333333" r="0.02" fill="green" />
<circle cx="2.0" cy="-1.0" r="0.02" fill="green" />
<path d="M-0.7002075382097104,-1.4432899320127035e-15 A3.188293614487725,3.188293614487725,0,1,1,5.6712818196176995,-1.9206858326015208e-14 A3.188293614487726,3.188293614487726,0,0,0,-0.7002075382097099,2.220446049250313e-15 Z" fill="black" />
<path d="M-0.15463352521466955,2.7755575615628914e-17 A0.6024252842019664,0.6024252842019664,0,0,0,-1.3585208553330101,1.1796119636642288e-16 A0.6024252842019664,0.6024252842019664,0,1,1,-0.15463352521466955,-6.591949208711867e-17 Z" fill="red" />
<circle cx="-1.0256410256410253" cy="-0.5411560904915864" r="0.05393594231837789" fill="green" />
<path d="M-0.9172293319650519,-0.5492667145641181 A0.10841169367597345,0.10841169367597345,0,0,0,-1.1340527193169987,-0.5492667145641181 A0.10841169367597345,0.10841169367597345,0,0,0,-0.9172293319650519,-0.5492667145641181 L-0.8616685599387177,-0.562874584530925 A0.16397246570230756,0.16397246570230756,0,1,1,-1.189613491343333,-0.562874584530925 A0.16397246570230756,0.16397246570230756,0,1,1,-0.8616685599387177,-0.562874584530925 Z" fill="green" opacity="0.6" />
<path d="M-0.8044666963625862,-0.5821158925283988 A0.22117432927843922,0.22117432927843922,0,0,0,-1.2468153549194645,-0.5821158925283988 A0.22117432927843922,0.22117432927843922,0,0,0,-0.8044666963625862,-0.5821158925283988 L-0.7450512457597764,-0.6071832120342052 A0.28058977988124884,0.28058977988124884,0,1,1,-1.3062308055222742,-0.6071832120342052 A0.28058977988124884,0.28058977988124884,0,1,1,-0.7450512457597764,-0.6071832120342052 Z" fill="green" opacity="0.6" />
<path d="M-0.6828275583304342,-0.6383274252073753 A0.34281346731059165,0.34281346731059165,0,0,0,-1.3684544929516174,-0.6383274252073753 A0.34281346731059165,0.34281346731059165,0,0,0,-0.6828275583304342,-0.6383274252073753 L-0.6171728784966615,-0.6758602338012775 A0.4084681471443645,0.4084681471443645,0,1,1,-1.4341091727853905,-0.6758602338012775 A0.4084681471443645,0.4084681471443645,0,1,1,-0.6171728784966615,-0.6758602338012775 Z" fill="green" opacity="0.6" />
<path d="M-0.5474301121553826,-0.7201572787795322 A0.47821091348564343,0.47821091348564343,0,0,0,-1.5038519391266694,-0.7201572787795323 A0.47821091348564343,0.47821091348564343,0,0,0,-0.5474301121553826,-0.7201572787795322 L-0.4729012502597004,-0.7716618998570328 A0.5527397753813256,0.5527397753813256,0,1,1,-1.5783808010223517,-0.7716618998570329 A0.5527397753813256,0.5527397753813256,0,1,1,-0.4729012502597004,-0.7716618998570328 Z" fill="green" opacity="0.6" />
<path d="M-0.39284038290974777,-0.8308895725928238 A0.6328006427312778,0.6328006427312778,0,0,0,-1.6584416683723033,-0.8308895725928239 A0.6328006427312778,0.6328006427312778,0,0,0,-0.39284038290974777,-0.8308895725928238 L-0.3064462340356995,-0.8984330674427535 A0.7191947916053261,0.7191947916053261,0,1,1,-1.7448358172463516,-0.8984330674427536 A0.7191947916053261,0.7191947916053261,0,1,1,-0.3064462340356995,-0.8984330674427535 Z" fill="green" opacity="0.6" />
<path d="M-0.21285414195754782,-0.9749683824054332 A0.8127868836834782,0.8127868836834782,0,0,0,-1.8384279093245042,-0.9749683824054333 A0.8127868836834782,0.8127868836834782,0,0,0,-0.21285414195754782,-0.9749683824054332 L-0.11112740556038625,-1.0612615086374158 A0.9145136200806395,0.9145136200806395,0,1,1,-1.9401546457216652,-1.061261508637416 A0.9145136200806395,0.9145136200806395,0,1,1,-0.11112740556038625,-1.0612615086374158 Z" fill="green" opacity="0.6" />
<path d="M-0.00024790947481445613,-1.1581760967501533 A1.0253931161662113,1.0253931161662113,0,0,0,-2.051034141807237,-1.1581760967501535 A1.0253931161662113,1.0253931161662113,0,0,0,-0.00024790947481445613,-1.1581760967501533 L0.12089406556387683,-1.2666821005155953 A1.1465350912049024,1.1465350912049024,0,1,1,-2.172176116845928,-1.2666821005155955 A1.1465350912049024,1.1465350912049024,0,1,1,0.12089406556387683,-1.2666821005155953 Z" fill="green" opacity="0.6" />
<path d="M0.2535109491590988,-1.3878654844895544 A1.2791519748001248,1.2791519748001248,0,0,0,-2.3047930004411508,-1.3878654844895546 A1.2791519748001248,1.2791519748001248,0,0,0,0.2535109491590988,-1.3878654844895544 L0.3989300156559463,-1.5229390927099833 A1.4245710412969723,1.4245710412969723,0,1,1,-2.4502120669379983,-1.5229390927099835 A1.4245710412969723,1.4245710412969723,0,1,1,0.3989300156559463,-1.5229390927099833 Z" fill="green" opacity="0.6" />
<path d="M0.5586066679489563,-1.6732547872477592 A1.584247693589982,1.584247693589982,0,0,0,-2.609888719231008,-1.6732547872477594 A1.584247693589982,1.584247693589982,0,0,0,0.5586066679489563,-1.6732547872477592 L0.7341390036434541,-1.840316978096668 A1.7597800292844796,1.7597800292844796,0,1,1,-2.7854210549255054,-1.8403169780966682 A1.7597800292844796,1.7597800292844796,0,1,1,0.7341390036434541,-1.840316978096668 Z" fill="green" opacity="0.6" />
<path d="M0.9272838093535238,-2.0257976798142643 A1.9529248349945496,1.9529248349945496,0,0,0,-2.9785658606355754,-2.0257976798142647 A1.9529248349945496,1.9529248349945496,0,0,0,0.9272838093535238,-2.0257976798142643 L1.1399741432129253,-2.2315532456055567 A2.1656151688539507,2.1656151688539507,0,1,1,-3.1912561944949758,-2.231553245605557 A2.1656151688539507,2.1656151688539507,0,1,1,1.1399741432129253,-2.2315532456055567 Z" fill="green" opacity="0.6" />
<path d="M-0.9031887065848312,-0.27727171513153936 A0.2772717151315392,0.2772717151315392,0,0,0,-1.4577321368479095,-0.2772717151315394 A0.2772717151315392,0.2772717151315392,0,0,0,-0.9031887065848312,-0.27727171513153936 L-0.8740277857480376,-0.3064326359683328 A0.3064326359683329,0.3064326359683329,0,1,1,-1.4868930576847035,-0.30643263596833287 A0.3064326359683329,0.3064326359683329,0,1,1,-0.8740277857480376,-0.3064326359683328 Z" fill="blue" opacity="0.7" />
<path d="M4.201135954083586,-3.354008865700549 A3.35400886570055,3.35400886570055,0,0,0,-2.5068817773175134,-3.3540088657005493 A3.35400886570055,3.35400886570055,0,0,0,4.201135954083586,-3.354008865700549 L4.5538801457231735,-3.7067530573401375 A3.706753057340138,3.706753057340138,0,1,1,-2.859625968957102,-3.706753057340138 A3.706753057340138,3.706753057340138,0,1,1,4.5538801457231735,-3.7067530573401375 Z" fill="blue" opacity="0.7" />
<circle cx="-1.0" cy="-0.0" r="0.05" fill="orange" />
<circle cx="1.0" cy="0.0" r="0.05" fill="green" />
<circle cx="0.0" cy="-0.0" r="0.05" fill="red" />
<circle cx="-200000.0" cy="-0.0" r="0.05" fill="brown" />
<circle cx="0.0" cy="-1.0" r="0.05" fill="white" />
</svg>