<?xml version="1.0" encoding="UTF-8"?>
<svg xmlns="http://www.w3.org/2000/svg" xmlns:xlink="http://www.w3.org/1999/xlink"
     width="400" height="400.0" viewBox="-1.05 -1.05 2.1 2.1">
<defs>
</defs>
<circle cx="0" cy="0" r="1" fill="silver" />
<path d="M-0.6761080296042267,0.7368025056313872 A0.9043920000079049,0.9043920000079049,0,1,0,-0.45720108772232826,-0.8893633483484239 A0.913221923324034,0.913221923324034,0,1,1,-0.6761080296042266,0.7368025056313872 Z" fill="yellow" />
<path d="M-0.676108029604226,0.7368025056313877 A0.8852869012574398,0.8852869012574398,0,1,0,-0.4572010877223269,-0.8893633483484243 A0.8950530318539416,0.8950530318539416,0,1,1,-0.6761080296042261,0.7368025056313876 Z" fill="yellow" />
<path d="M-0.6761080296042259,0.7368025056313877 A0.8650111274782127,0.8650111274782127,0,1,0,-0.4572010877223281,-0.889363348348424 A0.8752155998096796,0.8752155998096796,0,1,1,-0.676108029604226,0.7368025056313877 Z" fill="yellow" />
<path d="M-0.6761080296042254,0.7368025056313882 A0.8452141093616596,0.8452141093616596,0,1,0,-0.45720108772232776,-0.8893633483484241 A0.8549073205022526,0.8549073205022526,0,1,1,-0.6761080296042254,0.7368025056313882 Z" fill="yellow" />
<path d="M-0.6761080296042251,0.7368025056313885 A0.8287889616091711,0.8287889616091711,0,1,0,-0.45720108772232737,-0.8893633483484242 A0.8363349899289807,0.8363349899289807,0,1,1,-0.6761080296042252,0.7368025056313883 Z" fill="yellow" />
<path d="M-0.6761080296042254,0.7368025056313884 A0.820530136165164,0.820530136165164,0,1,0,-0.45720108772232737,-0.8893633483484243 A0.8232389647436406,0.8232389647436406,0,1,1,-0.6761080296042252,0.7368025056313883 Z" fill="yellow" />
<path d="M-0.6761080296042253,0.7368025056313884 A0.8282731608599712,0.8282731608599712,0,0,0,-0.45720108772232737,-0.8893633483484242 A0.821743349062037,0.821743349062037,0,0,1,-0.6761080296042251,0.7368025056313885 Z" fill="yellow" />
<path d="M-0.6761080296042252,0.7368025056313884 A0.8652038852493081,0.8652038852493081,0,0,0,-0.4572010877223275,-0.8893633483484243 A0.8419457159148379,0.8419457159148379,0,0,1,-0.6761080296042252,0.7368025056313885 Z" fill="yellow" />
<path d="M-0.6761080296042254,0.7368025056313884 A0.9553574804813653,0.9553574804813653,0,0,0,-0.45720108772232737,-0.8893633483484241 A0.9014094182854969,0.9014094182854969,0,0,1,-0.6761080296042252,0.7368025056313885 Z" fill="yellow" />
<path d="M-0.6761080296042251,0.7368025056313884 A1.1491868007188357,1.1491868007188357,0,0,0,-0.45720108772232715,-0.8893633483484242 A1.034197673068035,1.034197673068035,0,0,1,-0.6761080296042251,0.7368025056313885 Z" fill="yellow" />
<path d="M-0.6761080296042254,0.7368025056313889 A1.5794213236604946,1.5794213236604946,0,0,0,-0.45720108772232737,-0.8893633483484247 A1.3192946744380665,1.3192946744380665,0,0,1,-0.6761080296042248,0.7368025056313883 Z" fill="yellow" />
<path d="M-0.6761080296042254,0.7368025056313894 A2.766147066412326,2.766147066412326,0,0,0,-0.45720108772232715,-0.8893633483484258 A2.001945297531327,2.001945297531327,0,0,1,-0.676108029604225,0.7368025056313885 Z" fill="yellow" />
<path d="M-0.6761080296042294,0.7368025056313929 A11.146549494941906,11.146549494941906,0,0,0,-0.4572010877223285,-0.8893633483484297 A4.472502125986603,4.472502125986603,0,0,1,-0.676108029604225,0.7368025056313885 Z" fill="yellow" />
<path d="M-0.6761080296042241,0.7368025056313803 A6.484700807231011,6.484700807231011,0,0,1,-0.4572010877223276,-0.8893633483484141 A27.06347166311085,27.06347166311085,0,0,0,-0.6761080296042294,0.7368025056313994 Z" fill="yellow" />
<path d="M-0.676108029604225,0.7368025056313894 A2.8065239524347785,2.8065239524347785,0,0,1,-0.45720108772232626,-0.889363348348426 A3.8341812539260416,3.8341812539260416,0,0,0,-0.6761080296042254,0.7368025056313866 Z" fill="yellow" />
<path d="M-0.6761080296042241,0.7368025056313903 A1.9413739661690983,1.9413739661690983,0,0,1,-0.4572010877223269,-0.8893633483484241 A2.2681932613101465,2.2681932613101465,0,0,0,-0.6761080296042243,0.7368025056313892 Z" fill="yellow" />
<path d="M-0.6761080296042243,0.7368025056313894 A1.5724359264765113,1.5724359264765113,0,0,1,-0.4572010877223267,-0.8893633483484245 A1.7247121282089155,1.7247121282089155,0,0,0,-0.676108029604225,0.7368025056313883 Z" fill="yellow" />
<path d="M-0.676108029604225,0.7368025056313887 A1.3765512917696279,1.3765512917696279,0,0,1,-0.45720108772232726,-0.8893633483484245 A1.4608693286400745,1.4608693286400745,0,0,0,-0.676108029604225,0.7368025056313886 Z" fill="yellow" />
<path d="M-0.676108029604225,0.7368025056313885 A1.259765036115686,1.259765036115686,0,0,1,-0.45720108772232637,-0.8893633483484249 A1.3112757621072553,1.3112757621072553,0,0,0,-0.6761080296042246,0.7368025056313892 Z" fill="yellow" />
<path d="M-0.6761080296042241,0.7368025056313895 A1.184955062502888,1.184955062502888,0,0,1,-0.4572010877223253,-0.8893633483484256 A1.2184778521057444,1.2184778521057444,0,0,0,-0.6761080296042239,0.7368025056313894 Z" fill="yellow" />
<path d="M-0.6761080296042231,0.7368025056313905 A1.1346466572473821,1.1346466572473821,0,0,1,-0.4572010877223266,-0.8893633483484247 A1.1574398075438783,1.1574398075438783,0,0,0,-0.676108029604225,0.7368025056313884 Z" fill="yellow" />
<path d="M-0.6761080296042252,0.7368025056313884 A1.4794224403436937,1.4794224403436937,0,0,0,-0.45720108772232737,-0.8893633483484245 A1.3935338160487278,1.3935338160487278,0,0,1,-0.6761080296042254,0.7368025056313886 Z" fill="#aaaa00" />
<path d="M-0.4999999999999998,-0.8660254037844385 A1.8110197250171858,1.8110197250171858,0,0,0,0.9999999999999997,-2.220446049250313e-16 A1.6606752626039962,1.6606752626039962,0,0,1,-0.5000000000000003,-0.8660254037844392 Z" fill="black" />
<path d="M-0.5000000000000004,0.8660254037844382 A1.8110197250171853,1.8110197250171853,0,0,0,-0.49999999999999933,-0.8660254037844387 A1.6606752626039951,1.6606752626039951,0,0,1,-0.5000000000000007,0.8660254037844383 Z" fill="black" />
<path d="M0.9999999999999998,4.440892098500626e-16 A1.8110197250171869,1.8110197250171869,0,0,0,-0.5000000000000004,0.8660254037844387 A1.660675262603997,1.660675262603997,0,0,1,1.0000000000000004,2.220446049250313e-16 Z" fill="black" />
<path d="M0.4172596840353441,-0.5913639436937687 A1.2932698963421476,1.2932698963421476,0,0,0,-0.1864349763508688,0.47281864821988373 A0.777392335294867,0.777392335294867,0,0,1,0.16417468313764755,0.5656139225246023 A6.622494113647175,6.622494113647175,0,0,0,0.604067664325207,-0.44390583318488686 A0.3563048203434834,0.3563048203434834,0,0,1,0.41725968403534386,-0.5913639436937685 Z" fill="blue" />
<path d="M-0.0891011729791571,0.9960225805541452 A2.8504385627478457,2.8504385627478457,0,0,1,0.6918408990065554,-0.7220499778144205" stroke="red" stroke-width="0.05" fill="none" />
<path d="M-0.08910117297915687,0.9960225805541462 A1.8474141817385112,1.8474141817385112,0,0,1,0.6918408990065541,-0.72204997781442" stroke="green" stroke-width="0.03" fill="none" />
<path d="M-0.08910117297915487,0.9960225805541407 A6.823773007054828,6.823773007054828,0,0,1,0.691840899006551,-0.7220499778144132" stroke="black" stroke-width="0.03" fill="none" />
<circle cx="0" cy="0.5" r="0.02" fill="green" />
<circle cx="0.5" cy="-0.5" r="0.02" fill="green" />
<path d="M-0.9396926207859078,0.342020143325668 A2.34765932825768,2.34765932825768,0,0,0,0.3420201433256689,-0.9396926207859071 A1.9766223261582985,1.9766223261582985,0,0,1,-0.9396926207859088,0.342020143325668 Z" fill="black" />
<path d="M-0.30204470038454634,0.953293763207129 A1.0369617588488942,1.0369617588488942,0,0,0,-0.9548291551292447,-0.297155320523077 A0.9575672486053238,0.9575672486053238,0,0,1,-0.30204470038454645,0.9532937632071288 Z" fill="red" />
<circle cx="-0.59905570074858" cy="-0.0998426167914301" r="0.031502867878043905" fill="green" />
<path d="M-0.5332087318649237,-0.09937186764024548 A0.06302247397654859,0.06302247397654859,0,0,0,-0.6592536798180209,-0.0993718676402455 A0.06302247397654859,0.06302247397654859,0,0,0,-0.5332087318649237,-0.09937186764024548 L-0.49697844433478316,-0.09859194611233126 A0.09457323233920373,0.09457323233920373,0,1,1,-0.6861249090131907,-0.09859194611233127 A0.09457323233920373,0.09457323233920373,0,1,1,-0.49697844433478316,-0.09859194611233126 Z" fill="green" opacity="0.6" />
<path d="M-0.45889387859671804,-0.09750981414818617 A0.12616500629239832,0.12616500629239832,0,0,0,-0.7112238911815147,-0.09750981414818619 A0.12616500629239832,0.12616500629239832,0,0,0,-0.45889387859671804,-0.09750981414818617 L-0.41900986899653947,-0.09613515719827552 A0.15780107419311304,0.15780107419311304,0,1,1,-0.7346120173827656,-0.09613515719827553 A0.15780107419311304,0.15780107419311304,0,1,1,-0.41900986899653947,-0.09613515719827552 Z" fill="green" opacity="0.6" />
<path d="M-0.3774055091598232,-0.09448031419130712 A0.1894763759880189,0.1894763759880189,0,0,0,-0.756358261135861,-0.09448031419130715 A0.1894763759880189,0.1894763759880189,0,0,0,-0.3774055091598232,-0.09448031419130712 L-0.334184937859089,-0.0925601762384835 A0.22117611957181146,0.22117611957181146,0,1,1,-0.776537177002712,-0.09256017623848353 A0.22117611957181146,0.22117611957181146,0,1,1,-0.334184937859089,-0.0925601762384835 Z" fill="green" opacity="0.6" />
<path d="M-0.28947747364183796,-0.09039204773160035 A0.2528748127477637,0.2528748127477637,0,0,0,-0.7952270991373653,-0.09039204773160038 A0.2528748127477637,0.2528748127477637,0,0,0,-0.28947747364183796,-0.09039204773160035 L-0.2434370154180014,-0.08799546418172037 A0.28453576967232025,0.28453576967232025,0,1,1,-0.8125085547626418,-0.08799546418172041 A0.28453576967232025,0.28453576967232025,0,1,1,-0.2434370154180014,-0.08799546418172037 Z" fill="green" opacity="0.6" />
<path d="M-0.19624065641887734,-0.08539196277425759 A0.31611112022666765,0.31611112022666765,0,0,0,-0.8284628968722126,-0.08539196277425763 A0.31611112022666765,0.31611112022666765,0,0,0,-0.19624065641887734,-0.08539196277425759 L-0.14808649708602906,-0.08260480408732322 A0.3475423274379098,0.3475423274379098,0,1,1,-0.8431711519618487,-0.08260480408732326 A0.3475423274379098,0.3475423274379098,0,1,1,-0.14808649708602906,-0.08260480408732322 Z" fill="green" opacity="0.6" />
<path d="M-0.09919068621339666,-0.07965864653163567 A0.37876119297641686,0.37876119297641686,0,0,0,-0.8567130721662304,-0.07965864653163571 A0.37876119297641686,0.37876119297641686,0,0,0,-0.09919068621339666,-0.07965864653163567 L-0.04978376576681698,-0.07657917853216524 A0.40969130542617394,0.40969130542617394,0,1,1,-0.8691663766191648,-0.0765791785321653 A0.40969130542617394,0.40969130542617394,0,1,1,-0.04978376576681698,-0.07657917853216524 Z" fill="green" opacity="0.6" />
<path d="M-0.0001064392869748465,-0.07339271693365677 A0.4402498623149654,0.4402498623149654,0,0,0,-0.8806061639169056,-0.07339271693365683 A0.4402498623149654,0.4402498623149654,0,0,0,-0.0001064392869748465,-0.07339271693365677 L0.04959507753909631,-0.07012578320351674 A0.47034977676019635,0.47034977676019635,0,1,1,-0.8911044759812964,-0.0701257832035168 A0.47034977676019635,0.47034977676019635,0,1,1,0.04959507753909631,-0.07012578320351674 Z" fill="green" opacity="0.6" />
<path d="M0.0990739365536239,-0.06680467138152525 A0.499901964842775,0.499901964842775,0,0,0,-0.9007299931319261,-0.06680467138152531 A0.499901964842775,0.499901964842775,0,0,0,0.0990739365536239,-0.06680467138152525 L0.14808756318032007,-0.06345502311360106 A0.528817701861926,0.528817701861926,0,1,1,-0.909547840543532,-0.06345502311360113 A0.528817701861926,0.528817701861926,0,1,1,0.14808756318032007,-0.06345502311360106 Z" fill="green" opacity="0.6" />
<path d="M0.1964023831561994,-0.0601014253428953 A0.5570109352135708,0.5570109352135708,0,0,0,-0.9176194872709422,-0.06010142534289537 A0.5570109352135708,0.5570109352135708,0,0,0,0.1964023831561994,-0.0601014253428953 L0.2437981770763984,-0.056767045283677264 A0.5844004487784616,0.5844004487784616,0,1,1,-0.9250027204805249,-0.056767045283677334 A0.5844004487784616,0.5844004487784616,0,1,1,0.2437981770763984,-0.056767045283677264 Z" fill="green" opacity="0.6" />
<path d="M0.2900718959906843,-0.05347331527351514 A0.6109117876317748,0.6109117876317748,0,0,0,-0.9317516792728653,-0.05347331527351522 A0.6109117876317748,0.6109117876317748,0,0,0,0.2900718959906843,-0.05347331527351514 L0.3350408079173441,-0.05023967720522812 A0.6364788711487125,0.6364788711487125,0,1,1,-0.9379169343800808,-0.0502396772052282 A0.6364788711487125,0.6364788711487125,0,1,1,0.3350408079173441,-0.05023967720522812 Z" fill="green" opacity="0.6" />
<path d="M-0.6127404631712218,-0.13347448144637322 A0.18810642550701684,0.18810642550701684,0,0,0,-0.9889533141852554,-0.13347448144637325 A0.18810642550701684,0.18810642550701684,0,0,0,-0.6127404631712218,-0.13347448144637322 L-0.5814540431257503,-0.1308851381594371 A0.2038567858308713,0.2038567858308713,0,1,1,-0.9891676147874929,-0.13088513815943711 A0.2038567858308713,0.2038567858308713,0,1,1,-0.5814540431257503,-0.1308851381594371 Z" fill="blue" opacity="0.7" />
<path d="M0.9972263090446509,0.033513849145920434 A0.7961432141691287,0.7961432141691287,0,0,0,-0.5950601192936065,0.03351384914592034 A0.7961432141691287,0.7961432141691287,0,0,0,0.9972263090446509,0.033513849145920434 L0.9974406096468883,0.030924505858984274 A0.811893574492983,0.811893574492983,0,1,1,-0.6263465393390778,0.030924505858984173 A0.811893574492983,0.811893574492983,0,1,1,0.9974406096468883,0.030924505858984274 Z" fill="blue" opacity="0.7" />
<circle cx="-1" cy="0" r="0.05" fill="orange" />
<circle cx="1" cy="0" r="0.05" fill="green" />
<circle cx="0" cy="1" r="0.05" fill="red" />
<circle cx="0" cy="-1" r="0.05" fill="brown" />
<circle cx="0" cy="0" r="0.05" fill="white" />
</svg>