<?xml version="1.0" encoding="UTF-8"?>
<svg xmlns="http://www.w3.org/2000/svg" xmlns:xlink="http://www.w3.org/1999/xlink"
     width="400" height="400.0" viewBox="-1.05 -1.05 2.1 2.1">
<defs>
</defs>
<circle cx="0" cy="0" r="1" fill="silver" />
<path d="M-0.894427191,0.4472135955 A3.4327384303217383,3.4327384303217383,0,0,1,0.894427191,-0.4472135955 A3.432738430321742,3.432738430321742,0,0,1,-0.894427191,0.4472135955 Z" fill="black" stroke-width="0.01" stroke="white" />
<path d="M-0.8944271909999159,0.44721359549995804 L0.8944271909999159,-0.4472135954999579" stroke-width="0.01" stroke="white" stroke-dasharray=".02,.02" fill="none" />
<path d="M-0.731387649263,-0.302055175644 A3.432738430321739,3.432738430321739,0,0,0,-0.553028581787,-0.162861339429 A0.6149186938124417,0.6149186938124417,0,0,0,-0.462106220616,-0.344706061772 A3.4327384303217436,3.4327384303217436,0,0,0,-0.680476730072,-0.403877014024 A0.24756466893747694,0.24756466893747694,0,0,1,-0.731387649263,-0.302055175644 Z" fill="black" stroke-width="0.01" stroke="white" />
<path d="M-0.5,-0.25 L-0.7,-0.35" stroke-width="0.01" stroke="white" stroke-dasharray=".02,.02" fill="none" />
<path d="M0.0465973073623,-0.798899597591 A0.6937671518607741,0.6937671518607741,0,0,0,0.447716192924,-0.100130433956 A1.0809973059584361,1.0809973059584361,0,0,1,0.554444576312,-0.283029215989 A1.1644417947885795,1.1644417947885795,0,0,1,0.148630891927,-0.812497672097 A0.22485189582886658,0.22485189582886658,0,0,1,0.0465973073623,-0.798899597591 Z" fill="black" stroke-width="0.01" stroke="white" />
<path d="M0.5,-0.2 A0.831782952990999,0.831782952990999,0,0,1,0.1,-0.8" stroke-width="0.01" stroke="white" stroke-dasharray=".02,.02" fill="none" />
<path d="M0.996193191722,0.0871729589245 A1.1644417947885795,1.1644417947885795,0,0,0,0.0957206045577,0.995408240805 A0.6937671518607741,0.6937671518607741,0,0,1,0.996193191722,0.0871729589245 Z" fill="black" stroke-width="0.01" stroke="white" />
<path d="M0.996193191722,0.0871729589245 A0.831782952990999,0.831782952990999,0,0,0,0.0957206045577,0.995408240805" stroke-width="0.01" stroke="white" stroke-dasharray=".02,.02" fill="none" />
<circle cx="0.5" cy="-0.25" r="0.02" fill="white" />
<circle cx="0.7" cy="-0.35" r="0.02" fill="white" />
<circle cx="-0.5" cy="-0.25" r="0.02" fill="white" />
<circle cx="-0.7" cy="-0.35" r="0.02" fill="white" />
<circle cx="0.5" cy="-0.2" r="0.02" fill="white" />
<circle cx="0.1" cy="-0.8" r="0.02" fill="white" />
<circle cx="0.5" cy="0.2" r="0.02" fill="white" />
<circle cx="0.1" cy="0.8" r="0.02" fill="white" />
</svg>