<?xml version="1.0" encoding="UTF-8"?>
<svg xmlns="http://www.w3.org/2000/svg" xmlns:xlink="http://www.w3.org/1999/xlink"
     width="400" height="400.0" viewBox="-1.05 -1.05 2.1 2.1">
<defs>
</defs>
<circle cx="0" cy="0" r="1" fill="none" stroke-width="0.006" stroke="black" />
<path d="M-1.0,-3.87190279838e-15 A0.024542346330013717,0.024542346330013717,0,0,1,-0.998795456205,0.0490676743274 A0.024560428089868067,0.024560428089868067,0,0,0,-1.0,-3.87190279838e-15 Z" fill="black" />
<path d="M-0.995184726672,0.0980171403296 A0.02456042808986786,0.02456042808986786,0,0,0,-0.998795456205,0.0490676743274 A0.02454234633001357,0.02454234633001357,0,0,1,-0.995184726672,0.0980171403296 Z" fill="black" />
<path d="M-0.980785280403,0.195090322016 A25.2878159648306,25.2878159648306,0,0,1,0.989176509965,-0.146730474455 A104.74510463230544,104.74510463230544,0,0,0,-0.980785280402,0.195090322016 Z" fill="black" />
<path d="M-0.995184726672,0.0980171403296 A104.74510463227345,104.74510463227345,0,0,0,0.989176509965,-0.146730474455 A25.287815964827708,25.287815964827708,0,0,1,-0.995184726672,0.0980171403296 Z" fill="black" />
<path d="M-0.923879532511,0.382683432365 A0.9387788779537498,0.9387788779537498,0,0,1,0.336889853392,0.941544065183 A0.9659821468165416,0.9659821468165416,0,0,0,-0.923879532511,0.382683432365 Z" fill="black" />
<path d="M0.956940335732,-0.290284677254 A0.965982146816543,0.965982146816543,0,0,0,0.336889853392,0.941544065183 A0.9387788779537513,0.9387788779537513,0,0,1,0.956940335732,-0.290284677254 Z" fill="black" />
<path d="M-0.980785280403,0.195090322016 A1.0341572598283704,1.0341572598283704,0,0,1,0.242980179903,0.970031253195 A1.067266416048735,1.067266416048735,0,0,0,-0.980785280403,0.195090322016 Z" fill="black" />
<path d="M0.956940335732,-0.290284677254 A1.0672664160487337,1.0672664160487337,0,0,0,0.242980179903,0.970031253195 A1.0341572598283695,1.0341572598283695,0,0,1,0.956940335732,-0.290284677254 Z" fill="black" />
<path d="M-0.707106781187,0.707106781187 A0.3835665109422388,0.3835665109422388,0,0,1,-0.0490676743274,0.998795456205 A0.38803124987133286,0.38803124987133286,0,0,0,-0.707106781187,0.707106781187 Z" fill="black" />
<path d="M0.634393284164,0.773010453363 A0.388031249871333,0.388031249871333,0,0,0,-0.0490676743274,0.998795456205 A0.3835665109422388,0.3835665109422388,0,0,1,0.634393284164,0.773010453363 Z" fill="black" />
<path d="M0.831469612303,-0.55557023302 A2.4956447916161224,2.4956447916161224,0,0,1,-0.989176509965,-0.146730474455 A2.697596959485292,2.697596959485292,0,0,0,0.831469612303,-0.55557023302 Z" fill="black" />
<path d="M0.634393284164,0.773010453363 A2.697596959485296,2.697596959485296,0,0,0,-0.989176509965,-0.146730474455 A2.4956447916161224,2.4956447916161224,0,0,1,0.634393284164,0.773010453363 Z" fill="black" />
<path d="M-0.923879532511,0.382683432365 A0.44039109364820095,0.44039109364820095,0,0,1,-0.336889853392,0.941544065183 A0.44628687441237547,0.44628687441237547,0,0,0,-0.923879532511,0.382683432365 Z" fill="black" />
<path d="M0.471396736826,0.881921264348 A0.44628687441237624,0.44628687441237624,0,0,0,-0.336889853392,0.941544065183 A0.44039109364820195,0.44039109364820195,0,0,1,0.471396736826,0.881921264348 Z" fill="black" />
<path d="M0.831469612303,-0.55557023302 A2.182364840340511,2.182364840340511,0,0,1,-0.970031253195,-0.242980179903 A2.3352440070104628,2.3352440070104628,0,0,0,0.831469612303,-0.55557023302 Z" fill="black" />
<path d="M0.471396736826,0.881921264348 A2.335244007010454,2.335244007010454,0,0,0,-0.970031253195,-0.242980179903 A2.1823648403405036,2.1823648403405036,0,0,1,0.471396736826,0.881921264348 Z" fill="black" />
<path d="M9.43689570931e-16,1.0 A0.17308546654992554,0.17308546654992554,0,0,1,0.336889853392,0.941544065183 A0.17398884702023604,0.17398884702023604,0,0,0,9.43689570931e-16,1.0 Z" fill="black" />
<path d="M0.634393284164,0.773010453363 A0.17398884702023773,0.17398884702023773,0,0,0,0.336889853392,0.941544065183 A0.17308546654992718,0.17308546654992718,0,0,1,0.634393284164,0.773010453363 Z" fill="black" />
<path d="M0.980785280403,0.195090322016 A5.305157529445271,5.305157529445271,0,0,1,-0.85772861,-0.514102744193 A6.309225238935816,6.309225238935816,0,0,0,0.980785280403,0.195090322016 Z" fill="black" />
<path d="M0.634393284164,0.773010453363 A6.309225238935771,6.309225238935771,0,0,0,-0.85772861,-0.514102744193 A5.305157529445259,5.305157529445259,0,0,1,0.634393284164,0.773010453363 Z" fill="black" />
<path d="M0.382683432365,-0.923879532511 A0.6969952263337925,0.6969952263337925,0,0,1,-0.740951125355,-0.671558954847 A0.7118794064782461,0.7118794064782461,0,0,0,0.382683432365,-0.923879532511 Z" fill="black" />
<path d="M-0.881921264348,0.471396736826 A0.7118794064782461,0.7118794064782461,0,0,0,-0.740951125355,-0.671558954847 A0.6969952263337924,0.6969952263337924,0,0,1,-0.881921264348,0.471396736826 Z" fill="black" />
<path d="M0.980785280403,0.195090322016 A1.3904355322169442,1.3904355322169442,0,0,1,-0.146730474455,-0.989176509965 A1.4509547651767942,1.4509547651767942,0,0,0,0.980785280403,0.195090322016 Z" fill="black" />
<path d="M-0.881921264348,0.471396736826 A1.4509547651767967,1.4509547651767967,0,0,0,-0.146730474455,-0.989176509965 A1.3904355322169468,1.3904355322169468,0,0,1,-0.881921264348,0.471396736826 Z" fill="black" />
<path d="M-0.707106781187,0.707106781187 A0.22382880764429694,0.22382880764429694,0,0,1,-0.336889853392,0.941544065183 A0.2253418339894503,0.2253418339894503,0,0,0,-0.707106781187,0.707106781187 Z" fill="black" />
<path d="M0.0980171403296,0.995184726672 A0.22534183398945,0.22534183398945,0,0,0,-0.336889853392,0.941544065183 A0.22382880764429677,0.22382880764429677,0,0,1,0.0980171403296,0.995184726672 Z" fill="black" />
<path d="M0.831469612303,0.55557023302 A4.1748228080848016,4.1748228080848016,0,0,1,-0.514102744193,-0.85772861 A4.772509417272335,4.772509417272335,0,0,0,0.831469612303,0.55557023302 Z" fill="black" />
<path d="M0.0980171403296,0.995184726672 A4.772509417272347,4.772509417272347,0,0,0,-0.514102744193,-0.85772861 A4.1748228080848095,4.1748228080848095,0,0,1,0.0980171403296,0.995184726672 Z" fill="black" />
<path d="M0.382683432365,-0.923879532511 A0.6273550111942404,0.6273550111942404,0,0,1,-0.671558954847,-0.740951125355 A0.6393878030179844,0.6393878030179844,0,0,0,0.382683432365,-0.923879532511 Z" fill="black" />
<path d="M-0.956940335732,0.290284677254 A0.6393878030179836,0.6393878030179836,0,0,0,-0.671558954847,-0.740951125355 A0.6273550111942399,0.6273550111942399,0,0,1,-0.956940335732,0.290284677254 Z" fill="black" />
<path d="M0.831469612303,0.55557023302 A1.5428035618029254,1.5428035618029254,0,0,1,0.146730474455,-0.989176509965 A1.6176703753851478,1.6176703753851478,0,0,0,0.831469612303,0.55557023302 Z" fill="black" />
<path d="M-0.956940335732,0.290284677254 A1.6176703753851438,1.6176703753851438,0,0,0,0.146730474455,-0.989176509965 A1.5428035618029212,1.5428035618029212,0,0,1,-0.956940335732,0.290284677254 Z" fill="black" />
<path d="M1.0,1.62370117351e-15 A0.07369119028753313,0.07369119028753313,0,0,1,0.989176509965,-0.146730474455 A0.0738544507146206,0.0738544507146206,0,0,0,1.0,1.62370117351e-15 Z" fill="black" />
<path d="M0.956940335732,-0.290284677254 A0.07385445071462075,0.07385445071462075,0,0,0,0.989176509965,-0.146730474455 A0.07369119028753322,0.07369119028753322,0,0,1,0.956940335732,-0.290284677254 Z" fill="black" />
<path d="M0.831469612303,-0.55557023302 A11.266969744685023,11.266969744685023,0,0,1,-0.903989293123,0.42755509343 A17.01917383681838,17.01917383681838,0,0,0,0.831469612303,-0.55557023302 Z" fill="black" />
<path d="M0.956940335732,-0.290284677254 A17.0191738368187,17.0191738368187,0,0,0,-0.903989293123,0.42755509343 A11.2669697446851,11.2669697446851,0,0,1,0.956940335732,-0.290284677254 Z" fill="black" />
<path d="M0.382683432365,-0.923879532511 A0.8516825674627774,0.8516825674627774,0,0,1,-0.85772861,-0.514102744193 A0.8740123245737264,0.8740123245737264,0,0,0,0.382683432365,-0.923879532511 Z" fill="black" />
<path d="M-0.634393284164,0.773010453363 A0.8740123245737248,0.8740123245737248,0,0,0,-0.85772861,-0.514102744193 A0.8516825674627762,0.8516825674627762,0,0,1,-0.634393284164,0.773010453363 Z" fill="black" />
<path d="M0.831469612303,-0.55557023302 A1.1395910445938506,1.1395910445938506,0,0,1,-0.671558954847,-0.740951125355 A1.1799270483667281,1.1799270483667281,0,0,0,0.831469612303,-0.55557023302 Z" fill="black" />
<path d="M-0.634393284164,0.773010453363 A1.1799270483667257,1.1799270483667257,0,0,0,-0.671558954847,-0.740951125355 A1.1395910445938484,1.1395910445938484,0,0,1,-0.634393284164,0.773010453363 Z" fill="black" />
<path d="M-0.707106781187,-0.707106781187 A0.3287633508157941,0.3287633508157941,0,0,1,-0.989176509965,-0.146730474455 A0.3320379626192554,0.3320379626192554,0,0,0,-0.707106781187,-0.707106781187 Z" fill="black" />
<path d="M-0.881921264348,0.471396736826 A0.3320379626192547,0.3320379626192547,0,0,0,-0.989176509965,-0.146730474455 A0.3287633508157934,0.3287633508157934,0,0,1,-0.881921264348,0.471396736826 Z" fill="black" />
<path d="M0.195090322016,0.980785280403 A2.895889100798019,2.895889100798019,0,0,1,0.42755509343,-0.903989293123 A3.171388084317455,3.171388084317455,0,0,0,0.195090322016,0.980785280403 Z" fill="black" />
<path d="M-0.881921264348,0.471396736826 A3.171388084317464,3.171388084317464,0,0,0,0.42755509343,-0.903989293123 A2.895889100798026,2.895889100798026,0,0,1,-0.881921264348,0.471396736826 Z" fill="black" />
<path d="M0.382683432365,-0.923879532511 A0.4996417096077218,0.4996417096077218,0,0,1,-0.514102744193,-0.85772861 A0.5072443524819472,0.5072443524819472,0,0,0,0.382683432365,-0.923879532511 Z" fill="black" />
<path d="M-0.995184726672,-0.0980171403296 A0.507244352481949,0.507244352481949,0,0,0,-0.514102744193,-0.85772861 A0.4996417096077233,0.4996417096077233,0,0,1,-0.995184726672,-0.0980171403296 Z" fill="black" />
<path d="M0.195090322016,0.980785280403 A1.9293847032763733,1.9293847032763733,0,0,1,0.671558954847,-0.740951125355 A2.047912123601095,2.047912123601095,0,0,0,0.195090322016,0.980785280403 Z" fill="black" />
<path d="M-0.995184726672,-0.0980171403296 A2.0479121236011006,2.0479121236011006,0,0,0,0.671558954847,-0.740951125355 A1.9293847032763796,1.9293847032763796,0,0,1,-0.995184726672,-0.0980171403296 Z" fill="black" />
<path d="M-3.88578058619e-16,1.0 A0.12312431436988894,0.12312431436988894,0,0,1,0.242980179903,0.970031253195 A0.12358075400561748,0.12358075400561748,0,0,0,-3.88578058619e-16,1.0 Z" fill="black" />
<path d="M0.471396736826,0.881921264348 A0.1235807540056178,0.1235807540056178,0,0,0,0.242980179903,0.970031253195 A0.1231243143698893,0.1231243143698893,0,0,1,0.471396736826,0.881921264348 Z" fill="black" />
<path d="M0.831469612303,0.55557023302 A7.229443308162686,7.229443308162686,0,0,1,-0.671558954847,-0.740951125355 A9.231437860861103,9.231437860861103,0,0,0,0.831469612303,0.55557023302 Z" fill="black" />
<path d="M0.471396736826,0.881921264348 A9.231437860860977,9.231437860860977,0,0,0,-0.671558954847,-0.740951125355 A7.229443308162615,7.229443308162615,0,0,1,0.471396736826,0.881921264348 Z" fill="black" />
<path d="M0.923879532511,-0.382683432365 A0.7714642691295074,0.7714642691295074,0,0,1,-0.146730474455,-0.989176509965 A0.7897405980230736,0.7897405980230736,0,0,0,0.923879532511,-0.382683432365 Z" fill="black" />
<path d="M-0.995184726672,-0.0980171403296 A0.7897405980230744,0.7897405980230744,0,0,0,-0.146730474455,-0.989176509965 A0.771464269129508,0.771464269129508,0,0,1,-0.995184726672,-0.0980171403296 Z" fill="black" />
<path d="M0.831469612303,0.55557023302 A1.2573575105788553,1.2573575105788553,0,0,1,0.336889853392,-0.941544065183 A1.3066412708171058,1.3066412708171058,0,0,0,0.831469612303,0.55557023302 Z" fill="black" />
<path d="M-0.995184726672,-0.0980171403296 A1.3066412708171027,1.3066412708171027,0,0,0,0.336889853392,-0.941544065183 A1.2573575105788521,1.2573575105788521,0,0,1,-0.995184726672,-0.0980171403296 Z" fill="black" />
<path d="M-0.707106781187,-0.707106781187 A0.27562422831368133,0.27562422831368133,0,0,1,-0.970031253195,-0.242980179903 A0.2779221180541352,0.2779221180541352,0,0,0,-0.707106781187,-0.707106781187 Z" fill="black" />
<path d="M-0.956940335732,0.290284677254 A0.2779221180541352,0.2779221180541352,0,0,0,-0.970031253195,-0.242980179903 A0.27562422831368144,0.27562422831368144,0,0,1,-0.956940335732,0.290284677254 Z" fill="black" />
<path d="M-0.195090322016,0.980785280403 A3.4281206967092266,3.4281206967092266,0,0,1,0.671558954847,-0.740951125355 A3.8210632018324735,3.8210632018324735,0,0,0,-0.195090322016,0.980785280403 Z" fill="black" />
<path d="M-0.956940335732,0.290284677254 A3.821063201832463,3.821063201832463,0,0,0,0.671558954847,-0.740951125355 A3.42812069670922,3.42812069670922,0,0,1,-0.956940335732,0.290284677254 Z" fill="black" />
<path d="M0.923879532511,-0.382683432365 A0.5617828644462436,0.5617828644462436,0,0,1,0.146730474455,-0.989176509965 A0.5714124336521043,0.5714124336521043,0,0,0,0.923879532511,-0.382683432365 Z" fill="black" />
<path d="M-0.773010453363,-0.634393284164 A0.5714124336521044,0.5714124336521044,0,0,0,0.146730474455,-0.989176509965 A0.5617828644462436,0.5617828644462436,0,0,1,-0.773010453363,-0.634393284164 Z" fill="black" />
<path d="M-0.195090322016,0.980785280403 A1.719902956625736,1.719902956625736,0,0,1,0.941544065183,-0.336889853392 A1.813465478698399,1.813465478698399,0,0,0,-0.195090322016,0.980785280403 Z" fill="black" />
<path d="M-0.773010453363,-0.634393284164 A1.8134654786983888,1.8134654786983888,0,0,0,0.941544065183,-0.336889853392 A1.719902956625727,1.719902956625727,0,0,1,-0.773010453363,-0.634393284164 Z" fill="black" />
</svg>