<?xml version="1.0" encoding="UTF-8"?>
<svg xmlns="http://www.w3.org/2000/svg" xmlns:xlink="http://www.w3.org/1999/xlink"
     width="400" height="400.0" viewBox="-1.05 -1.05 2.1 2.1">
<defs>
</defs>
<circle cx="0" cy="0" r="1" fill="silver" />
<path d="M-0.676108029604,0.736802505631 A0.9043920000079049,0.9043920000079049,0,1,0,-0.457201087722,-0.889363348348 A0.913221923324034,0.913221923324034,0,1,1,-0.676108029604,0.736802505631 Z" fill="yellow" />
<path d="M-0.676108029604,0.736802505631 A0.8852869012574397,0.8852869012574397,0,1,0,-0.457201087722,-0.889363348348 A0.8950530318539416,0.8950530318539416,0,1,1,-0.676108029604,0.736802505631 Z" fill="yellow" />
<path d="M-0.676108029604,0.736802505631 A0.8650111274782127,0.8650111274782127,0,1,0,-0.457201087722,-0.889363348348 A0.8752155998096794,0.8752155998096794,0,1,1,-0.676108029604,0.736802505631 Z" fill="yellow" />
<path d="M-0.676108029604,0.736802505631 A0.8452141093616597,0.8452141093616597,0,1,0,-0.457201087722,-0.889363348348 A0.8549073205022526,0.8549073205022526,0,1,1,-0.676108029604,0.736802505631 Z" fill="yellow" />
<path d="M-0.676108029604,0.736802505631 A0.8287889616091708,0.8287889616091708,0,1,0,-0.457201087722,-0.889363348348 A0.8363349899289805,0.8363349899289805,0,1,1,-0.676108029604,0.736802505631 Z" fill="yellow" />
<path d="M-0.676108029604,0.736802505631 A0.8205301361651641,0.8205301361651641,0,1,0,-0.457201087722,-0.889363348348 A0.8232389647436406,0.8232389647436406,0,1,1,-0.676108029604,0.736802505631 Z" fill="yellow" />
<path d="M-0.676108029604,0.736802505631 A0.8282731608599712,0.8282731608599712,0,0,0,-0.457201087722,-0.889363348348 A0.8217433490620369,0.8217433490620369,0,0,1,-0.676108029604,0.736802505631 Z" fill="yellow" />
<path d="M-0.676108029604,0.736802505631 A0.8652038852493082,0.8652038852493082,0,0,0,-0.457201087722,-0.889363348348 A0.8419457159148379,0.8419457159148379,0,0,1,-0.676108029604,0.736802505631 Z" fill="yellow" />
<path d="M-0.676108029604,0.736802505631 A0.9553574804813659,0.9553574804813659,0,0,0,-0.457201087722,-0.889363348348 A0.9014094182854973,0.9014094182854973,0,0,1,-0.676108029604,0.736802505631 Z" fill="yellow" />
<path d="M-0.676108029604,0.736802505631 A1.1491868007188357,1.1491868007188357,0,0,0,-0.457201087722,-0.889363348348 A1.0341976730680345,1.0341976730680345,0,0,1,-0.676108029604,0.736802505631 Z" fill="yellow" />
<path d="M-0.676108029604,0.736802505631 A1.5794213236604944,1.5794213236604944,0,0,0,-0.457201087722,-0.889363348348 A1.3192946744380656,1.3192946744380656,0,0,1,-0.676108029604,0.736802505631 Z" fill="yellow" />
<path d="M-0.676108029604,0.736802505631 A2.7661470664123198,2.7661470664123198,0,0,0,-0.457201087722,-0.889363348348 A2.001945297531324,2.001945297531324,0,0,1,-0.676108029604,0.736802505631 Z" fill="yellow" />
<path d="M-0.676108029604,0.736802505631 A11.146549494942013,11.146549494942013,0,0,0,-0.457201087722,-0.889363348348 A4.472502125986592,4.472502125986592,0,0,1,-0.676108029604,0.736802505631 Z" fill="yellow" />
<path d="M-0.676108029604,0.736802505631 A6.484700807230835,6.484700807230835,0,0,1,-0.457201087722,-0.889363348348 A27.063471663107908,27.063471663107908,0,0,0,-0.676108029604,0.736802505631 Z" fill="yellow" />
<path d="M-0.676108029604,0.736802505631 A2.8065239524347656,2.8065239524347656,0,0,1,-0.457201087722,-0.889363348348 A3.834181253926009,3.834181253926009,0,0,0,-0.676108029604,0.736802505631 Z" fill="yellow" />
<path d="M-0.676108029604,0.736802505631 A1.9413739661690967,1.9413739661690967,0,0,1,-0.457201087722,-0.889363348348 A2.268193261310147,2.268193261310147,0,0,0,-0.676108029604,0.736802505631 Z" fill="yellow" />
<path d="M-0.676108029604,0.736802505631 A1.5724359264765133,1.5724359264765133,0,0,1,-0.457201087722,-0.889363348348 A1.7247121282089168,1.7247121282089168,0,0,0,-0.676108029604,0.736802505631 Z" fill="yellow" />
<path d="M-0.676108029604,0.736802505631 A1.3765512917696283,1.3765512917696283,0,0,1,-0.457201087722,-0.889363348348 A1.4608693286400742,1.4608693286400742,0,0,0,-0.676108029604,0.736802505631 Z" fill="yellow" />
<path d="M-0.676108029604,0.736802505631 A1.2597650361156867,1.2597650361156867,0,0,1,-0.457201087722,-0.889363348348 A1.3112757621072564,1.3112757621072564,0,0,0,-0.676108029604,0.736802505631 Z" fill="yellow" />
<path d="M-0.676108029604,0.736802505631 A1.184955062502888,1.184955062502888,0,0,1,-0.457201087722,-0.889363348348 A1.2184778521057444,1.2184778521057444,0,0,0,-0.676108029604,0.736802505631 Z" fill="yellow" />
<path d="M-0.676108029604,0.736802505631 A1.1346466572473826,1.1346466572473826,0,0,1,-0.457201087722,-0.889363348348 A1.157439807543878,1.157439807543878,0,0,0,-0.676108029604,0.736802505631 Z" fill="yellow" />
<path d="M-0.676108029604,0.736802505631 A1.4794224403436949,1.4794224403436949,0,0,0,-0.457201087722,-0.889363348348 A1.393533816048729,1.393533816048729,0,0,1,-0.676108029604,0.736802505631 Z" fill="#aaaa00" />
<path d="M-0.5,-0.866025403784 A1.8110197250171858,1.8110197250171858,0,0,0,1.0,-2.22044604925e-16 A1.660675262603996,1.660675262603996,0,0,1,-0.5,-0.866025403784 Z" fill="black" />
<path d="M-0.5,0.866025403784 A1.8110197250171851,1.8110197250171851,0,0,0,-0.5,-0.866025403784 A1.6606752626039953,1.6606752626039953,0,0,1,-0.5,0.866025403784 Z" fill="black" />
<path d="M1.0,2.22044604925e-16 A1.8110197250171873,1.8110197250171873,0,0,0,-0.5,0.866025403784 A1.6606752626039971,1.6606752626039971,0,0,1,1.0,-0.0 Z" fill="black" />
<path d="M0.417259684035,-0.591363943694 A1.2932698963421483,1.2932698963421483,0,0,0,-0.186434976351,0.47281864822 A0.7773923352948671,0.7773923352948671,0,0,1,0.164174683138,0.565613922525 A6.622494113647142,6.622494113647142,0,0,0,0.604067664325,-0.443905833185 A0.35630482034348326,0.35630482034348326,0,0,1,0.417259684035,-0.591363943694 Z" fill="blue" />
<path d="M-0.0891011729792,0.996022580554 A2.8504385627478444,2.8504385627478444,0,0,1,0.691840899007,-0.722049977814" stroke="red" stroke-width="0.05" fill="none" />
<path d="M-0.0891011729792,0.996022580554 A1.8474141817385115,1.8474141817385115,0,0,1,0.691840899007,-0.722049977814" stroke="green" stroke-width="0.03" fill="none" />
<path d="M-0.0891011729792,0.996022580554 A6.823773007054852,6.823773007054852,0,0,1,0.691840899007,-0.722049977814" stroke="black" stroke-width="0.03" fill="none" />
<circle cx="0" cy="0.5" r="0.02" fill="green" />
<circle cx="0.5" cy="-0.5" r="0.02" fill="green" />
<path d="M-0.939692620786,0.342020143326 A2.34765932825768,2.34765932825768,0,0,0,0.342020143326,-0.939692620786 A1.9766223261582987,1.9766223261582987,0,0,1,-0.939692620786,0.342020143326 Z" fill="black" />
<path d="M-0.302044700385,0.953293763207 A1.0369617588488944,1.0369617588488944,0,0,0,-0.954829155129,-0.297155320523 A0.9575672486053239,0.9575672486053239,0,0,1,-0.302044700385,0.953293763207 Z" fill="red" />
<circle cx="-0.59905570074858" cy="-0.0998426167914301" r="0.031502867878043905" fill="green" />
<path d="M-0.5332087318649237,-0.09937186764024548 A0.06302247397654859,0.06302247397654859,0,0,0,-0.6592536798180209,-0.0993718676402455 A0.06302247397654859,0.06302247397654859,0,0,0,-0.5332087318649237,-0.09937186764024548 L-0.49697844433478316,-0.09859194611233126 A0.09457323233920373,0.09457323233920373,0,1,1,-0.6861249090131907,-0.09859194611233127 A0.09457323233920373,0.09457323233920373,0,1,1,-0.49697844433478316,-0.09859194611233126 Z" fill="green" opacity="0.6" />
<path d="M-0.45889387859671804,-0.09750981414818617 A0.12616500629239832,0.12616500629239832,0,0,0,-0.7112238911815147,-0.09750981414818619 A0.12616500629239832,0.12616500629239832,0,0,0,-0.45889387859671804,-0.09750981414818617 L-0.41900986899653947,-0.09613515719827552 A0.15780107419311304,0.15780107419311304,0,1,1,-0.7346120173827656,-0.09613515719827553 A0.15780107419311304,0.15780107419311304,0,1,1,-0.41900986899653947,-0.09613515719827552 Z" fill="green" opacity="0.6" />
<path d="M-0.3774055091598232,-0.09448031419130712 A0.1894763759880189,0.1894763759880189,0,0,0,-0.756358261135861,-0.09448031419130715 A0.1894763759880189,0.1894763759880189,0,0,0,-0.3774055091598232,-0.09448031419130712 L-0.334184937859089,-0.0925601762384835 A0.22117611957181146,0.22117611957181146,0,1,1,-0.776537177002712,-0.09256017623848353 A0.22117611957181146,0.22117611957181146,0,1,1,-0.334184937859089,-0.0925601762384835 Z" fill="green" opacity="0.6" />
<path d="M-0.28947747364183796,-0.09039204773160035 A0.2528748127477637,0.2528748127477637,0,0,0,-0.7952270991373653,-0.09039204773160038 A0.2528748127477637,0.2528748127477637,0,0,0,-0.28947747364183796,-0.09039204773160035 L-0.2434370154180014,-0.08799546418172037 A0.28453576967232025,0.28453576967232025,0,1,1,-0.8125085547626418,-0.08799546418172041 A0.28453576967232025,0.28453576967232025,0,1,1,-0.2434370154180014,-0.08799546418172037 Z" fill="green" opacity="0.6" />
<path d="M-0.19624065641887734,-0.08539196277425759 A0.31611112022666765,0.31611112022666765,0,0,0,-0.8284628968722126,-0.08539196277425763 A0.31611112022666765,0.31611112022666765,0,0,0,-0.19624065641887734,-0.08539196277425759 L-0.14808649708602906,-0.08260480408732322 A0.3475423274379098,0.3475423274379098,0,1,1,-0.8431711519618487,-0.08260480408732326 A0.3475423274379098,0.3475423274379098,0,1,1,-0.14808649708602906,-0.08260480408732322 Z" fill="green" opacity="0.6" />
<path d="M-0.09919068621339666,-0.07965864653163567 A0.37876119297641686,0.37876119297641686,0,0,0,-0.8567130721662304,-0.07965864653163571 A0.37876119297641686,0.37876119297641686,0,0,0,-0.09919068621339666,-0.07965864653163567 L-0.04978376576681698,-0.07657917853216524 A0.40969130542617394,0.40969130542617394,0,1,1,-0.8691663766191648,-0.0765791785321653 A0.40969130542617394,0.40969130542617394,0,1,1,-0.04978376576681698,-0.07657917853216524 Z" fill="green" opacity="0.6" />
<path d="M-0.0001064392869748465,-0.07339271693365677 A0.4402498623149654,0.4402498623149654,0,0,0,-0.8806061639169056,-0.07339271693365683 A0.4402498623149654,0.4402498623149654,0,0,0,-0.0001064392869748465,-0.07339271693365677 L0.04959507753909631,-0.07012578320351674 A0.47034977676019635,0.47034977676019635,0,1,1,-0.8911044759812964,-0.0701257832035168 A0.47034977676019635,0.47034977676019635,0,1,1,0.04959507753909631,-0.07012578320351674 Z" fill="green" opacity="0.6" />
<path d="M0.0990739365536239,-0.06680467138152525 A0.499901964842775,0.499901964842775,0,0,0,-0.9007299931319261,-0.06680467138152531 A0.499901964842775,0.499901964842775,0,0,0,0.0990739365536239,-0.06680467138152525 L0.14808756318032007,-0.06345502311360106 A0.528817701861926,0.528817701861926,0,1,1,-0.909547840543532,-0.06345502311360113 A0.528817701861926,0.528817701861926,0,1,1,0.14808756318032007,-0.06345502311360106 Z" fill="green" opacity="0.6" />
<path d="M0.1964023831561994,-0.0601014253428953 A0.5570109352135708,0.5570109352135708,0,0,0,-0.9176194872709422,-0.06010142534289537 A0.5570109352135708,0.5570109352135708,0,0,0,0.1964023831561994,-0.0601014253428953 L0.2437981770763984,-0.056767045283677264 A0.5844004487784616,0.5844004487784616,0,1,1,-0.9250027204805249,-0.056767045283677334 A0.5844004487784616,0.5844004487784616,0,1,1,0.2437981770763984,-0.056767045283677264 Z" fill="green" opacity="0.6" />
<path d="M0.2900718959906843,-0.05347331527351514 A0.6109117876317748,0.6109117876317748,0,0,0,-0.9317516792728653,-0.05347331527351522 A0.6109117876317748,0.6109117876317748,0,0,0,0.2900718959906843,-0.05347331527351514 L0.3350408079173441,-0.05023967720522812 A0.6364788711487125,0.6364788711487125,0,1,1,-0.9379169343800808,-0.0502396772052282 A0.6364788711487125,0.6364788711487125,0,1,1,0.3350408079173441,-0.05023967720522812 Z" fill="green" opacity="0.6" />
<path d="M-0.6127404631712217,-0.13347448144637322 A0.1881064255070169,0.1881064255070169,0,0,0,-0.9889533141852556,-0.13347448144637325 A0.1881064255070169,0.1881064255070169,0,0,0,-0.6127404631712217,-0.13347448144637322 L-0.5814540431257503,-0.1308851381594371 A0.2038567858308713,0.2038567858308713,0,1,1,-0.9891676147874929,-0.13088513815943711 A0.2038567858308713,0.2038567858308713,0,1,1,-0.5814540431257503,-0.1308851381594371 Z" fill="blue" opacity="0.7" />
<path d="M0.9972263090446509,0.033513849145920434 A0.7961432141691287,0.7961432141691287,0,0,0,-0.5950601192936065,0.03351384914592034 A0.7961432141691287,0.7961432141691287,0,0,0,0.9972263090446509,0.033513849145920434 L0.9974406096468883,0.030924505858984274 A0.811893574492983,0.811893574492983,0,1,1,-0.6263465393390778,0.030924505858984173 A0.811893574492983,0.811893574492983,0,1,1,0.9974406096468883,0.030924505858984274 Z" fill="blue" opacity="0.7" />
</svg>