<?xml version="1.0" encoding="UTF-8"?>
<svg xmlns="http://www.w3.org/2000/svg" xmlns:xlink="http://www.w3.org/1999/xlink"
     width="400" height="400.0" viewBox="-1.05 -1.05 2.1 2.1">
<defs>
</defs>
<circle cx="0" cy="0" r="1" fill="none" stroke-width="0.006" stroke="black" />
<path d="M-1.0,-3.875372245332187e-15 A0.02454234633001372,0.02454234633001372,0,0,1,-0.9987954562051723,0.049067674327421006 A0.024560428089868063,0.024560428089868063,0,0,0,-0.9999999999999999,-3.8719027983802334e-15 Z" fill="black" />
<path d="M-0.9951847266721967,0.09801714032956393 A0.024560428089867862,0.024560428089867862,0,0,0,-0.9987954562051725,0.04906767432741478 A0.024542346330013582,0.024542346330013582,0,0,1,-0.9951847266721966,0.09801714032956392 Z" fill="black" />
<path d="M-0.9807852804032207,0.19509032201612087 A25.28781596482154,25.28781596482154,0,0,1,0.9891765099647718,-0.1467304744553637 A104.74510463214885,104.74510463214885,0,0,0,-0.9807852804021451,0.19509032201592902 Z" fill="black" />
<path d="M-0.9951847266722957,0.0980171403295742 A104.74510463227338,104.74510463227338,0,0,0,0.989176509964862,-0.14673047445536724 A25.287815964827708,25.287815964827708,0,0,1,-0.995184726672218,0.0980171403295671 Z" fill="black" />
<path d="M-0.9238795325112866,0.38268343236508984 A0.9387788779537497,0.9387788779537497,0,0,1,0.3368898533922192,0.941544065183021 A0.9659821468165418,0.9659821468165418,0,0,0,-0.923879532511287,0.3826834323650897 Z" fill="black" />
<path d="M0.9569403357322086,-0.2902846772544624 A0.9659821468165432,0.9659821468165432,0,0,0,0.33688985339221944,0.9415440651830209 A0.938778877953751,0.938778877953751,0,0,1,0.9569403357322092,-0.2902846772544625 Z" fill="black" />
<path d="M-0.9807852804032302,0.19509032201612797 A1.0341572598283704,1.0341572598283704,0,0,1,0.24298017990326382,0.9700312531945442 A1.0672664160487348,1.0672664160487348,0,0,0,-0.9807852804032305,0.19509032201612797 Z" fill="black" />
<path d="M0.9569403357322089,-0.29028467725446216 A1.067266416048734,1.067266416048734,0,0,0,0.2429801799032647,0.9700312531945433 A1.0341572598283693,1.0341572598283693,0,0,1,0.9569403357322095,-0.29028467725446216 Z" fill="black" />
<path d="M-0.7071067811865478,0.7071067811865472 A0.3835665109422388,0.3835665109422388,0,0,1,-0.0490676743274181,0.9987954562051724 A0.3880312498713329,0.3880312498713329,0,0,0,-0.7071067811865479,0.7071067811865472 Z" fill="black" />
<path d="M0.6343932841636457,0.7730104533627369 A0.388031249871333,0.388031249871333,0,0,0,-0.04906767432741804,0.9987954562051724 A0.38356651094223876,0.38356651094223876,0,0,1,0.6343932841636457,0.7730104533627369 Z" fill="black" />
<path d="M0.8314696123025459,-0.5555702330196022 A2.4956447916161224,2.4956447916161224,0,0,1,-0.9891765099647811,-0.14673047445536191 A2.697596959485292,2.697596959485292,0,0,0,0.8314696123025446,-0.5555702330196017 Z" fill="black" />
<path d="M0.6343932841636466,0.7730104533627373 A2.6975969594852955,2.6975969594852955,0,0,0,-0.9891765099647816,-0.14673047445536147 A2.4956447916161224,2.4956447916161224,0,0,1,0.6343932841636459,0.7730104533627369 Z" fill="black" />
<path d="M-0.9238795325112867,0.38268343236508984 A0.4403910936482009,0.4403910936482009,0,0,1,-0.33688985339222033,0.9415440651830207 A0.44628687441237536,0.44628687441237536,0,0,0,-0.9238795325112867,0.38268343236508984 Z" fill="black" />
<path d="M0.47139673682599786,0.8819212643483549 A0.4462868744123763,0.4462868744123763,0,0,0,-0.3368898533922209,0.9415440651830205 A0.440391093648202,0.440391093648202,0,0,1,0.47139673682599786,0.8819212643483549 Z" fill="black" />
<path d="M0.8314696123025458,-0.5555702330196017 A2.182364840340511,2.182364840340511,0,0,1,-0.9700312531945452,-0.24298017990326315 A2.3352440070104623,2.3352440070104623,0,0,0,0.8314696123025447,-0.5555702330196011 Z" fill="black" />
<path d="M0.4713967368259975,0.8819212643483554 A2.3352440070104543,2.3352440070104543,0,0,0,-0.9700312531945449,-0.2429801799032636 A2.1823648403405036,2.1823648403405036,0,0,1,0.47139673682599703,0.8819212643483553 Z" fill="black" />
<path d="M9.43689570931383e-16,0.9999999999999999 A0.17308546654992554,0.17308546654992554,0,0,1,0.3368898533922183,0.9415440651830214 A0.173988847020236,0.173988847020236,0,0,0,9.71445146547012e-16,1.0 Z" fill="black" />
<path d="M0.6343932841636455,0.773010453362737 A0.17398884702023776,0.17398884702023776,0,0,0,0.3368898533922198,0.9415440651830208 A0.17308546654992718,0.17308546654992718,0,0,1,0.6343932841636455,0.773010453362737 Z" fill="black" />
<path d="M0.9807852804032271,0.19509032201612886 A5.30515752944527,5.30515752944527,0,0,1,-0.8577286100002712,-0.5141027441932211 A6.3092252389358165,6.3092252389358165,0,0,0,0.9807852804032313,0.19509032201612975 Z" fill="black" />
<path d="M0.6343932841636404,0.7730104533627324 A6.309225238935705,6.309225238935705,0,0,0,-0.857728610000263,-0.5141027441932167 A5.305157529445203,5.305157529445203,0,0,1,0.6343932841636453,0.7730104533627391 Z" fill="black" />
<path d="M0.3826834323650899,-0.9238795325112867 A0.6969952263337924,0.6969952263337924,0,0,1,-0.740951125354959,-0.6715589548470186 A0.7118794064782462,0.7118794064782462,0,0,0,0.38268343236509,-0.9238795325112866 Z" fill="black" />
<path d="M-0.8819212643483549,0.4713967368259976 A0.7118794064782461,0.7118794064782461,0,0,0,-0.7409511253549594,-0.6715589548470179 A0.6969952263337924,0.6969952263337924,0,0,1,-0.881921264348355,0.47139673682599764 Z" fill="black" />
<path d="M0.9807852804032302,0.19509032201612841 A1.3904355322169442,1.3904355322169442,0,0,1,-0.14673047445536103,-0.9891765099647809 A1.450954765176794,1.450954765176794,0,0,0,0.9807852804032309,0.19509032201612908 Z" fill="black" />
<path d="M-0.8819212643483552,0.4713967368259976 A1.450954765176797,1.450954765176797,0,0,0,-0.14673047445536125,-0.9891765099647813 A1.390435532216947,1.390435532216947,0,0,1,-0.8819212643483552,0.4713967368259976 Z" fill="black" />
<path d="M-0.707106781186548,0.7071067811865469 A0.22382880764429694,0.22382880764429694,0,0,1,-0.33688985339221994,0.9415440651830208 A0.2253418339894503,0.2253418339894503,0,0,0,-0.7071067811865481,0.707106781186547 Z" fill="black" />
<path d="M0.09801714032956033,0.9951847266721969 A0.22534183398945004,0.22534183398945004,0,0,0,-0.336889853392221,0.9415440651830205 A0.2238288076442968,0.2238288076442968,0,0,1,0.09801714032956035,0.9951847266721969 Z" fill="black" />
<path d="M0.8314696123025476,0.555570233019604 A4.1748228080848335,4.1748228080848335,0,0,1,-0.5141027441932233,-0.8577286100002763 A4.772509417272379,4.772509417272379,0,0,0,0.8314696123025458,0.5555702330196017 Z" fill="black" />
<path d="M0.09801714032955999,0.9951847266721983 A4.772509417272346,4.772509417272346,0,0,0,-0.514102744193222,-0.8577286100002735 A4.17482280808481,4.17482280808481,0,0,1,0.0980171403295591,0.9951847266721968 Z" fill="black" />
<path d="M0.38268343236508934,-0.923879532511287 A0.6273550111942403,0.6273550111942403,0,0,1,-0.6715589548470189,-0.7409511253549583 A0.6393878030179841,0.6393878030179841,0,0,0,0.3826834323650894,-0.923879532511287 Z" fill="black" />
<path d="M-0.9569403357322086,0.29028467725446305 A0.6393878030179837,0.6393878030179837,0,0,0,-0.6715589548470191,-0.7409511253549586 A0.6273550111942398,0.6273550111942398,0,0,1,-0.9569403357322088,0.2902846772544629 Z" fill="black" />
<path d="M0.8314696123025452,0.5555702330196023 A1.5428035618029252,1.5428035618029252,0,0,1,0.14673047445536147,-0.989176509964781 A1.6176703753851482,1.6176703753851482,0,0,0,0.8314696123025458,0.5555702330196024 Z" fill="black" />
<path d="M-0.9569403357322088,0.2902846772544614 A1.617670375385144,1.617670375385144,0,0,0,0.14673047445536147,-0.9891765099647809 A1.542803561802921,1.542803561802921,0,0,1,-0.9569403357322093,0.2902846772544614 Z" fill="black" />
<path d="M1.0,1.6237011735142914e-15 A0.07369119028753313,0.07369119028753313,0,0,1,0.9891765099647807,-0.14673047445536336 A0.07385445071462061,0.07385445071462061,0,0,0,1.0,1.6237011735142914e-15 Z" fill="black" />
<path d="M0.9569403357322084,-0.29028467725446416 A0.0738544507146208,0.0738544507146208,0,0,0,0.9891765099647812,-0.14673047445536008 A0.07369119028753325,0.07369119028753325,0,0,1,0.9569403357322084,-0.29028467725446416 Z" fill="black" />
<path d="M0.831469612302536,-0.5555702330195995 A11.266969744685019,11.266969744685019,0,0,1,-0.903989293123435,0.42755509343027676 A17.01917383681838,17.01917383681838,0,0,0,0.8314696123025485,-0.5555702330196048 Z" fill="black" />
<path d="M0.9569403357322006,-0.2902846772544603 A17.01917383681872,17.01917383681872,0,0,0,-0.9039892931234323,0.42755509343027676 A11.266969744685104,11.266969744685104,0,0,1,0.9569403357322095,-0.2902846772544603 Z" fill="black" />
<path d="M0.3826834323650899,-0.9238795325112867 A0.8516825674627774,0.8516825674627774,0,0,1,-0.8577286100002721,-0.5141027441932218 A0.8740123245737264,0.8740123245737264,0,0,0,0.3826834323650898,-0.9238795325112867 Z" fill="black" />
<path d="M-0.6343932841636467,0.773010453362736 A0.874012324573725,0.874012324573725,0,0,0,-0.8577286100002718,-0.514102744193222 A0.8516825674627764,0.8516825674627764,0,0,1,-0.6343932841636466,0.7730104533627361 Z" fill="black" />
<path d="M0.8314696123025453,-0.5555702330196022 A1.1395910445938506,1.1395910445938506,0,0,1,-0.6715589548470187,-0.7409511253549584 A1.1799270483667281,1.1799270483667281,0,0,0,0.8314696123025453,-0.5555702330196022 Z" fill="black" />
<path d="M-0.6343932841636454,0.7730104533627372 A1.1799270483667255,1.1799270483667255,0,0,0,-0.6715589548470194,-0.7409511253549582 A1.1395910445938484,1.1395910445938484,0,0,1,-0.634393284163645,0.7730104533627369 Z" fill="black" />
<path d="M-0.707106781186547,-0.7071067811865479 A0.3287633508157942,0.3287633508157942,0,0,1,-0.989176509964781,-0.1467304744553617 A0.33203796261925544,0.33203796261925544,0,0,0,-0.707106781186547,-0.7071067811865479 Z" fill="black" />
<path d="M-0.8819212643483552,0.4713967368259974 A0.3320379626192547,0.3320379626192547,0,0,0,-0.989176509964781,-0.1467304744553617 A0.3287633508157934,0.3287633508157934,0,0,1,-0.8819212643483552,0.4713967368259974 Z" fill="black" />
<path d="M0.19509032201612841,0.9807852804032311 A2.8958891007980196,2.8958891007980196,0,0,1,0.42755509343028253,-0.9039892931234426 A3.171388084317455,3.171388084317455,0,0,0,0.19509032201612886,0.980785280403232 Z" fill="black" />
<path d="M-0.881921264348354,0.47139673682599703 A3.1713880843174644,3.1713880843174644,0,0,0,0.42755509343028164,-0.9039892931234426 A2.895889100798026,2.895889100798026,0,0,1,-0.8819212643483556,0.4713967368259975 Z" fill="black" />
<path d="M0.38268343236508934,-0.923879532511287 A0.49964170960772175,0.49964170960772175,0,0,1,-0.5141027441932216,-0.8577286100002723 A0.5072443524819471,0.5072443524819471,0,0,0,0.3826834323650894,-0.923879532511287 Z" fill="black" />
<path d="M-0.9951847266721969,-0.09801714032955999 A0.507244352481949,0.507244352481949,0,0,0,-0.5141027441932211,-0.8577286100002723 A0.4996417096077235,0.4996417096077235,0,0,1,-0.9951847266721968,-0.09801714032955988 Z" fill="black" />
<path d="M0.19509032201612908,0.9807852804032293 A1.9293847032763733,1.9293847032763733,0,0,1,0.6715589548470182,-0.7409511253549592 A2.047912123601095,2.047912123601095,0,0,0,0.19509032201612975,0.9807852804032314 Z" fill="black" />
<path d="M-0.9951847266721965,-0.09801714032955999 A2.0479121236011006,2.0479121236011006,0,0,0,0.671558954847019,-0.7409511253549577 A1.9293847032763791,1.9293847032763791,0,0,1,-0.9951847266721969,-0.09801714032956022 Z" fill="black" />
<path d="M-3.885780586188048e-16,1.0 A0.12312431436988894,0.12312431436988894,0,0,1,0.24298017990326393,0.970031253194544 A0.12358075400561748,0.12358075400561748,0,0,0,-3.7470027081099033e-16,1.0 Z" fill="black" />
<path d="M0.4713967368259982,0.8819212643483547 A0.12358075400561779,0.12358075400561779,0,0,0,0.2429801799032637,0.970031253194544 A0.12312431436988928,0.12312431436988928,0,0,1,0.47139673682599814,0.8819212643483547 Z" fill="black" />
<path d="M0.8314696123025493,0.555570233019604 A7.229443308162691,7.229443308162691,0,0,1,-0.671558954847022,-0.740951125354961 A9.231437860861107,9.231437860861107,0,0,0,0.8314696123025538,0.5555702330196075 Z" fill="black" />
<path d="M0.4713967368259979,0.8819212643483576 A9.23143786086098,9.23143786086098,0,0,0,-0.6715589548470211,-0.7409511253549619 A7.229443308162618,7.229443308162618,0,0,1,0.4713967368259997,0.8819212643483612 Z" fill="black" />
<path d="M0.9238795325112865,-0.38268343236509017 A0.7714642691295074,0.7714642691295074,0,0,1,-0.14673047445536114,-0.9891765099647813 A0.7897405980230741,0.7897405980230741,0,0,0,0.9238795325112865,-0.38268343236509006 Z" fill="black" />
<path d="M-0.9951847266721969,-0.09801714032956099 A0.7897405980230744,0.7897405980230744,0,0,0,-0.14673047445536147,-0.989176509964781 A0.7714642691295079,0.7714642691295079,0,0,1,-0.9951847266721968,-0.09801714032956099 Z" fill="black" />
<path d="M0.8314696123025453,0.5555702330196023 A1.2573575105788553,1.2573575105788553,0,0,1,0.33688985339221866,-0.9415440651830207 A1.3066412708171058,1.3066412708171058,0,0,0,0.8314696123025457,0.5555702330196021 Z" fill="black" />
<path d="M-0.9951847266721967,-0.09801714032956044 A1.3066412708171027,1.3066412708171027,0,0,0,0.3368898533922189,-0.9415440651830211 A1.2573575105788521,1.2573575105788521,0,0,1,-0.995184726672197,-0.09801714032956044 Z" fill="black" />
<path d="M-0.7071067811865481,-0.707106781186547 A0.27562422831368144,0.27562422831368144,0,0,1,-0.9700312531945442,-0.24298017990326315 A0.2779221180541352,0.2779221180541352,0,0,0,-0.7071067811865481,-0.707106781186547 Z" fill="black" />
<path d="M-0.9569403357322087,0.2902846772544627 A0.27792211805413525,0.27792211805413525,0,0,0,-0.9700312531945441,-0.24298017990326337 A0.27562422831368144,0.27562422831368144,0,0,1,-0.9569403357322086,0.2902846772544627 Z" fill="black" />
<path d="M-0.19509032201612753,0.9807852804032307 A3.4281206967092266,3.4281206967092266,0,0,1,0.6715589548470171,-0.7409511253549581 A3.8210632018324744,3.8210632018324744,0,0,0,-0.19509032201612841,0.9807852804032337 Z" fill="black" />
<path d="M-0.9569403357322082,0.2902846772544607 A3.8210632018324615,3.8210632018324615,0,0,0,0.671558954847018,-0.7409511253549579 A3.4281206967092195,3.4281206967092195,0,0,1,-0.9569403357322084,0.2902846772544607 Z" fill="black" />
<path d="M0.9238795325112865,-0.3826834323650903 A0.5617828644462435,0.5617828644462435,0,0,1,0.14673047445536125,-0.989176509964781 A0.5714124336521044,0.5714124336521044,0,0,0,0.9238795325112865,-0.38268343236509017 Z" fill="black" />
<path d="M-0.7730104533627371,-0.6343932841636453 A0.5714124336521044,0.5714124336521044,0,0,0,0.14673047445536136,-0.989176509964781 A0.5617828644462434,0.5617828644462434,0,0,1,-0.7730104533627372,-0.6343932841636453 Z" fill="black" />
<path d="M-0.19509032201612952,0.9807852804032295 A1.7199029566257338,1.7199029566257338,0,0,1,0.9415440651830199,-0.3368898533922202 A1.8134654786983955,1.8134654786983955,0,0,0,-0.19509032201612952,0.9807852804032307 Z" fill="black" />
<path d="M-0.7730104533627358,-0.6343932841636466 A1.8134654786983886,1.8134654786983886,0,0,0,0.9415440651830207,-0.3368898533922211 A1.719902956625727,1.719902956625727,0,0,1,-0.773010453362736,-0.6343932841636468 Z" fill="black" />
</svg>