<?xml version="1.0" encoding="UTF-8"?>
<svg xmlns="http://www.w3.org/2000/svg" xmlns:xlink="http://www.w3.org/1999/xlink"
     width="400" height="400.0" viewBox="-1.05 -1.05 2.1 2.1">
<defs>
</defs>
<circle cx="0" cy="0" r="1" fill="silver" />
<path d="M-0.8944271909999171,0.44721359549995965 A3.432738430321738,3.432738430321738,0,0,1,0.8944271909999195,-0.4472135954999583 A3.432738430321742,3.432738430321742,0,0,1,-0.8944271909999155,0.44721359549995787 Z" fill="black" stroke-width="0.01" stroke="white" />
<path d="M-0.8944271909999159,0.44721359549995804 L0.8944271909999159,-0.4472135954999579" stroke-width="0.01" stroke="white" stroke-dasharray=".02,.02" fill="none" />
<path d="M-0.731387649262639,-0.3020551756435146 A3.432738430321739,3.432738430321739,0,0,0,-0.5530285817874745,-0.16286133942944936 A0.6149186938124421,0.6149186938124421,0,0,0,-0.4621062206160452,-0.34470606177231067 A3.4327384303217436,3.4327384303217436,0,0,0,-0.6804767300724059,-0.4038770140240051 A0.24756466893747692,0.24756466893747692,0,0,1,-0.7313876492626461,-0.3020551756435206 Z" fill="black" stroke-width="0.01" stroke="white" />
<path d="M-0.5,-0.25 L-0.7,-0.35" stroke-width="0.01" stroke="white" stroke-dasharray=".02,.02" fill="none" />
<path d="M0.046597307362259976,-0.7988995975912254 A0.6937671518607746,0.6937671518607746,0,0,0,0.4477161929237989,-0.10013043395640608 A1.0809973059584386,1.0809973059584386,0,0,1,0.5544445763120918,-0.28302921598947756 A1.1644417947885826,1.1644417947885826,0,0,1,0.14863089192682533,-0.8124976720967853 A0.2248518958288666,0.2248518958288666,0,0,1,0.04659730736225999,-0.7988995975912253 Z" fill="black" stroke-width="0.01" stroke="white" />
<path d="M0.4999999999999999,-0.20000000000000007 A0.8317829529909991,0.8317829529909991,0,0,1,0.09999999999999998,-0.8000000000000006" stroke-width="0.01" stroke="white" stroke-dasharray=".02,.02" fill="none" />
<path d="M0.9961931917215354,0.08717295892454358 A1.1644417947885792,1.1644417947885792,0,0,0,0.09572060455770615,0.9954082408053027 A0.6937671518607742,0.6937671518607742,0,0,1,0.9961931917215354,0.08717295892454313 Z" fill="black" stroke-width="0.01" stroke="white" />
<path d="M0.9961931917215355,0.08717295892454313 A0.831782952990999,0.831782952990999,0,0,0,0.09572060455770559,0.9954082408053022" stroke-width="0.01" stroke="white" stroke-dasharray=".02,.02" fill="none" />
<circle cx="0.5" cy="-0.25" r="0.02" fill="white" />
<circle cx="0.7" cy="-0.35" r="0.02" fill="white" />
<circle cx="-0.5" cy="-0.25" r="0.02" fill="white" />
<circle cx="-0.7" cy="-0.35" r="0.02" fill="white" />
<circle cx="0.5" cy="-0.2" r="0.02" fill="white" />
<circle cx="0.1" cy="-0.8" r="0.02" fill="white" />
<circle cx="0.5" cy="0.2" r="0.02" fill="white" />
<circle cx="0.1" cy="0.8" r="0.02" fill="white" />
</svg>