<?xml version="1.0" encoding="UTF-8"?>
<svg xmlns="http://www.w3.org/2000/svg" xmlns:xlink="http://www.w3.org/1999/xlink"
     width="400" height="400.0" viewBox="-1.05 -1.05 2.1 2.1">
<defs>
</defs>
<circle cx="0" cy="0" r="1" fill="#ddd" />
<path d="M-0.0891011729792,0.996022580554 A2.228440236421583,2.228440236421583,0,0,1,0.691840899007,-0.722049977814 A4.009488433953499,4.009488433953499,0,0,0,-0.0891011729792,0.996022580554 Z" fill="white" />
<circle cx="3.0558824418816496e-17" cy="0.4990634759359636" r="0.03749217482858408" fill="green" />
<circle cx="0.4993752605683015" cy="-0.49937526056830145" r="0.025010398445719784" fill="green" />
<circle cx="6.108103836577004e-18" cy="-0.09975290574930999" r="0.04946002565102377" fill="#eee" />
<text x="0" y="-0.1" font-size="0.05" text-anchor="middle" transform="translate(0,0.017499999999999998)">0</text>
<circle cx="1.8327971094607207e-17" cy="-0.2993184828044764" r="0.04547233545914903" fill="#eee" />
<text x="0" y="-0.3" font-size="0.05" text-anchor="middle" transform="translate(0,0.017499999999999998)">1</text>
<circle cx="3.0558824418816496e-17" cy="-0.4990634759359636" r="0.03749217482858408" fill="#eee" />
<text x="0" y="-0.5" font-size="0.05" text-anchor="middle" transform="translate(0,0.017499999999999998)">2</text>
<circle cx="4.280801225585424e-17" cy="-0.6991078943848765" r="0.02550996893129448" fill="#eee" />
<text x="0" y="-0.7" font-size="0.05" text-anchor="middle" transform="translate(0,0.017499999999999998)">3</text>
<circle cx="5.508291976381816e-17" cy="-0.8995723469357702" r="0.009511319608918434" fill="#eee" />
<text x="0" y="-0.9" font-size="0.05" text-anchor="middle" transform="translate(0,0.017499999999999998)">4</text>
<circle cx="0.09975290574930999" cy="-0.0" r="0.04946002565102377" fill="#eee" />
<text x="0.1" y="0" font-size="0.05" text-anchor="middle" transform="translate(0,0.017499999999999998)">5</text>
<circle cx="0.2993184828044764" cy="-0.0" r="0.04547233545914903" fill="#eee" />
<text x="0.3" y="0" font-size="0.05" text-anchor="middle" transform="translate(0,0.017499999999999998)">6</text>
<circle cx="0.4990634759359636" cy="-0.0" r="0.03749217482858408" fill="#eee" />
<text x="0.5" y="0" font-size="0.05" text-anchor="middle" transform="translate(0,0.017499999999999998)">7</text>
<circle cx="0.6991078943848765" cy="-0.0" r="0.02550996893129448" fill="#eee" />
<text x="0.7" y="0" font-size="0.05" text-anchor="middle" transform="translate(0,0.017499999999999998)">8</text>
<circle cx="0.8995723469357702" cy="-0.0" r="0.009511319608918434" fill="#eee" />
<text x="0.9" y="0" font-size="0.05" text-anchor="middle" transform="translate(0,0.017499999999999998)">9</text>
<circle cx="6.108103836577004e-18" cy="0.09975290574930999" r="0.04946002565102377" fill="#eee" />
<text x="0" y="0.1" font-size="0.05" text-anchor="middle" transform="translate(0,0.017499999999999998)">10</text>
<circle cx="1.8327971094607207e-17" cy="0.2993184828044764" r="0.04547233545914903" fill="#eee" />
<text x="0" y="0.3" font-size="0.05" text-anchor="middle" transform="translate(0,0.017499999999999998)">11</text>
<circle cx="3.0558824418816496e-17" cy="0.4990634759359636" r="0.03749217482858408" fill="#eee" />
<text x="0" y="0.5" font-size="0.05" text-anchor="middle" transform="translate(0,0.017499999999999998)">12</text>
<circle cx="4.280801225585424e-17" cy="0.6991078943848765" r="0.02550996893129448" fill="#eee" />
<text x="0" y="0.7" font-size="0.05" text-anchor="middle" transform="translate(0,0.017499999999999998)">13</text>
<circle cx="5.508291976381816e-17" cy="0.8995723469357702" r="0.009511319608918434" fill="#eee" />
<text x="0" y="0.9" font-size="0.05" text-anchor="middle" transform="translate(0,0.017499999999999998)">14</text>
<circle cx="-0.09975290574930999" cy="-1.2216207673154009e-17" r="0.04946002565102377" fill="#eee" />
<text x="-0.1" y="0" font-size="0.05" text-anchor="middle" transform="translate(0,0.017499999999999998)">15</text>
<circle cx="-0.2993184828044764" cy="-3.6655942189214414e-17" r="0.04547233545914903" fill="#eee" />
<text x="-0.3" y="0" font-size="0.05" text-anchor="middle" transform="translate(0,0.017499999999999998)">16</text>
<circle cx="-0.4990634759359636" cy="-6.111764883763299e-17" r="0.03749217482858408" fill="#eee" />
<text x="-0.5" y="0" font-size="0.05" text-anchor="middle" transform="translate(0,0.017499999999999998)">17</text>
<circle cx="-0.6991078943848765" cy="-8.561602451170849e-17" r="0.02550996893129448" fill="#eee" />
<text x="-0.7" y="0" font-size="0.05" text-anchor="middle" transform="translate(0,0.017499999999999998)">18</text>
<circle cx="-0.8995723469357702" cy="-1.1016583952763632e-16" r="0.009511319608918434" fill="#eee" />
<text x="-0.9" y="0" font-size="0.05" text-anchor="middle" transform="translate(0,0.017499999999999998)">19</text>
<circle cx="0.3684161114919054" cy="0.08107280952743944" r="0.04283389098751825" fill="#eee" />
<text x="0.3692061800745871" y="0.08124667021843361" font-size="0.05" text-anchor="middle" transform="translate(0,0.017499999999999998)">0</text>
<circle cx="0.5068362908386321" cy="-0.013772725294528165" r="0.037091597335554505" fill="#eee" />
<text x="0.5077772202709482" y="-0.013798294029101972" font-size="0.05" text-anchor="middle" transform="translate(0,0.017499999999999998)">1</text>
<circle cx="0.6461316125306208" cy="-0.08810885625417571" r="0.02868312778157578" fill="#eee" />
<text x="0.6470588235294117" y="-0.08823529411764719" font-size="0.05" text-anchor="middle" transform="translate(0,0.017499999999999998)">2</text>
<circle cx="0.7832713624408763" cy="-0.14395138675610963" r="0.018244067796516494" fill="#eee" />
<text x="0.7839859216893972" y="-0.14408271007479123" font-size="0.05" text-anchor="middle" transform="translate(0,0.017499999999999998)">3</text>
<circle cx="0.9160001530518725" cy="-0.18356922010331986" r="0.006343184984374972" fill="#eee" />
<text x="0.9162905211325398" y="-0.18362741075092337" font-size="0.05" text-anchor="middle" transform="translate(0,0.017499999999999998)">4</text>
<circle cx="0.2414258625134363" cy="0.0668206358340437" r="0.04681606536112813" fill="#eee" />
<text x="0.2419918462434478" y="0.06697728596389045" font-size="0.05" text-anchor="middle" transform="translate(0,0.017499999999999998)">5</text>
<circle cx="0.11834905064802236" cy="-0.09230566624358297" r="0.048830218835315804" fill="#eee" />
<text x="0.11863846662260404" y="-0.09253139458030406" font-size="0.05" text-anchor="middle" transform="translate(0,0.017499999999999998)">6</text>
<circle cx="-0.009412300370507385" cy="-0.28236901111521817" r="0.04596147749330902" fill="#eee" />
<text x="-0.009433962264151082" y="-0.2830188679245283" font-size="0.05" text-anchor="middle" transform="translate(0,0.017499999999999998)">7</text>
<circle cx="-0.1389521842615945" cy="-0.5107899608370133" r="0.03593415775638992" fill="#eee" />
<text x="-0.13920208152645291" y="-0.5117085862966175" font-size="0.05" text-anchor="middle" transform="translate(0,0.017499999999999998)">8</text>
<circle cx="-0.2650904841642494" cy="-0.7867524766311361" r="0.015497763015595911" fill="#eee" />
<text x="-0.2652958876629892" y="-0.7873620862587761" font-size="0.05" text-anchor="middle" transform="translate(0,0.017499999999999998)">9</text>
<circle cx="0.23469628251393268" cy="0.19791971192861546" r="0.045238904140718655" fill="#eee" />
<text x="0.23522791221159256" y="0.19836803601575687" font-size="0.05" text-anchor="middle" transform="translate(0,0.017499999999999998)">10</text>
<circle cx="0.11021394752523324" cy="0.33741970565880236" r="0.04364990433400559" fill="#eee" />
<text x="0.11045481393975191" y="0.33815711754282335" font-size="0.05" text-anchor="middle" transform="translate(0,0.017499999999999998)">11</text>
<circle cx="3.0558824418816496e-17" cy="0.4990634759359636" r="0.03749217482858408" fill="#eee" />
<text x="3.5703433588782627e-17" y="0.5" font-size="0.05" text-anchor="middle" transform="translate(0,0.017499999999999998)">12</text>
<circle cx="-0.09078940806695057" cy="0.68092056050213" r="0.02635216346914121" fill="#eee" />
<text x="-0.09090909090909081" y="0.6818181818181819" font-size="0.05" text-anchor="middle" transform="translate(0,0.017499999999999998)">13</text>
<circle cx="-0.15737048041730456" cy="0.8795189039851423" r="0.01005561085846679" fill="#eee" />
<text x="-0.15744957709824325" y="0.879960962914769" font-size="0.05" text-anchor="middle" transform="translate(0,0.017499999999999998)">14</text>
<circle cx="0.3583157962513105" cy="0.20092474556148252" r="0.04150983119550669" fill="#eee" />
<text x="0.35906040268456374" y="0.2013422818791946" font-size="0.05" text-anchor="middle" transform="translate(0,0.017499999999999998)">15</text>
<circle cx="0.4683695595415314" cy="0.3146965652633143" r="0.03402434523235276" fill="#eee" />
<text x="0.46916705016106763" y="0.31523239760699484" font-size="0.05" text-anchor="middle" transform="translate(0,0.017499999999999998)">16</text>
<circle cx="0.5714463599794565" cy="0.4118532324176263" r="0.025139156113768824" fill="#eee" />
<text x="0.5721649484536083" y="0.4123711340206185" font-size="0.05" text-anchor="middle" transform="translate(0,0.017499999999999998)">17</text>
<circle cx="0.6676997609907112" cy="0.4953482528050007" r="0.015400914099913232" fill="#eee" />
<text x="0.6682138878574081" y="0.49572966951355346" font-size="0.05" text-anchor="middle" transform="translate(0,0.017499999999999998)">18</text>
<circle cx="0.7574453676464438" cy="0.5675383158157791" r="0.005192888959293485" fill="#eee" />
<text x="0.7576419213973801" y="0.5676855895196506" font-size="0.05" text-anchor="middle" transform="translate(0,0.017499999999999998)">19</text>
</svg>