<?xml version="1.0" encoding="UTF-8"?>
<svg xmlns="http://www.w3.org/2000/svg" xmlns:xlink="http://www.w3.org/1999/xlink"
     width="400" height="400.0" viewBox="-1.05 -1.05 2.1 2.1">
<defs>
</defs>
<circle cx="0" cy="0" r="1" fill="silver" />
<path d="M0.02250738153467502,-0.9997466768019048 A1.4145419007499003,1.4145419007499003,0,0,1,-0.8674694658634023,0.4974904278422482 A2.4439565158923635,2.4439565158923635,0,0,0,0.02250738153467502,-0.9997466768019043 Z" fill="blue" />
<path d="M0.0010028937013299988,-0.9999994971019857 A2.971475107093213,2.971475107093213,0,0,1,-0.36726758277173577,0.9301153276045966 A25.79771445513614,25.79771445513614,0,0,0,0.001002893701326002,-0.9999994971019817 Z" fill="blue" />
<path d="M-0.370250403676156,0.9289319881332805 A32.51695137778728,32.51695137778728,0,0,0,0.01987080388695972,-0.9998025560841972 A3.043924521136873,3.043924521136873,0,0,1,-0.3702504036761991,0.9289319881334754 Z" fill="blue" />
<path d="M0.016560971766885757,-0.8892178366591126 A1.7719577391849721,1.7719577391849721,0,0,1,-0.006979602713941491,-0.7152925454132826 A5.26972673670861,5.26972673670861,0,0,1,-0.1852556495166997,0.3833832156515635 A5.504699889429163,5.504699889429163,0,0,0,0.01656097176688487,-0.8892178366591128 Z" stroke-width="0.05" stroke="red" fill="none" />
<path d="M0.020547655490996464,-0.9749527243286993 A1.9467203292083626,1.9467203292083626,0,0,1,-0.019065251165565122,-0.7169623016269717 A7.164974994466782,7.164974994466782,0,0,1,-0.357221700238628,0.9001910019364685 A4.321624289325377,4.321624289325377,0,0,0,0.02054765549099713,-0.9749527243286993 L-0.021927072186299412,-0.5744497068920327 A7.605850880468867,7.605850880468867,0,0,0,0.00588465536755578,-0.8279139236912896 A4.1756342196840865,4.1756342196840865,0,0,1,0.00521393412211868,-0.7140474233964653 A1.6297229666455657,1.6297229666455657,0,0,1,-0.021927072186299412,-0.5744497068920327 Z" fill="green" />
<path d="M0.016560971766885757,-0.8892178366591126 A1.7719577391849721,1.7719577391849721,0,0,1,-0.006979602713941491,-0.7152925454132826 A5.26972673670861,5.26972673670861,0,0,1,-0.1852556495166997,0.3833832156515635 A5.504699889429163,5.504699889429163,0,0,0,0.01656097176688487,-0.8892178366591128 Z" fill="black" opacity="0.5" />
<circle cx="0.016560971766884425" cy="-0.8892178366590981" r="0.05" stroke-width="0.01" stroke="#ccccff" fill="none" opacity="0.6" />
<circle cx="-0.006979602713941047" cy="-0.7152925454132852" r="0.05" stroke-width="0.01" stroke="#ccccff" fill="none" opacity="0.6" />
<circle cx="-0.18525564951667595" cy="0.3833832156514769" r="0.05" stroke-width="0.01" stroke="#ccccff" fill="none" opacity="0.6" />
</svg>