<?xml version="1.0" encoding="UTF-8"?>
<svg xmlns="http://www.w3.org/2000/svg" xmlns:xlink="http://www.w3.org/1999/xlink"
     width="400" height="400.0" viewBox="-1.05 -1.05 2.1 2.1">
<defs>
</defs>
<circle cx="0" cy="0" r="1" fill="silver" />
<path d="M4.4408920985e-16,-0.300742618746 A1.7461149273522332,1.7461149273522332,0,0,1,-0.235130047456,-0.187509955773 A1.7461149273522347,1.7461149273522347,0,0,1,-0.293202373399,0.0669215284039 A1.7461149273522343,1.7461149273522343,0,0,1,-0.130487331934,0.270959736742 A1.7461149273522332,1.7461149273522332,0,0,1,0.130487331934,0.270959736742 A1.7461149273522354,1.7461149273522354,0,0,1,0.293202373399,0.0669215284039 A1.7461149273522345,1.7461149273522345,0,0,1,0.235130047456,-0.187509955773 A1.7461149273522327,1.7461149273522327,0,0,1,4.4408920985e-16,-0.300742618746 L4.4408920985e-16,-0.220175230979 A1.3982063765644848,1.3982063765644848,0,0,0,0.172139927239,-0.137277011137 A1.3982063765644852,1.3982063765644852,0,0,0,0.214654978252,0.0489935980315 A1.3982063765644859,1.3982063765644859,0,0,0,0.0955304524782,0.198371028595 A1.3982063765644852,1.3982063765644852,0,0,0,-0.0955304524782,0.198371028595 A1.3982063765644854,1.3982063765644854,0,0,0,-0.214654978252,0.0489935980315 A1.398206376564486,1.398206376564486,0,0,0,-0.172139927239,-0.137277011137 A1.3982063765644852,1.3982063765644852,0,0,0,2.22044604925e-16,-0.220175230979 Z" fill="green" />
<path d="M2.22044604925e-16,-0.300742618746 A1.7461149273522334,1.7461149273522334,0,0,1,-0.235130047456,-0.187509955773 A1.7461149273522343,1.7461149273522343,0,0,1,-0.293202373399,0.0669215284039 A1.7461149273522338,1.7461149273522338,0,0,1,-0.130487331934,0.270959736742 A1.7461149273522336,1.7461149273522336,0,0,1,0.130487331934,0.270959736742 A1.7461149273522343,1.7461149273522343,0,0,1,0.293202373399,0.0669215284039 A1.7461149273522332,1.7461149273522332,0,0,1,0.235130047456,-0.187509955773 A1.7461149273522338,1.7461149273522338,0,0,1,2.22044604925e-16,-0.300742618746 Z" fill="red" opacity="0.2" />
<path d="M-0.235130047456,-0.187509955773 A1.7461149273522352,1.7461149273522352,0,0,0,4.4408920985e-16,-0.300742618746 L3.88578058619e-16,-0.532382394511 A0.7770942488589616,0.7770942488589616,0,0,1,-0.146484604414,-0.641790985726 A0.4312547728026082,0.4312547728026082,0,0,1,-0.301110662376,-0.625262733161 A0.4312547728026082,0.4312547728026082,0,0,1,-0.410440740823,-0.514676409953 A0.7770942488589616,0.7770942488589616,0,0,1,-0.416233316741,-0.331934993667 L-0.235130047456,-0.187509955773 L-0.225287773677,-0.264334681544 A6.716591827020171,6.716591827020171,0,0,0,-0.358365478775,-0.35740962924 A0.7035378117391622,0.7035378117391622,0,0,0,-0.363231206078,-0.494112687813 A0.4095246208682101,0.4095246208682101,0,0,0,-0.280468782528,-0.58239942799 A0.4095246208682102,0.4095246208682102,0,0,0,-0.159841902513,-0.592059814147 A0.7035378117391622,0.7035378117391622,0,0,0,-0.0559968789226,-0.503022672453 A6.716591827020166,6.716591827020166,0,0,0,-0.0662005465678,-0.340947052296 A2.395600135684306,2.395600135684306,0,0,1,-0.225287773677,-0.264334681544 Z" fill="green" />
<path d="M-0.235130047456,-0.187509955773 A1.746114927352234,1.746114927352234,0,0,0,2.22044604925e-16,-0.300742618746 L-0.0,-0.5323823945112032 A0.7770942488589616,0.7770942488589616,0,0,1,-0.146484604414,-0.641790985726 A0.43125477280260816,0.43125477280260816,0,0,1,-0.301110662376,-0.625262733161 A0.4312547728026084,0.4312547728026084,0,0,1,-0.410440740823,-0.514676409953 A0.7770942488589612,0.7770942488589612,0,0,1,-0.416233316741,-0.331934993667 L-0.23513004745579896,-0.18750995577265656 Z" fill="red" opacity="0.2" />
<path d="M-0.293202373399,0.0669215284039 A1.7461149273522332,1.7461149273522332,0,0,0,-0.235130047456,-0.187509955773 L-0.416233316741,-0.331934993667 A0.7770942488589624,0.7770942488589624,0,0,1,-0.593104054787,-0.285623859097 A0.43125477280260843,0.43125477280260843,0,0,1,-0.676589516822,-0.154427142055 A0.4312547728026082,0.4312547728026082,0,0,1,-0.658295836756,-4.4408920985e-16 A0.7770942488589628,0.7770942488589628,0,0,1,-0.519034456363,0.118466227649 L-0.293202373399,0.0669215284039 L-0.34712980531,0.0113270958558 A6.71659182702012,6.71659182702012,0,0,0,-0.502871321631,0.0573401546188 A0.7035378117391631,0.7035378117391631,0,0,0,-0.612783807926,-0.0240886294939 A0.40952462086821007,0.40952462086821007,0,0,0,-0.63020763382,-0.14384077993 A0.4095246208682103,0.4095246208682103,0,0,0,-0.562550798331,-0.244173824609 A0.7035378117391625,0.7035378117391625,0,0,0,-0.428192444663,-0.269849383517 A6.716591827020169,6.716591827020169,0,0,0,-0.307838505002,-0.160819338617 A2.3956001356842997,2.3956001356842997,0,0,1,-0.34712980531,0.0113270958558 Z" fill="green" />
<path d="M-0.293202373399,0.0669215284039 A1.7461149273522338,1.7461149273522338,0,0,0,-0.235130047456,-0.187509955773 L-0.4162333167405734,-0.33193499366686813 A0.7770942488589618,0.7770942488589618,0,0,1,-0.593104054787,-0.285623859097 A0.43125477280260804,0.43125477280260804,0,0,1,-0.676589516822,-0.154427142055 A0.4312547728026084,0.4312547728026084,0,0,1,-0.658295836756,-6.93889390391e-17 A0.7770942488589625,0.7770942488589625,0,0,1,-0.519034456363,0.118466227649 L-0.2932023733985015,0.06692152840391202 Z" fill="red" opacity="0.2" />
<path d="M-0.130487331934,0.270959736742 A1.7461149273522336,1.7461149273522336,0,0,0,-0.293202373399,0.0669215284039 L-0.519034456363,0.118466227649 A0.7770942488589614,0.7770942488589614,0,0,1,-0.593104054787,0.285623859097 A0.43125477280260827,0.43125477280260827,0,0,1,-0.542582665189,0.432695236757 A0.4312547728026084,0.4312547728026084,0,0,1,-0.410440740823,0.514676409953 A0.7770942488589616,0.7770942488589616,0,0,1,-0.230992063971,0.479659963274 L-0.130487331934,0.270959736742 L-0.207576013387,0.278459339045 A6.7165918270201415,6.7165918270201415,0,0,0,-0.268704802594,0.428911632524 A0.703537811739162,0.703537811739162,0,0,0,-0.400897703894,0.464074658153 A0.40952462086821023,0.40952462086821023,0,0,0,-0.505387282952,0.403032909234 A0.4095246208682101,0.4095246208682101,0,0,0,-0.541647469061,0.287580035098 A0.7035378117391619,0.7035378117391619,0,0,0,-0.477950366038,0.166525995132 A6.716591827020166,6.716591827020166,0,0,0,-0.317667790409,0.140408617157 A2.395600135684302,2.395600135684302,0,0,1,-0.207576013387,0.278459339045 Z" fill="green" />
<path d="M-0.130487331934,0.270959736742 A1.7461149273522325,1.7461149273522325,0,0,0,-0.293202373399,0.0669215284039 L-0.5190344563631673,0.11846622764853205 A0.7770942488589614,0.7770942488589614,0,0,1,-0.593104054787,0.285623859097 A0.43125477280260816,0.43125477280260816,0,0,1,-0.542582665189,0.432695236757 A0.43125477280260827,0.43125477280260827,0,0,1,-0.410440740823,0.514676409953 A0.7770942488589616,0.7770942488589616,0,0,1,-0.230992063971,0.479659963274 L-0.1304873319336853,0.27095973674193397 Z" fill="red" opacity="0.2" />
<path d="M0.130487331934,0.270959736742 A1.7461149273522352,1.7461149273522352,0,0,0,-0.130487331934,0.270959736742 L-0.230992063971,0.479659963274 A0.7770942488589624,0.7770942488589624,0,0,1,-0.146484604414,0.641790985726 A0.4312547728026085,0.4312547728026085,0,0,1,-2.22044604925e-16,0.693989276918 A0.4312547728026089,0.4312547728026089,0,0,1,0.146484604414,0.641790985726 A0.7770942488589623,0.7770942488589623,0,0,1,0.230992063971,0.479659963274 L0.130487331934,0.270959736742 L0.0882867503955,0.335906020398 A6.716591827020161,6.716591827020161,0,0,0,0.167801913376,0.477503902935 A0.7035378117391627,0.7035378117391627,0,0,0,0.112872547993,0.602780262813 A0.4095246208682108,0.4095246208682108,0,0,0,-1.94289029309e-16,0.646414597372 A0.40952462086821034,0.40952462086821034,0,0,0,-0.112872547993,0.602780262813 A0.7035378117391625,0.7035378117391625,0,0,0,-0.167801913376,0.477503902935 A6.716591827020154,6.716591827020154,0,0,0,-0.0882867503955,0.335906020398 A2.3956001356843055,2.3956001356843055,0,0,1,0.0882867503955,0.335906020398 Z" fill="green" />
<path d="M0.130487331934,0.270959736742 A1.7461149273522343,1.7461149273522343,0,0,0,-0.130487331934,0.270959736742 L-0.2309920639708797,0.4796599632739378 A0.777094248858962,0.777094248858962,0,0,1,-0.146484604414,0.641790985726 A0.43125477280260816,0.43125477280260816,0,0,1,-2.77555756156e-17,0.693989276918 A0.43125477280260854,0.43125477280260854,0,0,1,0.146484604414,0.641790985726 A0.7770942488589623,0.7770942488589623,0,0,1,0.230992063971,0.479659963274 L0.13048733193368514,0.2709597367419339 Z" fill="red" opacity="0.2" />
<path d="M0.293202373399,0.0669215284039 A1.7461149273522354,1.7461149273522354,0,0,0,0.130487331934,0.270959736742 L0.230992063971,0.479659963274 A0.7770942488589627,0.7770942488589627,0,0,1,0.410440740823,0.514676409953 A0.4312547728026081,0.4312547728026081,0,0,1,0.542582665189,0.432695236757 A0.43125477280260854,0.43125477280260854,0,0,1,0.593104054787,0.285623859097 A0.7770942488589616,0.7770942488589616,0,0,1,0.519034456363,0.118466227649 L0.293202373399,0.0669215284039 L0.317667790409,0.140408617157 A6.716591827020102,6.716591827020102,0,0,0,0.477950366038,0.166525995132 A0.7035378117391622,0.7035378117391622,0,0,0,0.541647469061,0.287580035098 A0.4095246208682104,0.4095246208682104,0,0,0,0.505387282952,0.403032909234 A0.40952462086821007,0.40952462086821007,0,0,0,0.400897703894,0.464074658153 A0.703537811739163,0.703537811739163,0,0,0,0.268704802594,0.428911632524 A6.7165918270201725,6.7165918270201725,0,0,0,0.207576013387,0.278459339045 A2.3956001356843055,2.3956001356843055,0,0,1,0.317667790409,0.140408617157 Z" fill="green" />
<path d="M0.293202373399,0.0669215284039 A1.7461149273522343,1.7461149273522343,0,0,0,0.130487331934,0.270959736742 L0.23099206397088004,0.47965996327393745 A0.7770942488589634,0.7770942488589634,0,0,1,0.410440740823,0.514676409953 A0.43125477280260804,0.43125477280260804,0,0,1,0.542582665189,0.432695236757 A0.4312547728026082,0.4312547728026082,0,0,1,0.593104054787,0.285623859097 A0.777094248858962,0.777094248858962,0,0,1,0.519034456363,0.118466227649 L0.2932023733985015,0.06692152840391184 Z" fill="red" opacity="0.2" />
<path d="M0.235130047456,-0.187509955773 A1.746114927352234,1.746114927352234,0,0,0,0.293202373399,0.0669215284039 L0.519034456363,0.118466227649 A0.7770942488589607,0.7770942488589607,0,0,1,0.658295836756,-3.33066907388e-16 A0.4312547728026078,0.4312547728026078,0,0,1,0.676589516822,-0.154427142055 A0.43125477280260816,0.43125477280260816,0,0,1,0.593104054787,-0.285623859097 A0.7770942488589618,0.7770942488589618,0,0,1,0.416233316741,-0.331934993667 L0.235130047456,-0.187509955773 L0.307838505002,-0.160819338617 A6.716591827020162,6.716591827020162,0,0,0,0.428192444663,-0.269849383517 A0.7035378117391621,0.7035378117391621,0,0,0,0.562550798331,-0.244173824609 A0.40952462086820995,0.40952462086820995,0,0,0,0.63020763382,-0.14384077993 A0.40952462086820973,0.40952462086820973,0,0,0,0.612783807926,-0.0240886294939 A0.7035378117391613,0.7035378117391613,0,0,0,0.502871321631,0.0573401546188 A6.716591827020157,6.716591827020157,0,0,0,0.34712980531,0.0113270958558 A2.3956001356843024,2.3956001356843024,0,0,1,0.307838505002,-0.160819338617 Z" fill="green" />
<path d="M0.235130047456,-0.187509955773 A1.7461149273522325,1.7461149273522325,0,0,0,0.293202373399,0.0669215284039 L0.5190344563631675,0.11846622764853179 A0.7770942488589607,0.7770942488589607,0,0,1,0.658295836756,-1.11022302463e-16 A0.43125477280260793,0.43125477280260793,0,0,1,0.676589516822,-0.154427142055 A0.4312547728026081,0.4312547728026081,0,0,1,0.593104054787,-0.285623859097 A0.7770942488589616,0.7770942488589616,0,0,1,0.416233316741,-0.331934993667 L0.23513004745579913,-0.18750995577265644 Z" fill="red" opacity="0.2" />
<path d="M3.33066907388e-16,-0.300742618746 A1.746114927352235,1.746114927352235,0,0,0,0.235130047456,-0.187509955773 L0.416233316741,-0.331934993667 A0.7770942488589622,0.7770942488589622,0,0,1,0.410440740823,-0.514676409953 A0.43125477280260816,0.43125477280260816,0,0,1,0.301110662376,-0.625262733161 A0.4312547728026089,0.4312547728026089,0,0,1,0.146484604414,-0.641790985726 A0.7770942488589618,0.7770942488589618,0,0,1,3.33066907388e-16,-0.532382394511 L2.22044604925e-16,-0.300742618746 L0.0662005465678,-0.340947052296 A6.716591827020155,6.716591827020155,0,0,0,0.0559968789226,-0.503022672453 A0.7035378117391623,0.7035378117391623,0,0,0,0.159841902513,-0.592059814147 A0.4095246208682107,0.4095246208682107,0,0,0,0.280468782528,-0.58239942799 A0.40952462086821007,0.40952462086821007,0,0,0,0.363231206078,-0.494112687813 A0.7035378117391625,0.7035378117391625,0,0,0,0.358365478775,-0.35740962924 A6.716591827020161,6.716591827020161,0,0,0,0.225287773677,-0.264334681544 A2.3956001356843,2.3956001356843,0,0,1,0.0662005465678,-0.340947052296 Z" fill="green" />
<path d="M3.33066907388e-16,-0.300742618746 A1.7461149273522345,1.7461149273522345,0,0,0,0.235130047456,-0.187509955773 L0.41623331674057334,-0.3319349936668681 A0.7770942488589623,0.7770942488589623,0,0,1,0.410440740823,-0.514676409953 A0.4312547728026082,0.4312547728026082,0,0,1,0.301110662376,-0.625262733161 A0.43125477280260865,0.43125477280260865,0,0,1,0.146484604414,-0.641790985726 A0.7770942488589618,0.7770942488589618,0,0,1,2.22044604925e-16,-0.532382394511 L-0.0,-0.300742618746379 Z" fill="red" opacity="0.2" />
<path d="M0.06359307425272678,-0.29940604077298677 A0.06359307425272677,0.06359307425272677,0,0,0,-0.06359307425272676,-0.29940604077298677 A0.06359307425272677,0.06359307425272677,0,0,0,0.06359307425272678,-0.29940604077298677 L0.07265135184388129,-0.2989983895572606 A0.07265135184388127,0.07265135184388127,0,1,1,-0.07265135184388126,-0.2989983895572606 A0.07265135184388127,0.07265135184388127,0,1,1,0.07265135184388129,-0.2989983895572606 Z" fill="white" opacity="0.6" />
<path d="M-0.1704919944647008,-0.18667661303685743 A0.06359307425272677,0.06359307425272677,0,0,0,-0.2976781429701544,-0.18667661303685743 A0.06359307425272677,0.06359307425272677,0,0,0,-0.1704919944647008,-0.18667661303685743 L-0.16111500231922524,-0.18642244666113686 A0.07265135184388127,0.07265135184388127,0,1,1,-0.3064177060069878,-0.18642244666113686 A0.07265135184388127,0.07265135184388127,0,1,1,-0.16111500231922524,-0.18642244666113686 Z" fill="white" opacity="0.6" />
<path d="M-0.22830623197270722,0.0666241118249674 A0.06359307425272677,0.06359307425272677,0,0,0,-0.35549238047816073,0.06662411182496739 A0.06359307425272677,0.06359307425272677,0,0,0,-0.22830623197270722,0.0666241118249674 L-0.21885052383290637,0.06653340089571558 A0.07265135184388127,0.07265135184388127,0,1,1,-0.3641532275206689,0.06653340089571556 A0.07265135184388127,0.07265135184388127,0,1,1,-0.21885052383290637,0.06653340089571558 Z" fill="white" opacity="0.6" />
<path d="M-0.06631433823224091,0.2697555215983834 A0.06359307425272677,0.06359307425272677,0,0,0,-0.19350048673769443,0.2697555215983834 A0.06359307425272677,0.06359307425272677,0,0,0,-0.06631433823224091,0.2697555215983834 L-0.05707918740735132,0.2693882405440516 A0.07265135184388127,0.07265135184388127,0,1,1,-0.20238189109511387,0.2693882405440516 A0.07265135184388127,0.07265135184388127,0,1,1,-0.05707918740735132,0.2693882405440516 Z" fill="white" opacity="0.6" />
<path d="M0.19350048673769427,0.26975552159838345 A0.06359307425272677,0.06359307425272677,0,0,0,0.06631433823224074,0.26975552159838345 A0.06359307425272677,0.06359307425272677,0,0,0,0.19350048673769427,0.26975552159838345 L0.2023818910951137,0.26938824054405164 A0.07265135184388127,0.07265135184388127,0,1,1,0.057079187407351156,0.26938824054405164 A0.07265135184388127,0.07265135184388127,0,1,1,0.2023818910951137,0.26938824054405164 Z" fill="white" opacity="0.6" />
<path d="M0.35549238047816073,0.06662411182496718 A0.06359307425272677,0.06359307425272677,0,0,0,0.22830623197270722,0.06662411182496716 A0.06359307425272677,0.06359307425272677,0,0,0,0.35549238047816073,0.06662411182496718 L0.364153227520669,0.06653340089571536 A0.07265135184388127,0.07265135184388127,0,1,1,0.21885052383290643,0.06653340089571534 A0.07265135184388127,0.07265135184388127,0,1,1,0.364153227520669,0.06653340089571536 Z" fill="white" opacity="0.6" />
<path d="M0.2976781429701544,-0.18667661303685734 A0.06359307425272677,0.06359307425272677,0,0,0,0.17049199446470087,-0.18667661303685734 A0.06359307425272677,0.06359307425272677,0,0,0,0.2976781429701544,-0.18667661303685734 L0.3064177060069878,-0.18642244666113675 A0.07265135184388127,0.07265135184388127,0,1,1,0.16111500231922526,-0.18642244666113675 A0.07265135184388127,0.07265135184388127,0,1,1,0.3064177060069878,-0.18642244666113675 Z" fill="white" opacity="0.6" />
<path d="M-0.1704919944647008,-0.18667661303685743 A0.06359307425272677,0.06359307425272677,0,0,0,-0.2976781429701544,-0.18667661303685743 A0.06359307425272677,0.06359307425272677,0,0,0,-0.1704919944647008,-0.18667661303685743 L-0.16111500231922524,-0.18642244666113686 A0.07265135184388127,0.07265135184388127,0,1,1,-0.3064177060069878,-0.18642244666113686 A0.07265135184388127,0.07265135184388127,0,1,1,-0.16111500231922524,-0.18642244666113686 Z" fill="white" opacity="0.6" />
<path d="M0.06359307425272678,-0.29940604077298677 A0.06359307425272677,0.06359307425272677,0,0,0,-0.06359307425272676,-0.29940604077298677 A0.06359307425272677,0.06359307425272677,0,0,0,0.06359307425272678,-0.29940604077298677 L0.07265135184388129,-0.2989983895572606 A0.07265135184388127,0.07265135184388127,0,1,1,-0.07265135184388126,-0.2989983895572606 A0.07265135184388127,0.07265135184388127,0,1,1,0.07265135184388129,-0.2989983895572606 Z" fill="white" opacity="0.6" />
<path d="M0.05014748010305626,-0.5305166064824285 A0.050147480103056224,0.050147480103056224,0,0,0,-0.05014748010305619,-0.5305166064824285 A0.050147480103056224,0.050147480103056224,0,0,0,0.05014748010305626,-0.5305166064824285 L0.057307047382923006,-0.5299468470815338 A0.05730704738292297,0.05730704738292297,0,1,1,-0.057307047382922936,-0.5299468470815338 A0.05730704738292297,0.05730704738292297,0,1,1,0.057307047382923006,-0.5299468470815338 Z" fill="white" opacity="0.6" />
<path d="M-0.10639375046236388,-0.6400110469567324 A0.03968459454311807,0.03968459454311807,0,0,0,-0.18576293954860001,-0.6400110469567324 A0.03968459454311807,0.03968459454311807,0,0,0,-0.10639375046236388,-0.6400110469567324 L-0.10059362846384257,-0.6394669827621661 A0.045360537439580295,0.045360537439580295,0,1,1,-0.19131470334300316,-0.6394669827621661 A0.045360537439580295,0.045360537439580295,0,1,1,-0.10059362846384257,-0.6394669827621661 Z" fill="white" opacity="0.6" />
<path d="M-0.2640337316068215,-0.6236759717641901 A0.036312786754933324,0.036312786754933324,0,0,0,-0.3366593051166881,-0.6236759717641901 A0.036312786754933324,0.036312786754933324,0,0,0,-0.2640337316068215,-0.6236759717641901 L-0.2586034041460524,-0.6231908053951235 A0.04150947040646097,0.04150947040646097,0,1,1,-0.3416223449589743,-0.6231908053951235 A0.04150947040646097,0.04150947040646097,0,1,1,-0.2586034041460524,-0.6231908053951235 Z" fill="white" opacity="0.6" />
<path d="M-0.36961783271166004,-0.5132490098865661 A0.03968459454311807,0.03968459454311807,0,0,0,-0.4489870217978962,-0.5132490098865661 A0.03968459454311807,0.03968459454311807,0,0,0,-0.36961783271166004,-0.5132490098865661 L-0.36359394770314013,-0.5128127042782431 A0.045360537439580295,0.045360537439580295,0,1,1,-0.4543150225823007,-0.5128127042782431 A0.045360537439580295,0.045360537439580295,0,1,1,-0.36359394770314013,-0.5128127042782431 Z" fill="white" opacity="0.6" />
<path d="M-0.3646271048170091,-0.3307716938584973 A0.050147480103056224,0.050147480103056224,0,0,0,-0.4649220650231216,-0.3307716938584973 A0.050147480103056224,0.050147480103056224,0,0,0,-0.3646271048170091,-0.3307716938584973 L-0.35702208170009075,-0.3304164546825263 A0.05730704738292297,0.05730704738292297,0,1,1,-0.4716361764659367,-0.3304164546825263 A0.05730704738292297,0.05730704738292297,0,1,1,-0.35702208170009075,-0.3304164546825263 Z" fill="white" opacity="0.6" />
<path d="M-0.22830623197270727,0.06662411182496727 A0.06359307425272677,0.06359307425272677,0,0,0,-0.3554923804781608,0.06662411182496726 A0.06359307425272677,0.06359307425272677,0,0,0,-0.22830623197270727,0.06662411182496727 L-0.21885052383290649,0.06653340089571547 A0.07265135184388127,0.07265135184388127,0,1,1,-0.36415322752066903,0.06653340089571545 A0.07265135184388127,0.07265135184388127,0,1,1,-0.21885052383290649,0.06653340089571547 Z" fill="white" opacity="0.6" />
<path d="M-0.1704919944647006,-0.1866766130368573 A0.0635930742527268,0.0635930742527268,0,0,0,-0.2976781429701542,-0.1866766130368573 A0.0635930742527268,0.0635930742527268,0,0,0,-0.1704919944647006,-0.1866766130368573 L-0.1611150023192251,-0.18642244666113675 A0.07265135184388129,0.07265135184388129,0,1,1,-0.30641770600698764,-0.18642244666113675 A0.07265135184388129,0.07265135184388129,0,1,1,-0.1611150023192251,-0.18642244666113675 Z" fill="white" opacity="0.6" />
<path d="M-0.3646271048170092,-0.3307716938584971 A0.050147480103056224,0.050147480103056224,0,0,0,-0.4649220650231216,-0.3307716938584971 A0.050147480103056224,0.050147480103056224,0,0,0,-0.3646271048170092,-0.3307716938584971 L-0.35702208170009087,-0.3304164546825261 A0.05730704738292297,0.05730704738292297,0,1,1,-0.4716361764659368,-0.3304164546825261 A0.05730704738292297,0.05730704738292297,0,1,1,-0.35702208170009087,-0.3304164546825261 Z" fill="white" opacity="0.6" />
<path d="M-0.5517745494782996,-0.28483171182234146 A0.03968459454311801,0.03968459454311801,0,0,0,-0.6311437385645357,-0.28483171182234146 A0.03968459454311801,0.03968459454311801,0,0,0,-0.5517745494782996,-0.28483171182234146 L-0.545595815662304,-0.2845895804769273 A0.045360537439580295,0.045360537439580295,0,1,1,-0.6363168905414645,-0.2845895804769273 A0.045360537439580295,0.045360537439580295,0,1,1,-0.545595815662304,-0.2845895804769273 Z" fill="white" opacity="0.6" />
<path d="M-0.6385597140514836,-0.15403524435442595 A0.036312786754933324,0.036312786754933324,0,0,0,-0.7111852875613502,-0.15403524435442595 A0.036312786754933324,0.036312786754933324,0,0,0,-0.6385597140514836,-0.15403524435442595 L-0.6328380375260554,-0.1539154181568568 A0.04150947040646097,0.04150947040646097,0,1,1,-0.7158569783389774,-0.1539154181568568 A0.04150947040646097,0.04150947040646097,0,1,1,-0.6328380375260554,-0.1539154181568568 Z" fill="white" opacity="0.6" />
<path d="M-0.6167855290011246,-8.039440355343244e-17 A0.03968459454311807,0.03968459454311807,0,0,0,-0.6961547180873608,-8.525436472170144e-17 A0.03968459454311807,0.03968459454311807,0,0,0,-0.6167855290011246,-8.039440355343244e-17 L-0.6105515302855931,-8.032606142617554e-17 A0.045360537439580295,0.045360537439580295,0,1,1,-0.7012726051647535,-8.588112512447411e-17 A0.045360537439580295,0.045360537439580295,0,1,1,-0.6105515302855931,-8.032606142617554e-17 Z" fill="white" opacity="0.6" />
<path d="M-0.4670679674326439,0.11805105075380433 A0.050147480103056224,0.050147480103056224,0,0,0,-0.5673629276387564,0.11805105075380433 A0.050147480103056224,0.050147480103056224,0,0,0,-0.4670679674326439,0.11805105075380433 L-0.459352925809617,0.11792426735978685 A0.05730704738292297,0.05730704738292297,0,1,1,-0.573967020575463,0.11792426735978684 A0.05730704738292297,0.05730704738292297,0,1,1,-0.459352925809617,0.11792426735978685 Z" fill="white" opacity="0.6" />
<path d="M-0.06631433823224091,0.2697555215983834 A0.06359307425272677,0.06359307425272677,0,0,0,-0.19350048673769443,0.2697555215983834 A0.06359307425272677,0.06359307425272677,0,0,0,-0.06631433823224091,0.2697555215983834 L-0.05707918740735132,0.2693882405440516 A0.07265135184388127,0.07265135184388127,0,1,1,-0.20238189109511387,0.2693882405440516 A0.07265135184388127,0.07265135184388127,0,1,1,-0.05707918740735132,0.2693882405440516 Z" fill="white" opacity="0.6" />
<path d="M-0.22830623197270722,0.06662411182496741 A0.06359307425272677,0.06359307425272677,0,0,0,-0.35549238047816073,0.0666241118249674 A0.06359307425272677,0.06359307425272677,0,0,0,-0.22830623197270722,0.06662411182496741 L-0.21885052383290643,0.06653340089571559 A0.07265135184388127,0.07265135184388127,0,1,1,-0.364153227520669,0.06653340089571558 A0.07265135184388127,0.07265135184388127,0,1,1,-0.21885052383290643,0.06653340089571559 Z" fill="white" opacity="0.6" />
<path d="M-0.4670679674326439,0.11805105075380457 A0.050147480103056224,0.050147480103056224,0,0,0,-0.5673629276387564,0.11805105075380457 A0.050147480103056224,0.050147480103056224,0,0,0,-0.4670679674326439,0.11805105075380457 L-0.459352925809617,0.11792426735978709 A0.05730704738292297,0.05730704738292297,0,1,1,-0.573967020575463,0.11792426735978707 A0.05730704738292297,0.05730704738292297,0,1,1,-0.459352925809617,0.11792426735978709 Z" fill="white" opacity="0.6" />
<path d="M-0.5517745494782996,0.28483171182234146 A0.03968459454311801,0.03968459454311801,0,0,0,-0.6311437385645357,0.28483171182234146 A0.03968459454311801,0.03968459454311801,0,0,0,-0.5517745494782996,0.28483171182234146 L-0.545595815662304,0.2845895804769273 A0.045360537439580295,0.045360537439580295,0,1,1,-0.6363168905414645,0.2845895804769273 A0.045360537439580295,0.045360537439580295,0,1,1,-0.545595815662304,0.2845895804769273 Z" fill="white" opacity="0.6" />
<path d="M-0.5048929384987138,0.4315971638005849 A0.036312786754933324,0.036312786754933324,0,0,0,-0.5775185120085804,0.4315971638005849 A0.036312786754933324,0.036312786754933324,0,0,0,-0.5048929384987138,0.4315971638005849 L-0.49927524325057676,0.431261418255878 A0.04150947040646097,0.04150947040646097,0,1,1,-0.5822941840634988,0.431261418255878 A0.04150947040646097,0.04150947040646097,0,1,1,-0.49927524325057676,0.431261418255878 Z" fill="white" opacity="0.6" />
<path d="M-0.3696178327116603,0.5132490098865659 A0.03968459454311807,0.03968459454311807,0,0,0,-0.44898702179789646,0.5132490098865659 A0.03968459454311807,0.03968459454311807,0,0,0,-0.3696178327116603,0.5132490098865659 L-0.3635939477031404,0.5128127042782429 A0.045360537439580295,0.045360537439580295,0,1,1,-0.454315022582301,0.5128127042782429 A0.045360537439580295,0.045360537439580295,0,1,1,-0.3635939477031404,0.5128127042782429 Z" fill="white" opacity="0.6" />
<path d="M-0.1800350487814984,0.4779789463459066 A0.050147480103056224,0.050147480103056224,0,0,0,-0.28033000898761085,0.4779789463459066 A0.050147480103056224,0.050147480103056224,0,0,0,-0.1800350487814984,0.4779789463459066 L-0.1726282721623741,0.4774656108635058 A0.05730704738292297,0.05730704738292297,0,1,1,-0.28724236692822,0.4774656108635058 A0.05730704738292297,0.05730704738292297,0,1,1,-0.1726282721623741,0.4774656108635058 Z" fill="white" opacity="0.6" />
<path d="M0.19350048673769432,0.2697555215983834 A0.06359307425272677,0.06359307425272677,0,0,0,0.0663143382322408,0.2697555215983834 A0.06359307425272677,0.06359307425272677,0,0,0,0.19350048673769432,0.2697555215983834 L0.20238189109511373,0.2693882405440515 A0.07265135184388127,0.07265135184388127,0,1,1,0.057079187407351184,0.2693882405440515 A0.07265135184388127,0.07265135184388127,0,1,1,0.20238189109511373,0.2693882405440515 Z" fill="white" opacity="0.6" />
<path d="M-0.06631433823224069,0.2697555215983833 A0.0635930742527268,0.0635930742527268,0,0,0,-0.19350048673769427,0.2697555215983833 A0.0635930742527268,0.0635930742527268,0,0,0,-0.06631433823224069,0.2697555215983833 L-0.057079187407351115,0.2693882405440514 A0.07265135184388126,0.07265135184388126,0,1,1,-0.20238189109511362,0.2693882405440514 A0.07265135184388126,0.07265135184388126,0,1,1,-0.057079187407351115,0.2693882405440514 Z" fill="white" opacity="0.6" />
<path d="M-0.18003504878149798,0.4779789463459068 A0.050147480103056224,0.050147480103056224,0,0,0,-0.2803300089876104,0.4779789463459068 A0.050147480103056224,0.050147480103056224,0,0,0,-0.18003504878149798,0.4779789463459068 L-0.1726282721623737,0.477465610863506 A0.05730704738292297,0.05730704738292297,0,1,1,-0.28724236692821964,0.477465610863506 A0.05730704738292297,0.05730704738292297,0,1,1,-0.1726282721623737,0.477465610863506 Z" fill="white" opacity="0.6" />
<path d="M-0.10639375046236388,0.6400110469567324 A0.03968459454311807,0.03968459454311807,0,0,0,-0.18576293954860001,0.6400110469567324 A0.03968459454311807,0.03968459454311807,0,0,0,-0.10639375046236388,0.6400110469567324 L-0.10059362846384257,0.6394669827621661 A0.045360537439580295,0.045360537439580295,0,1,1,-0.19131470334300316,0.6394669827621661 A0.045360537439580295,0.045360537439580295,0,1,1,-0.10059362846384257,0.6394669827621661 Z" fill="white" opacity="0.6" />
<path d="M0.03631278675493321,0.6922281046360621 A0.036312786754933324,0.036312786754933324,0,0,0,-0.036312786754933435,0.6922281046360621 A0.036312786754933324,0.036312786754933324,0,0,0,0.03631278675493321,0.6922281046360621 L0.04150947040646086,0.6916896105922044 A0.04150947040646097,0.04150947040646097,0,1,1,-0.04150947040646108,0.6916896105922044 A0.04150947040646097,0.04150947040646097,0,1,1,0.04150947040646086,0.6916896105922044 Z" fill="white" opacity="0.6" />
<path d="M0.18576293954859993,0.6400110469567324 A0.03968459454311807,0.03968459454311807,0,0,0,0.1063937504623638,0.6400110469567324 A0.03968459454311807,0.03968459454311807,0,0,0,0.18576293954859993,0.6400110469567324 L0.19131470334300313,0.639466982762166 A0.04536053743958035,0.04536053743958035,0,1,1,0.10059362846384243,0.639466982762166 A0.04536053743958035,0.04536053743958035,0,1,1,0.19131470334300313,0.639466982762166 Z" fill="white" opacity="0.6" />
<path d="M0.2803300089876103,0.4779789463459069 A0.050147480103056224,0.050147480103056224,0,0,0,0.18003504878149781,0.4779789463459069 A0.050147480103056224,0.050147480103056224,0,0,0,0.2803300089876103,0.4779789463459069 L0.2872423669282195,0.47746561086350603 A0.05730704738292297,0.05730704738292297,0,1,1,0.1726282721623735,0.47746561086350603 A0.05730704738292297,0.05730704738292297,0,1,1,0.2872423669282195,0.47746561086350603 Z" fill="white" opacity="0.6" />
<path d="M0.35549238047816073,0.06662411182496716 A0.06359307425272677,0.06359307425272677,0,0,0,0.22830623197270722,0.06662411182496715 A0.06359307425272677,0.06359307425272677,0,0,0,0.35549238047816073,0.06662411182496716 L0.364153227520669,0.06653340089571536 A0.07265135184388127,0.07265135184388127,0,1,1,0.21885052383290643,0.06653340089571534 A0.07265135184388127,0.07265135184388127,0,1,1,0.364153227520669,0.06653340089571536 Z" fill="white" opacity="0.6" />
<path d="M0.1935004867376945,0.2697555215983831 A0.0635930742527268,0.0635930742527268,0,0,0,0.06631433823224091,0.2697555215983831 A0.0635930742527268,0.0635930742527268,0,0,0,0.1935004867376945,0.2697555215983831 L0.20238189109511395,0.2693882405440513 A0.07265135184388129,0.07265135184388129,0,1,1,0.057079187407351364,0.2693882405440513 A0.07265135184388129,0.07265135184388129,0,1,1,0.20238189109511395,0.2693882405440513 Z" fill="white" opacity="0.6" />
<path d="M0.28033000898761073,0.47797894634590643 A0.050147480103056224,0.050147480103056224,0,0,0,0.18003504878149826,0.47797894634590643 A0.050147480103056224,0.050147480103056224,0,0,0,0.28033000898761073,0.47797894634590643 L0.28724236692821997,0.4774656108635056 A0.057307047382923054,0.057307047382923054,0,1,1,0.17262827216237386,0.4774656108635056 A0.057307047382923054,0.057307047382923054,0,1,1,0.28724236692821997,0.4774656108635056 Z" fill="white" opacity="0.6" />
<path d="M0.4489870217978966,0.513249009886566 A0.03968459454311801,0.03968459454311801,0,0,0,0.3696178327116606,0.513249009886566 A0.03968459454311801,0.03968459454311801,0,0,0,0.4489870217978966,0.513249009886566 L0.45431502258230116,0.512812704278243 A0.04536053743958024,0.04536053743958024,0,1,1,0.3635939477031407,0.512812704278243 A0.04536053743958024,0.04536053743958024,0,1,1,0.45431502258230116,0.512812704278243 Z" fill="white" opacity="0.6" />
<path d="M0.5775185120085804,0.4315971638005848 A0.036312786754933324,0.036312786754933324,0,0,0,0.5048929384987138,0.4315971638005848 A0.036312786754933324,0.036312786754933324,0,0,0,0.5775185120085804,0.4315971638005848 L0.5822941840634985,0.4312614182558779 A0.04150947040646097,0.04150947040646097,0,1,1,0.49927524325057654,0.4312614182558779 A0.04150947040646097,0.04150947040646097,0,1,1,0.5822941840634985,0.4312614182558779 Z" fill="white" opacity="0.6" />
<path d="M0.6311437385645358,0.284831711822341 A0.03968459454311807,0.03968459454311807,0,0,0,0.5517745494782997,0.284831711822341 A0.03968459454311807,0.03968459454311807,0,0,0,0.6311437385645358,0.284831711822341 L0.6363168905414647,0.28458958047692684 A0.04536053743958035,0.04536053743958035,0,1,1,0.545595815662304,0.28458958047692684 A0.04536053743958035,0.04536053743958035,0,1,1,0.6363168905414647,0.28458958047692684 Z" fill="white" opacity="0.6" />
<path d="M0.5673629276387564,0.11805105075380444 A0.050147480103056224,0.050147480103056224,0,0,0,0.4670679674326439,0.11805105075380444 A0.050147480103056224,0.050147480103056224,0,0,0,0.5673629276387564,0.11805105075380444 L0.573967020575463,0.11792426735978698 A0.05730704738292297,0.05730704738292297,0,1,1,0.459352925809617,0.11792426735978696 A0.05730704738292297,0.05730704738292297,0,1,1,0.573967020575463,0.11792426735978698 Z" fill="white" opacity="0.6" />
<path d="M0.2976781429701545,-0.18667661303685737 A0.06359307425272677,0.06359307425272677,0,0,0,0.17049199446470098,-0.18667661303685737 A0.06359307425272677,0.06359307425272677,0,0,0,0.2976781429701545,-0.18667661303685737 L0.3064177060069879,-0.18642244666113678 A0.07265135184388127,0.07265135184388127,0,1,1,0.16111500231922538,-0.18642244666113678 A0.07265135184388127,0.07265135184388127,0,1,1,0.3064177060069879,-0.18642244666113678 Z" fill="white" opacity="0.6" />
<path d="M0.35549238047816084,0.06662411182496734 A0.06359307425272677,0.06359307425272677,0,0,0,0.22830623197270733,0.06662411182496733 A0.06359307425272677,0.06359307425272677,0,0,0,0.35549238047816084,0.06662411182496734 L0.3641532275206691,0.06653340089571554 A0.07265135184388127,0.07265135184388127,0,1,1,0.21885052383290654,0.06653340089571552 A0.07265135184388127,0.07265135184388127,0,1,1,0.3641532275206691,0.06653340089571554 Z" fill="white" opacity="0.6" />
<path d="M0.5673629276387566,0.11805105075380434 A0.0501474801030562,0.0501474801030562,0,0,0,0.46706796743264417,0.11805105075380434 A0.0501474801030562,0.0501474801030562,0,0,0,0.5673629276387566,0.11805105075380434 L0.5739670205754631,0.11792426735978688 A0.05730704738292294,0.05730704738292294,0,1,1,0.4593529258096173,0.11792426735978687 A0.05730704738292294,0.05730704738292294,0,1,1,0.5739670205754631,0.11792426735978688 Z" fill="white" opacity="0.6" />
<path d="M0.696154718087361,-2.4987840716656153e-16 A0.03968459454311801,0.03968459454311801,0,0,0,0.6167855290011249,-2.547383683348305e-16 A0.03968459454311801,0.03968459454311801,0,0,0,0.696154718087361,-2.4987840716656153e-16 L0.7012726051647538,-2.4966598912318397e-16 A0.04536053743958024,0.04536053743958024,0,1,1,0.6105515302855933,-2.5522105282148255e-16 A0.04536053743958024,0.04536053743958024,0,1,1,0.7012726051647538,-2.4966598912318397e-16 Z" fill="white" opacity="0.6" />
<path d="M0.7111852875613505,-0.154035244354426 A0.03631278675493327,0.03631278675493327,0,0,0,0.6385597140514838,-0.154035244354426 A0.03631278675493327,0.03631278675493327,0,0,0,0.7111852875613505,-0.154035244354426 L0.7158569783389777,-0.1539154181568569 A0.04150947040646091,0.04150947040646091,0,1,1,0.6328380375260558,-0.1539154181568569 A0.04150947040646091,0.04150947040646091,0,1,1,0.7158569783389777,-0.1539154181568569 Z" fill="white" opacity="0.6" />
<path d="M0.6311437385645357,-0.28483171182234146 A0.03968459454311801,0.03968459454311801,0,0,0,0.5517745494782996,-0.28483171182234146 A0.03968459454311801,0.03968459454311801,0,0,0,0.6311437385645357,-0.28483171182234146 L0.6363168905414645,-0.2845895804769273 A0.045360537439580295,0.045360537439580295,0,1,1,0.545595815662304,-0.2845895804769273 A0.045360537439580295,0.045360537439580295,0,1,1,0.6363168905414645,-0.2845895804769273 Z" fill="white" opacity="0.6" />
<path d="M0.46492206502312183,-0.330771693858497 A0.050147480103056224,0.050147480103056224,0,0,0,0.36462710481700944,-0.330771693858497 A0.050147480103056224,0.050147480103056224,0,0,0,0.46492206502312183,-0.330771693858497 L0.471636176465937,-0.33041645468252595 A0.05730704738292297,0.05730704738292297,0,1,1,0.35702208170009103,-0.33041645468252595 A0.05730704738292297,0.05730704738292297,0,1,1,0.471636176465937,-0.33041645468252595 Z" fill="white" opacity="0.6" />
<path d="M0.06359307425272678,-0.2994060407729867 A0.06359307425272677,0.06359307425272677,0,0,0,-0.06359307425272676,-0.2994060407729867 A0.06359307425272677,0.06359307425272677,0,0,0,0.06359307425272678,-0.2994060407729867 L0.07265135184388129,-0.29899838955726055 A0.07265135184388127,0.07265135184388127,0,1,1,-0.07265135184388126,-0.29899838955726055 A0.07265135184388127,0.07265135184388127,0,1,1,0.07265135184388129,-0.29899838955726055 Z" fill="white" opacity="0.6" />
<path d="M0.29767814297015427,-0.18667661303685734 A0.0635930742527268,0.0635930742527268,0,0,0,0.17049199446470065,-0.18667661303685734 A0.0635930742527268,0.0635930742527268,0,0,0,0.29767814297015427,-0.18667661303685734 L0.30641770600698764,-0.18642244666113675 A0.07265135184388126,0.07265135184388126,0,1,1,0.1611150023192251,-0.18642244666113675 A0.07265135184388126,0.07265135184388126,0,1,1,0.30641770600698764,-0.18642244666113675 Z" fill="white" opacity="0.6" />
<path d="M0.4649220650231216,-0.330771693858497 A0.05014748010305625,0.05014748010305625,0,0,0,0.3646271048170091,-0.330771693858497 A0.05014748010305625,0.05014748010305625,0,0,0,0.4649220650231216,-0.330771693858497 L0.4716361764659367,-0.33041645468252595 A0.057307047382923,0.057307047382923,0,1,1,0.35702208170009075,-0.33041645468252595 A0.057307047382923,0.057307047382923,0,1,1,0.4716361764659367,-0.33041645468252595 Z" fill="white" opacity="0.6" />
<path d="M0.4489870217978964,-0.5132490098865659 A0.03968459454311807,0.03968459454311807,0,0,0,0.36961783271166027,-0.5132490098865659 A0.03968459454311807,0.03968459454311807,0,0,0,0.4489870217978964,-0.5132490098865659 L0.45431502258230094,-0.5128127042782429 A0.045360537439580295,0.045360537439580295,0,1,1,0.36359394770314035,-0.5128127042782429 A0.045360537439580295,0.045360537439580295,0,1,1,0.45431502258230094,-0.5128127042782429 Z" fill="white" opacity="0.6" />
<path d="M0.33665930511668835,-0.62367597176419 A0.036312786754933324,0.036312786754933324,0,0,0,0.2640337316068217,-0.62367597176419 A0.036312786754933324,0.036312786754933324,0,0,0,0.33665930511668835,-0.62367597176419 L0.3416223449589745,-0.6231908053951234 A0.04150947040646097,0.04150947040646097,0,1,1,0.25860340414605254,-0.6231908053951234 A0.04150947040646097,0.04150947040646097,0,1,1,0.3416223449589745,-0.6231908053951234 Z" fill="white" opacity="0.6" />
<path d="M0.1857629395486001,-0.6400110469567324 A0.03968459454311807,0.03968459454311807,0,0,0,0.10639375046236396,-0.6400110469567324 A0.03968459454311807,0.03968459454311807,0,0,0,0.1857629395486001,-0.6400110469567324 L0.19131470334300327,-0.639466982762166 A0.04536053743958035,0.04536053743958035,0,1,1,0.10059362846384257,-0.639466982762166 A0.04536053743958035,0.04536053743958035,0,1,1,0.19131470334300327,-0.639466982762166 Z" fill="white" opacity="0.6" />
<path d="M0.050147480103056495,-0.5305166064824285 A0.050147480103056224,0.050147480103056224,0,0,0,-0.050147480103055954,-0.5305166064824285 A0.050147480103056224,0.050147480103056224,0,0,0,0.050147480103056495,-0.5305166064824285 L0.05730704738292324,-0.5299468470815338 A0.05730704738292297,0.05730704738292297,0,1,1,-0.0573070473829227,-0.5299468470815338 A0.05730704738292297,0.05730704738292297,0,1,1,0.05730704738292324,-0.5299468470815338 Z" fill="white" opacity="0.6" />
</svg>