<?xml version="1.0" encoding="UTF-8"?>
<svg xmlns="http://www.w3.org/2000/svg" xmlns:xlink="http://www.w3.org/1999/xlink"
     width="400" height="400.0" viewBox="-1.05 -1.05 2.1 2.1">
<defs>
</defs>
<circle cx="0" cy="0" r="1" fill="silver" />
<path d="M0.9383256289491039,0.3457528221971137 A1.2343059512691037,1.2343059512691037,0,0,1,-0.03887190897517012,-0.9992442017308014 A1.951593324760691,1.951593324760691,0,0,0,0.9383256289491037,0.34575282219711356 Z" fill="blue" />
<path d="M0.6187890401808388,-0.7855572059067856 A1.2343059512691033,1.2343059512691033,0,0,1,-0.9623497899033506,-0.27181405753377774 A1.9515933247606887,1.9515933247606887,0,0,0,0.6187890401808389,-0.7855572059067857 Z" fill="blue" />
<path d="M-0.5558929702514208,-0.8312538755549069 A1.2343059512691033,1.2343059512691033,0,0,1,-0.5558929702514208,0.8312538755549068 A1.9515933247606898,1.9515933247606898,0,0,0,-0.5558929702514208,-0.8312538755549072 Z" fill="blue" />
<path d="M-0.9623497899033511,0.27181405753377796 A1.2343059512691026,1.2343059512691026,0,0,1,0.6187890401808389,0.7855572059067858 A1.9515933247606885,1.9515933247606885,0,0,0,-0.9623497899033512,0.2718140575337784 Z" fill="blue" />
<path d="M-0.03887190897517101,0.9992442017308013 A1.2343059512691037,1.2343059512691037,0,0,1,0.938325628949103,-0.3457528221971138 A1.9515933247606898,1.9515933247606898,0,0,0,-0.038871908975170566,0.999244201730801 Z" fill="blue" />
<path d="M0.39797542678479036,-4.440892098500626e-16 A1.4953487812212225,1.4953487812212225,0,0,1,0.12298117022012311,-0.37849712296902005 A1.4953487812212205,1.4953487812212205,0,0,1,-0.32196888361251796,-0.23392408663890252 A1.4953487812212212,1.4953487812212212,0,0,1,-0.3219688836125181,0.23392408663890282 A1.4953487812212203,1.4953487812212203,0,0,1,0.12298117022012267,0.3784971229690197 A1.4953487812212216,1.4953487812212216,0,0,1,0.39797542678479036,-2.220446049250313e-16 L0.48302071233008004,6.661338147750939e-16 A1.9515933247606898,1.9515933247606898,0,0,0,0.14926160874508754,0.4593799959670497 A1.9515933247606885,1.9515933247606885,0,0,0,-0.39077196491012867,0.28391245125942666 A1.9515933247606898,1.9515933247606898,0,0,0,-0.3907719649101282,-0.283912451259427 A1.9515933247606887,1.9515933247606887,0,0,0,0.14926160874508765,-0.4593799959670499 A1.951593324760691,1.951593324760691,0,0,0,0.4830207123300809,-2.220446049250313e-16 Z" fill="green" />
<path d="M0.3979754267847906,-2.220446049250313e-16 A1.4953487812212216,1.4953487812212216,0,0,1,0.12298117022012311,-0.37849712296902005 A1.4953487812212212,1.4953487812212212,0,0,1,-0.3219688836125181,-0.23392408663890274 A1.495348781221221,1.495348781221221,0,0,1,-0.3219688836125183,0.2339240866389028 A1.4953487812212212,1.4953487812212212,0,0,1,0.12298117022012245,0.3784971229690197 A1.4953487812212207,1.4953487812212207,0,0,1,0.3979754267847908,-4.440892098500626e-16 Z" fill="black" opacity="0.3" />
<circle cx="0.39797542678479053" cy="-0.0" r="0.05" stroke-width="0.01" stroke="#ccccff" fill="none" opacity="0.6" />
<circle cx="0.12298117022012292" cy="-0.37849712296901983" r="0.05" stroke-width="0.01" stroke="#ccccff" fill="none" opacity="0.6" />
<circle cx="-0.32196888361251813" cy="-0.23392408663890282" r="0.05" stroke-width="0.01" stroke="#ccccff" fill="none" opacity="0.6" />
<circle cx="-0.3219688836125182" cy="0.23392408663890274" r="0.05" stroke-width="0.01" stroke="#ccccff" fill="none" opacity="0.6" />
<circle cx="0.12298117022012284" cy="0.3784971229690199" r="0.05" stroke-width="0.01" stroke="#ccccff" fill="none" opacity="0.6" />
</svg>