<?xml version="1.0" encoding="UTF-8"?>
<svg xmlns="http://www.w3.org/2000/svg" xmlns:xlink="http://www.w3.org/1999/xlink"
     width="400" height="400.0" viewBox="-1.05 -1.05 2.1 2.1">
<defs>
</defs>
<circle cx="0" cy="0" r="1" fill="silver" />
<path d="M2.220446049250313e-16,-0.30074261874637864 A1.7461149273522347,1.7461149273522347,0,0,1,-0.23513004745579924,-0.18750995577265583 A1.7461149273522336,1.7461149273522336,0,0,1,-0.2932023733985012,0.06692152840391197 A1.7461149273522345,1.7461149273522345,0,0,1,-0.13048733193368545,0.2709597367419334 A1.746114927352234,1.746114927352234,0,0,1,0.1304873319336854,0.27095973674193363 A1.746114927352235,1.746114927352235,0,0,1,0.29320237339850164,0.06692152840391219 A1.7461149273522318,1.7461149273522318,0,0,1,0.2351300474557989,-0.1875099557726569 A1.7461149273522312,1.7461149273522312,0,0,1,0.0,-0.30074261874637864 L3.3306690738754696e-16,-0.2201752309788476 A1.3982063765644845,1.3982063765644845,0,0,0,0.17213992723893357,-0.1372770111372028 A1.3982063765644839,1.3982063765644839,0,0,0,0.21465497825235902,0.04899359803146103 A1.3982063765644859,1.3982063765644859,0,0,0,0.09553045247817415,0.19837102859516675 A1.3982063765644857,1.3982063765644857,0,0,0,-0.09553045247817478,0.1983710285951661 A1.3982063765644857,1.3982063765644857,0,0,0,-0.21465497825235902,0.048993598031460195 A1.3982063765644852,1.3982063765644852,0,0,0,-0.17213992723893368,-0.13727701113720234 A1.3982063765644852,1.3982063765644852,0,0,0,3.3306690738754696e-16,-0.22017523097884784 Z" fill="green" />
<path d="M2.220446049250313e-16,-0.30074261874637886 A1.7461149273522336,1.7461149273522336,0,0,1,-0.23513004745579846,-0.18750995577265672 A1.746114927352234,1.746114927352234,0,0,1,-0.29320237339850164,0.06692152840391191 A1.7461149273522338,1.7461149273522338,0,0,1,-0.13048733193368522,0.27095973674193374 A1.7461149273522338,1.7461149273522338,0,0,1,0.13048733193368492,0.27095973674193385 A1.7461149273522343,1.7461149273522343,0,0,1,0.2932023733985014,0.06692152840391197 A1.7461149273522332,1.7461149273522332,0,0,1,0.2351300474557989,-0.1875099557726564 A1.7461149273522338,1.7461149273522338,0,0,1,-1.1102230246251565e-16,-0.3007426187463793 Z" fill="red" opacity="0.2" />
<path d="M-0.23513004745579857,-0.18750995577265672 A1.7461149273522354,1.7461149273522354,0,0,0,6.661338147750939e-16,-0.3007426187463793 L2.7755575615628914e-16,-0.5323823945112026 A0.7770942488589616,0.7770942488589616,0,0,1,-0.14648460441441824,-0.6417909857261601 A0.4312547728026082,0.4312547728026082,0,0,1,-0.3011106623764628,-0.6252627331607948 A0.4312547728026079,0.4312547728026079,0,0,1,-0.4104407408232014,-0.514676409953192 A0.7770942488589615,0.7770942488589615,0,0,1,-0.4162333167405735,-0.3319349936668687 L-0.2351300474557988,-0.1875099557726565 L-0.2252877736770702,-0.26433468154361073 A6.71659182702017,6.71659182702017,0,0,0,-0.3583654787750219,-0.35740962923996644 A0.7035378117391621,0.7035378117391621,0,0,0,-0.36323120607816217,-0.4941126878134419 A0.4095246208682099,0.4095246208682099,0,0,0,-0.2804687825279306,-0.5823994279898428 A0.40952462086821023,0.40952462086821023,0,0,0,-0.15984190251286412,-0.5920598141474295 A0.7035378117391621,0.7035378117391621,0,0,0,-0.055996878922577875,-0.5030226724532639 A6.716591827020166,6.716591827020166,0,0,0,-0.06620054656784369,-0.34094705229588196 A2.3956001356843046,2.3956001356843046,0,0,1,-0.22528777367706998,-0.26433468154361117 Z" fill="green" />
<path d="M-0.2351300474557989,-0.1875099557726565 A1.746114927352234,1.746114927352234,0,0,0,1.1102230246251565e-16,-0.3007426187463791 L-0.0,-0.5323823945112032 A0.7770942488589617,0.7770942488589617,0,0,1,-0.1464846044144179,-0.6417909857261602 A0.4312547728026081,0.4312547728026081,0,0,1,-0.301110662376463,-0.625262733160795 A0.4312547728026081,0.4312547728026081,0,0,1,-0.4104407408232015,-0.5146764099531922 A0.7770942488589613,0.7770942488589613,0,0,1,-0.4162333167405735,-0.3319349936668684 L-0.23513004745579896,-0.18750995577265656 Z" fill="red" opacity="0.2" />
<path d="M-0.29320237339850097,0.06692152840391169 A1.7461149273522332,1.7461149273522332,0,0,0,-0.23513004745579846,-0.18750995577265628 L-0.4162333167405739,-0.33193499366686785 A0.7770942488589612,0.7770942488589612,0,0,1,-0.5931040547866022,-0.2856238590970577 A0.43125477280260754,0.43125477280260754,0,0,1,-0.6765895168217696,-0.1544271420553533 A0.43125477280260816,0.43125477280260816,0,0,1,-0.6582958367556375,-5.48172618408671e-16 A0.7770942488589628,0.7770942488589628,0,0,1,-0.5190344563631673,0.11846622764853154 L-0.29320237339850097,0.06692152840391169 L-0.34712980531006643,0.011327095855848235 A6.716591827020121,6.716591827020121,0,0,0,-0.5028713216314791,0.057340154618810146 A0.7035378117391633,0.7035378117391633,0,0,0,-0.6127838079260285,-0.0240886294939493 A0.40952462086820995,0.40952462086820995,0,0,0,-0.6302076338197313,-0.14384077993021094 A0.40952462086820957,0.40952462086820957,0,0,0,-0.5625507983310996,-0.24417382460915674 A0.703537811739162,0.703537811739162,0,0,0,-0.4281924446633186,-0.26984938351671217 A6.716591827020165,6.716591827020165,0,0,0,-0.3078385050021195,-0.16081933861694875 A2.3956001356843006,2.3956001356843006,0,0,1,-0.3471298053100669,0.011327095855847569 Z" fill="green" />
<path d="M-0.2932023733985014,0.06692152840391213 A1.746114927352234,1.746114927352234,0,0,0,-0.2351300474557989,-0.1875099557726564 L-0.4162333167405734,-0.33193499366686813 A0.7770942488589617,0.7770942488589617,0,0,1,-0.5931040547866022,-0.2856238590970578 A0.43125477280260793,0.43125477280260793,0,0,1,-0.6765895168217694,-0.15442714205535368 A0.4312547728026084,0.4312547728026084,0,0,1,-0.6582958367556374,-6.938893903907228e-17 A0.7770942488589625,0.7770942488589625,0,0,1,-0.5190344563631673,0.11846622764853176 L-0.2932023733985015,0.06692152840391202 Z" fill="red" opacity="0.2" />
<path d="M-0.13048733193368522,0.27095973674193463 A1.7461149273522332,1.7461149273522332,0,0,0,-0.2932023733985021,0.06692152840391197 L-0.5190344563631673,0.11846622764853193 A0.7770942488589613,0.7770942488589613,0,0,1,-0.5931040547866024,0.28562385909705773 A0.43125477280260827,0.43125477280260827,0,0,1,-0.5425826651893395,0.4326952367573891 A0.4312547728026084,0.4312547728026084,0,0,1,-0.4104407408232016,0.5146764099531923 A0.7770942488589615,0.7770942488589615,0,0,1,-0.23099206397088018,0.4796599632739379 L-0.13048733193368522,0.27095973674193463 L-0.20757601338700038,0.27845933904520814 A6.7165918270201415,6.7165918270201415,0,0,0,-0.26870480259387897,0.42891163252362485 A0.703537811739162,0.703537811739162,0,0,0,-0.40089770389391666,0.46407465815298055 A0.40952462086821023,0.40952462086821023,0,0,0,-0.5053872829523203,0.4030329092340565 A0.40952462086821023,0.40952462086821023,0,0,0,-0.5416474690609954,0.28758003509812524 A0.703537811739162,0.703537811739162,0,0,0,-0.4779503660384915,0.16652599513218952 A6.716591827020168,6.716591827020168,0,0,0,-0.31766779040867754,0.14040861715721675 A2.3956001356843006,2.3956001356843006,0,0,1,-0.20757601338699927,0.27845933904520725 Z" fill="green" />
<path d="M-0.13048733193368522,0.27095973674193385 A1.7461149273522327,1.7461149273522327,0,0,0,-0.29320237339850164,0.06692152840391219 L-0.5190344563631673,0.11846622764853205 A0.7770942488589613,0.7770942488589613,0,0,1,-0.5931040547866026,0.2856238590970577 A0.43125477280260804,0.43125477280260804,0,0,1,-0.5425826651893394,0.4326952367573891 A0.43125477280260827,0.43125477280260827,0,0,1,-0.41044074082320176,0.5146764099531922 A0.7770942488589616,0.7770942488589616,0,0,1,-0.23099206397087996,0.4796599632739377 L-0.1304873319336853,0.27095973674193397 Z" fill="red" opacity="0.2" />
<path d="M0.1304873319336853,0.27095973674193363 A1.7461149273522354,1.7461149273522354,0,0,0,-0.1304873319336848,0.27095973674193363 L-0.23099206397087924,0.4796599632739387 A0.7770942488589608,0.7770942488589608,0,0,1,-0.14648460441441835,0.6417909857261601 A0.43125477280260793,0.43125477280260793,0,0,1,-3.608224830031759e-16,0.6939892769175182 A0.4312547728026082,0.4312547728026082,0,0,1,0.14648460441441796,0.6417909857261602 A0.7770942488589624,0.7770942488589624,0,0,1,0.23099206397087946,0.47965996327393795 L0.13048733193368506,0.27095973674193363 L0.08828675039549427,0.33590602039816764 A6.716591827020164,6.716591827020164,0,0,0,0.1678019133759756,0.477503902935303 A0.7035378117391626,0.7035378117391626,0,0,0,0.1128725479931495,0.6027802628128716 A0.40952462086821023,0.40952462086821023,0,0,0,-3.885780586188048e-16,0.6464145973719932 A0.40952462086820984,0.40952462086820984,0,0,0,-0.11287254799314957,0.6027802628128718 A0.7035378117391619,0.7035378117391619,0,0,0,-0.16780191337598427,0.4775039029353096 A6.716591827020151,6.716591827020151,0,0,0,-0.08828675039549605,0.3359060203981712 A2.3956001356843033,2.3956001356843033,0,0,1,0.08828675039549459,0.33590602039817075 Z" fill="green" />
<path d="M0.13048733193368522,0.27095973674193363 A1.746114927352235,1.746114927352235,0,0,0,-0.1304873319336852,0.27095973674193363 L-0.2309920639708797,0.4796599632739378 A0.7770942488589621,0.7770942488589621,0,0,1,-0.14648460441441802,0.6417909857261603 A0.4312547728026081,0.4312547728026081,0,0,1,-1.942890293094024e-16,0.6939892769175184 A0.4312547728026085,0.4312547728026085,0,0,1,0.1464846044144179,0.6417909857261601 A0.7770942488589623,0.7770942488589623,0,0,1,0.23099206397087968,0.47965996327393773 L0.13048733193368514,0.2709597367419339 Z" fill="red" opacity="0.2" />
<path d="M0.2932023733985014,0.06692152840391219 A1.7461149273522354,1.7461149273522354,0,0,0,0.13048733193368478,0.27095973674193463 L0.23099206397087962,0.4796599632739371 A0.7770942488589627,0.7770942488589627,0,0,1,0.4104407408232019,0.514676409953192 A0.43125477280260804,0.43125477280260804,0,0,1,0.5425826651893395,0.4326952367573888 A0.43125477280260816,0.43125477280260816,0,0,1,0.5931040547866024,0.28562385909705734 A0.7770942488589616,0.7770942488589616,0,0,1,0.5190344563631673,0.11846622764853242 L0.29320237339850075,0.06692152840391263 L0.3176677904086773,0.14040861715721586 A6.7165918270201015,6.7165918270201015,0,0,0,0.47795036603849583,0.16652599513219446 A0.7035378117391621,0.7035378117391621,0,0,0,0.5416474690609953,0.2875800350981246 A0.40952462086821007,0.40952462086821007,0,0,0,0.5053872829523202,0.40303290923405644 A0.40952462086821007,0.40952462086821007,0,0,0,0.40089770389391727,0.46407465815298043 A0.7035378117391631,0.7035378117391631,0,0,0,0.2687048025938731,0.4289116325236251 A6.716591827020176,6.716591827020176,0,0,0,0.2075760133869995,0.2784593390452086 A2.3956001356843046,2.3956001356843046,0,0,1,0.31766779040867754,0.14040861715721564 Z" fill="green" />
<path d="M0.2932023733985014,0.06692152840391219 A1.7461149273522343,1.7461149273522343,0,0,0,0.13048733193368522,0.27095973674193385 L0.23099206397088004,0.47965996327393745 A0.7770942488589634,0.7770942488589634,0,0,1,0.410440740823202,0.5146764099531921 A0.43125477280260804,0.43125477280260804,0,0,1,0.5425826651893393,0.4326952367573889 A0.43125477280260816,0.43125477280260816,0,0,1,0.5931040547866024,0.28562385909705734 A0.777094248858962,0.777094248858962,0,0,1,0.5190344563631673,0.11846622764853183 L0.2932023733985015,0.06692152840391184 Z" fill="red" opacity="0.2" />
<path d="M0.23513004745579935,-0.18750995577265622 A1.7461149273522318,1.7461149273522318,0,0,0,0.2932023733985012,0.06692152840391014 L0.5190344563631676,0.11846622764853165 A0.777094248858961,0.777094248858961,0,0,1,0.6582958367556377,-2.220446049250313e-16 A0.43125477280260777,0.43125477280260777,0,0,1,0.6765895168217696,-0.1544271420553539 A0.43125477280260816,0.43125477280260816,0,0,1,0.5931040547866027,-0.28562385909705806 A0.7770942488589617,0.7770942488589617,0,0,1,0.41623331674057423,-0.3319349936668681 L0.23513004745579935,-0.18750995577265595 L0.3078385050021222,-0.16081933861694875 A6.716591827020166,6.716591827020166,0,0,0,0.4281924446633214,-0.26984938351671506 A0.7035378117391621,0.7035378117391621,0,0,0,0.5625507983310997,-0.24417382460915682 A0.40952462086821,0.40952462086821,0,0,0,0.6302076338197317,-0.14384077993021122 A0.4095246208682097,0.4095246208682097,0,0,0,0.6127838079260287,-0.024088629493948945 A0.7035378117391614,0.7035378117391614,0,0,0,0.5028713216314793,0.05734015461880848 A6.716591827020156,6.716591827020156,0,0,0,0.3471298053100671,0.011327095855849123 A2.3956001356842993,2.3956001356842993,0,0,1,0.30783850500211996,-0.16081933861694864 Z" fill="green" />
<path d="M0.23513004745579935,-0.18750995577265683 A1.7461149273522323,1.7461149273522323,0,0,0,0.29320237339850186,0.0669215284039118 L0.5190344563631675,0.11846622764853179 A0.7770942488589606,0.7770942488589606,0,0,1,0.6582958367556376,-2.220446049250313e-16 A0.43125477280260793,0.43125477280260793,0,0,1,0.6765895168217696,-0.15442714205535357 A0.43125477280260804,0.43125477280260804,0,0,1,0.5931040547866024,-0.2856238590970577 A0.7770942488589615,0.7770942488589615,0,0,1,0.41623331674057373,-0.3319349936668681 L0.23513004745579913,-0.18750995577265644 Z" fill="red" opacity="0.2" />
<path d="M8.881784197001252e-16,-0.3007426187463782 A1.7461149273522332,1.7461149273522332,0,0,0,0.23513004745579835,-0.1875099557726565 L0.4162333167405735,-0.3319349936668688 A0.7770942488589621,0.7770942488589621,0,0,1,0.4104407408232019,-0.5146764099531921 A0.43125477280260804,0.43125477280260804,0,0,1,0.30111066237646394,-0.6252627331607943 A0.43125477280260877,0.43125477280260877,0,0,1,0.14648460441441777,-0.6417909857261597 A0.7770942488589617,0.7770942488589617,0,0,1,3.3306690738754696e-16,-0.5323823945112032 L8.881784197001252e-16,-0.3007426187463784 L0.06620054656784458,-0.3409470522958835 A6.716591827020156,6.716591827020156,0,0,0,0.05599687892258398,-0.5030226724532731 A0.7035378117391621,0.7035378117391621,0,0,0,0.15984190251286368,-0.592059814147429 A0.4095246208682105,0.4095246208682105,0,0,0,0.2804687825279316,-0.5823994279898423 A0.40952462086821,0.40952462086821,0,0,0,0.3632312060781624,-0.4941126878134421 A0.7035378117391625,0.7035378117391625,0,0,0,0.35836547877501934,-0.3574096292399662 A6.716591827020164,6.716591827020164,0,0,0,0.22528777367707464,-0.2643346815436116 A2.3956001356842993,2.3956001356842993,0,0,1,0.06620054656784435,-0.34094705229588307 Z" fill="green" />
<path d="M2.220446049250313e-16,-0.30074261874637886 A1.7461149273522345,1.7461149273522345,0,0,0,0.2351300474557988,-0.1875099557726565 L0.41623331674057334,-0.3319349936668681 A0.7770942488589623,0.7770942488589623,0,0,1,0.4104407408232017,-0.5146764099531922 A0.43125477280260816,0.43125477280260816,0,0,1,0.30111066237646344,-0.6252627331607947 A0.4312547728026087,0.4312547728026087,0,0,1,0.14648460441441788,-0.6417909857261599 A0.777094248858962,0.777094248858962,0,0,1,2.220446049250313e-16,-0.5323823945112031 L-0.0,-0.300742618746379 Z" fill="red" opacity="0.2" />
<path d="M0.06359307425272678,-0.29940604077298677 A0.06359307425272677,0.06359307425272677,0,0,0,-0.06359307425272676,-0.29940604077298677 A0.06359307425272677,0.06359307425272677,0,0,0,0.06359307425272678,-0.29940604077298677 L0.07265135184388129,-0.2989983895572606 A0.07265135184388127,0.07265135184388127,0,1,1,-0.07265135184388126,-0.2989983895572606 A0.07265135184388127,0.07265135184388127,0,1,1,0.07265135184388129,-0.2989983895572606 Z" fill="white" opacity="0.6" />
<path d="M-0.1704919944647008,-0.18667661303685743 A0.06359307425272677,0.06359307425272677,0,0,0,-0.2976781429701544,-0.18667661303685743 A0.06359307425272677,0.06359307425272677,0,0,0,-0.1704919944647008,-0.18667661303685743 L-0.16111500231922524,-0.18642244666113686 A0.07265135184388127,0.07265135184388127,0,1,1,-0.3064177060069878,-0.18642244666113686 A0.07265135184388127,0.07265135184388127,0,1,1,-0.16111500231922524,-0.18642244666113686 Z" fill="white" opacity="0.6" />
<path d="M-0.22830623197270716,0.06662411182496739 A0.06359307425272677,0.06359307425272677,0,0,0,-0.3554923804781607,0.06662411182496737 A0.06359307425272677,0.06359307425272677,0,0,0,-0.22830623197270716,0.06662411182496739 L-0.21885052383290632,0.06653340089571556 A0.07265135184388127,0.07265135184388127,0,1,1,-0.36415322752066887,0.06653340089571555 A0.07265135184388127,0.07265135184388127,0,1,1,-0.21885052383290632,0.06653340089571556 Z" fill="white" opacity="0.6" />
<path d="M-0.06631433823224088,0.2697555215983834 A0.06359307425272677,0.06359307425272677,0,0,0,-0.19350048673769443,0.2697555215983834 A0.06359307425272677,0.06359307425272677,0,0,0,-0.06631433823224088,0.2697555215983834 L-0.057079187407351295,0.2693882405440515 A0.07265135184388127,0.07265135184388127,0,1,1,-0.20238189109511384,0.2693882405440515 A0.07265135184388127,0.07265135184388127,0,1,1,-0.057079187407351295,0.2693882405440515 Z" fill="white" opacity="0.6" />
<path d="M0.19350048673769427,0.2697555215983834 A0.06359307425272677,0.06359307425272677,0,0,0,0.06631433823224071,0.2697555215983834 A0.06359307425272677,0.06359307425272677,0,0,0,0.19350048673769427,0.2697555215983834 L0.20238189109511368,0.2693882405440516 A0.07265135184388127,0.07265135184388127,0,1,1,0.05707918740735113,0.2693882405440516 A0.07265135184388127,0.07265135184388127,0,1,1,0.20238189109511368,0.2693882405440516 Z" fill="white" opacity="0.6" />
<path d="M0.35549238047816073,0.06662411182496718 A0.06359307425272677,0.06359307425272677,0,0,0,0.22830623197270722,0.06662411182496716 A0.06359307425272677,0.06359307425272677,0,0,0,0.35549238047816073,0.06662411182496718 L0.364153227520669,0.06653340089571536 A0.07265135184388127,0.07265135184388127,0,1,1,0.21885052383290643,0.06653340089571534 A0.07265135184388127,0.07265135184388127,0,1,1,0.364153227520669,0.06653340089571536 Z" fill="white" opacity="0.6" />
<path d="M0.29767814297015444,-0.18667661303685737 A0.06359307425272677,0.06359307425272677,0,0,0,0.17049199446470087,-0.18667661303685737 A0.06359307425272677,0.06359307425272677,0,0,0,0.29767814297015444,-0.18667661303685737 L0.3064177060069878,-0.18642244666113678 A0.07265135184388127,0.07265135184388127,0,1,1,0.1611150023192253,-0.18642244666113678 A0.07265135184388127,0.07265135184388127,0,1,1,0.3064177060069878,-0.18642244666113678 Z" fill="white" opacity="0.6" />
<path d="M-0.1704919944647008,-0.18667661303685743 A0.06359307425272677,0.06359307425272677,0,0,0,-0.2976781429701544,-0.18667661303685743 A0.06359307425272677,0.06359307425272677,0,0,0,-0.1704919944647008,-0.18667661303685743 L-0.16111500231922524,-0.18642244666113686 A0.07265135184388127,0.07265135184388127,0,1,1,-0.3064177060069878,-0.18642244666113686 A0.07265135184388127,0.07265135184388127,0,1,1,-0.16111500231922524,-0.18642244666113686 Z" fill="white" opacity="0.6" />
<path d="M0.06359307425272678,-0.29940604077298677 A0.06359307425272677,0.06359307425272677,0,0,0,-0.06359307425272676,-0.29940604077298677 A0.06359307425272677,0.06359307425272677,0,0,0,0.06359307425272678,-0.29940604077298677 L0.07265135184388129,-0.2989983895572606 A0.07265135184388127,0.07265135184388127,0,1,1,-0.07265135184388126,-0.2989983895572606 A0.07265135184388127,0.07265135184388127,0,1,1,0.07265135184388129,-0.2989983895572606 Z" fill="white" opacity="0.6" />
<path d="M0.05014748010305626,-0.5305166064824285 A0.050147480103056224,0.050147480103056224,0,0,0,-0.05014748010305619,-0.5305166064824285 A0.050147480103056224,0.050147480103056224,0,0,0,0.05014748010305626,-0.5305166064824285 L0.057307047382923006,-0.5299468470815338 A0.05730704738292297,0.05730704738292297,0,1,1,-0.057307047382922936,-0.5299468470815338 A0.05730704738292297,0.05730704738292297,0,1,1,0.057307047382923006,-0.5299468470815338 Z" fill="white" opacity="0.6" />
<path d="M-0.10639375046236388,-0.6400110469567324 A0.03968459454311807,0.03968459454311807,0,0,0,-0.18576293954860001,-0.6400110469567324 A0.03968459454311807,0.03968459454311807,0,0,0,-0.10639375046236388,-0.6400110469567324 L-0.10059362846384257,-0.6394669827621661 A0.045360537439580295,0.045360537439580295,0,1,1,-0.19131470334300316,-0.6394669827621661 A0.045360537439580295,0.045360537439580295,0,1,1,-0.10059362846384257,-0.6394669827621661 Z" fill="white" opacity="0.6" />
<path d="M-0.2640337316068215,-0.6236759717641901 A0.036312786754933324,0.036312786754933324,0,0,0,-0.3366593051166881,-0.6236759717641901 A0.036312786754933324,0.036312786754933324,0,0,0,-0.2640337316068215,-0.6236759717641901 L-0.2586034041460524,-0.6231908053951235 A0.04150947040646097,0.04150947040646097,0,1,1,-0.3416223449589743,-0.6231908053951235 A0.04150947040646097,0.04150947040646097,0,1,1,-0.2586034041460524,-0.6231908053951235 Z" fill="white" opacity="0.6" />
<path d="M-0.36961783271166004,-0.5132490098865661 A0.03968459454311807,0.03968459454311807,0,0,0,-0.4489870217978962,-0.5132490098865661 A0.03968459454311807,0.03968459454311807,0,0,0,-0.36961783271166004,-0.5132490098865661 L-0.36359394770314013,-0.5128127042782431 A0.045360537439580295,0.045360537439580295,0,1,1,-0.4543150225823007,-0.5128127042782431 A0.045360537439580295,0.045360537439580295,0,1,1,-0.36359394770314013,-0.5128127042782431 Z" fill="white" opacity="0.6" />
<path d="M-0.3646271048170091,-0.3307716938584973 A0.050147480103056224,0.050147480103056224,0,0,0,-0.4649220650231216,-0.3307716938584973 A0.050147480103056224,0.050147480103056224,0,0,0,-0.3646271048170091,-0.3307716938584973 L-0.35702208170009075,-0.3304164546825263 A0.05730704738292297,0.05730704738292297,0,1,1,-0.4716361764659367,-0.3304164546825263 A0.05730704738292297,0.05730704738292297,0,1,1,-0.35702208170009075,-0.3304164546825263 Z" fill="white" opacity="0.6" />
<path d="M-0.22830623197270722,0.06662411182496726 A0.06359307425272677,0.06359307425272677,0,0,0,-0.35549238047816073,0.06662411182496725 A0.06359307425272677,0.06359307425272677,0,0,0,-0.22830623197270722,0.06662411182496726 L-0.21885052383290643,0.06653340089571545 A0.07265135184388127,0.07265135184388127,0,1,1,-0.364153227520669,0.06653340089571544 A0.07265135184388127,0.07265135184388127,0,1,1,-0.21885052383290643,0.06653340089571545 Z" fill="white" opacity="0.6" />
<path d="M-0.1704919944647006,-0.1866766130368573 A0.0635930742527268,0.0635930742527268,0,0,0,-0.2976781429701542,-0.1866766130368573 A0.0635930742527268,0.0635930742527268,0,0,0,-0.1704919944647006,-0.1866766130368573 L-0.1611150023192251,-0.18642244666113675 A0.07265135184388129,0.07265135184388129,0,1,1,-0.30641770600698764,-0.18642244666113675 A0.07265135184388129,0.07265135184388129,0,1,1,-0.1611150023192251,-0.18642244666113675 Z" fill="white" opacity="0.6" />
<path d="M-0.36462710481700905,-0.33077169385849703 A0.05014748010305625,0.05014748010305625,0,0,0,-0.46492206502312156,-0.33077169385849703 A0.05014748010305625,0.05014748010305625,0,0,0,-0.36462710481700905,-0.33077169385849703 L-0.35702208170009064,-0.330416454682526 A0.057307047382923,0.057307047382923,0,1,1,-0.4716361764659367,-0.330416454682526 A0.057307047382923,0.057307047382923,0,1,1,-0.35702208170009064,-0.330416454682526 Z" fill="white" opacity="0.6" />
<path d="M-0.5517745494782996,-0.28483171182234146 A0.03968459454311801,0.03968459454311801,0,0,0,-0.6311437385645357,-0.28483171182234146 A0.03968459454311801,0.03968459454311801,0,0,0,-0.5517745494782996,-0.28483171182234146 L-0.545595815662304,-0.2845895804769273 A0.045360537439580295,0.045360537439580295,0,1,1,-0.6363168905414645,-0.2845895804769273 A0.045360537439580295,0.045360537439580295,0,1,1,-0.545595815662304,-0.2845895804769273 Z" fill="white" opacity="0.6" />
<path d="M-0.6385597140514837,-0.15403524435442598 A0.036312786754933324,0.036312786754933324,0,0,0,-0.7111852875613504,-0.15403524435442598 A0.036312786754933324,0.036312786754933324,0,0,0,-0.6385597140514837,-0.15403524435442598 L-0.6328380375260556,-0.15391541815685686 A0.04150947040646097,0.04150947040646097,0,1,1,-0.7158569783389777,-0.15391541815685686 A0.04150947040646097,0.04150947040646097,0,1,1,-0.6328380375260556,-0.15391541815685686 Z" fill="white" opacity="0.6" />
<path d="M-0.6167855290011246,-8.039440355343244e-17 A0.03968459454311807,0.03968459454311807,0,0,0,-0.6961547180873608,-8.525436472170144e-17 A0.03968459454311807,0.03968459454311807,0,0,0,-0.6167855290011246,-8.039440355343244e-17 L-0.6105515302855931,-8.032606142617554e-17 A0.045360537439580295,0.045360537439580295,0,1,1,-0.7012726051647535,-8.588112512447411e-17 A0.045360537439580295,0.045360537439580295,0,1,1,-0.6105515302855931,-8.032606142617554e-17 Z" fill="white" opacity="0.6" />
<path d="M-0.4670679674326438,0.1180510507538043 A0.05014748010305625,0.05014748010305625,0,0,0,-0.5673629276387563,0.1180510507538043 A0.05014748010305625,0.05014748010305625,0,0,0,-0.4670679674326438,0.1180510507538043 L-0.45935292580961673,0.11792426735978681 A0.057307047382923,0.057307047382923,0,1,1,-0.5739670205754628,0.1179242673597868 A0.057307047382923,0.057307047382923,0,1,1,-0.45935292580961673,0.11792426735978681 Z" fill="white" opacity="0.6" />
<path d="M-0.06631433823224091,0.2697555215983834 A0.06359307425272677,0.06359307425272677,0,0,0,-0.19350048673769443,0.2697555215983834 A0.06359307425272677,0.06359307425272677,0,0,0,-0.06631433823224091,0.2697555215983834 L-0.05707918740735132,0.2693882405440516 A0.07265135184388127,0.07265135184388127,0,1,1,-0.20238189109511387,0.2693882405440516 A0.07265135184388127,0.07265135184388127,0,1,1,-0.05707918740735132,0.2693882405440516 Z" fill="white" opacity="0.6" />
<path d="M-0.22830623197270722,0.06662411182496741 A0.06359307425272677,0.06359307425272677,0,0,0,-0.35549238047816073,0.0666241118249674 A0.06359307425272677,0.06359307425272677,0,0,0,-0.22830623197270722,0.06662411182496741 L-0.21885052383290643,0.06653340089571559 A0.07265135184388127,0.07265135184388127,0,1,1,-0.364153227520669,0.06653340089571558 A0.07265135184388127,0.07265135184388127,0,1,1,-0.21885052383290643,0.06653340089571559 Z" fill="white" opacity="0.6" />
<path d="M-0.4670679674326439,0.11805105075380457 A0.050147480103056224,0.050147480103056224,0,0,0,-0.5673629276387564,0.11805105075380457 A0.050147480103056224,0.050147480103056224,0,0,0,-0.4670679674326439,0.11805105075380457 L-0.459352925809617,0.11792426735978709 A0.05730704738292297,0.05730704738292297,0,1,1,-0.573967020575463,0.11792426735978707 A0.05730704738292297,0.05730704738292297,0,1,1,-0.459352925809617,0.11792426735978709 Z" fill="white" opacity="0.6" />
<path d="M-0.5517745494782996,0.28483171182234146 A0.03968459454311801,0.03968459454311801,0,0,0,-0.6311437385645357,0.28483171182234146 A0.03968459454311801,0.03968459454311801,0,0,0,-0.5517745494782996,0.28483171182234146 L-0.545595815662304,0.2845895804769273 A0.045360537439580295,0.045360537439580295,0,1,1,-0.6363168905414645,0.2845895804769273 A0.045360537439580295,0.045360537439580295,0,1,1,-0.545595815662304,0.2845895804769273 Z" fill="white" opacity="0.6" />
<path d="M-0.5048929384987138,0.4315971638005849 A0.036312786754933324,0.036312786754933324,0,0,0,-0.5775185120085804,0.4315971638005849 A0.036312786754933324,0.036312786754933324,0,0,0,-0.5048929384987138,0.4315971638005849 L-0.49927524325057676,0.431261418255878 A0.04150947040646097,0.04150947040646097,0,1,1,-0.5822941840634988,0.431261418255878 A0.04150947040646097,0.04150947040646097,0,1,1,-0.49927524325057676,0.431261418255878 Z" fill="white" opacity="0.6" />
<path d="M-0.3696178327116605,0.5132490098865659 A0.03968459454311801,0.03968459454311801,0,0,0,-0.4489870217978965,0.5132490098865659 A0.03968459454311801,0.03968459454311801,0,0,0,-0.3696178327116605,0.5132490098865659 L-0.3635939477031404,0.5128127042782429 A0.045360537439580295,0.045360537439580295,0,1,1,-0.454315022582301,0.5128127042782429 A0.045360537439580295,0.045360537439580295,0,1,1,-0.3635939477031404,0.5128127042782429 Z" fill="white" opacity="0.6" />
<path d="M-0.1800350487814984,0.4779789463459066 A0.050147480103056224,0.050147480103056224,0,0,0,-0.28033000898761085,0.4779789463459066 A0.050147480103056224,0.050147480103056224,0,0,0,-0.1800350487814984,0.4779789463459066 L-0.1726282721623741,0.4774656108635058 A0.05730704738292297,0.05730704738292297,0,1,1,-0.28724236692822,0.4774656108635058 A0.05730704738292297,0.05730704738292297,0,1,1,-0.1726282721623741,0.4774656108635058 Z" fill="white" opacity="0.6" />
<path d="M0.19350048673769432,0.2697555215983834 A0.06359307425272677,0.06359307425272677,0,0,0,0.0663143382322408,0.2697555215983834 A0.06359307425272677,0.06359307425272677,0,0,0,0.19350048673769432,0.2697555215983834 L0.20238189109511373,0.2693882405440515 A0.07265135184388127,0.07265135184388127,0,1,1,0.057079187407351184,0.2693882405440515 A0.07265135184388127,0.07265135184388127,0,1,1,0.20238189109511373,0.2693882405440515 Z" fill="white" opacity="0.6" />
<path d="M-0.06631433823224069,0.2697555215983833 A0.0635930742527268,0.0635930742527268,0,0,0,-0.19350048673769427,0.2697555215983833 A0.0635930742527268,0.0635930742527268,0,0,0,-0.06631433823224069,0.2697555215983833 L-0.057079187407351115,0.2693882405440514 A0.07265135184388126,0.07265135184388126,0,1,1,-0.20238189109511362,0.2693882405440514 A0.07265135184388126,0.07265135184388126,0,1,1,-0.057079187407351115,0.2693882405440514 Z" fill="white" opacity="0.6" />
<path d="M-0.18003504878149793,0.4779789463459067 A0.05014748010305625,0.05014748010305625,0,0,0,-0.2803300089876104,0.4779789463459067 A0.05014748010305625,0.05014748010305625,0,0,0,-0.18003504878149793,0.4779789463459067 L-0.17262827216237356,0.47746561086350575 A0.057307047382923,0.057307047382923,0,1,1,-0.2872423669282196,0.47746561086350575 A0.057307047382923,0.057307047382923,0,1,1,-0.17262827216237356,0.47746561086350575 Z" fill="white" opacity="0.6" />
<path d="M-0.10639375046236388,0.6400110469567324 A0.03968459454311807,0.03968459454311807,0,0,0,-0.18576293954860001,0.6400110469567324 A0.03968459454311807,0.03968459454311807,0,0,0,-0.10639375046236388,0.6400110469567324 L-0.10059362846384257,0.6394669827621661 A0.045360537439580295,0.045360537439580295,0,1,1,-0.19131470334300316,0.6394669827621661 A0.045360537439580295,0.045360537439580295,0,1,1,-0.10059362846384257,0.6394669827621661 Z" fill="white" opacity="0.6" />
<path d="M0.03631278675493321,0.6922281046360621 A0.036312786754933324,0.036312786754933324,0,0,0,-0.036312786754933435,0.6922281046360621 A0.036312786754933324,0.036312786754933324,0,0,0,0.03631278675493321,0.6922281046360621 L0.04150947040646086,0.6916896105922044 A0.04150947040646097,0.04150947040646097,0,1,1,-0.04150947040646108,0.6916896105922044 A0.04150947040646097,0.04150947040646097,0,1,1,0.04150947040646086,0.6916896105922044 Z" fill="white" opacity="0.6" />
<path d="M0.18576293954859993,0.6400110469567324 A0.03968459454311807,0.03968459454311807,0,0,0,0.1063937504623638,0.6400110469567324 A0.03968459454311807,0.03968459454311807,0,0,0,0.18576293954859993,0.6400110469567324 L0.19131470334300313,0.639466982762166 A0.04536053743958035,0.04536053743958035,0,1,1,0.10059362846384243,0.639466982762166 A0.04536053743958035,0.04536053743958035,0,1,1,0.19131470334300313,0.639466982762166 Z" fill="white" opacity="0.6" />
<path d="M0.2803300089876103,0.4779789463459069 A0.050147480103056224,0.050147480103056224,0,0,0,0.18003504878149781,0.4779789463459069 A0.050147480103056224,0.050147480103056224,0,0,0,0.2803300089876103,0.4779789463459069 L0.2872423669282195,0.47746561086350603 A0.05730704738292297,0.05730704738292297,0,1,1,0.1726282721623735,0.47746561086350603 A0.05730704738292297,0.05730704738292297,0,1,1,0.2872423669282195,0.47746561086350603 Z" fill="white" opacity="0.6" />
<path d="M0.35549238047816073,0.06662411182496716 A0.06359307425272677,0.06359307425272677,0,0,0,0.22830623197270722,0.06662411182496715 A0.06359307425272677,0.06359307425272677,0,0,0,0.35549238047816073,0.06662411182496716 L0.364153227520669,0.06653340089571536 A0.07265135184388127,0.07265135184388127,0,1,1,0.21885052383290643,0.06653340089571534 A0.07265135184388127,0.07265135184388127,0,1,1,0.364153227520669,0.06653340089571536 Z" fill="white" opacity="0.6" />
<path d="M0.1935004867376945,0.2697555215983831 A0.0635930742527268,0.0635930742527268,0,0,0,0.06631433823224091,0.2697555215983831 A0.0635930742527268,0.0635930742527268,0,0,0,0.1935004867376945,0.2697555215983831 L0.20238189109511395,0.2693882405440513 A0.07265135184388129,0.07265135184388129,0,1,1,0.057079187407351364,0.2693882405440513 A0.07265135184388129,0.07265135184388129,0,1,1,0.20238189109511395,0.2693882405440513 Z" fill="white" opacity="0.6" />
<path d="M0.28033000898761073,0.47797894634590654 A0.05014748010305625,0.05014748010305625,0,0,0,0.18003504878149826,0.47797894634590654 A0.05014748010305625,0.05014748010305625,0,0,0,0.28033000898761073,0.47797894634590654 L0.2872423669282199,0.4774656108635056 A0.057307047382923,0.057307047382923,0,1,1,0.17262827216237392,0.4774656108635056 A0.057307047382923,0.057307047382923,0,1,1,0.2872423669282199,0.4774656108635056 Z" fill="white" opacity="0.6" />
<path d="M0.4489870217978966,0.513249009886566 A0.03968459454311801,0.03968459454311801,0,0,0,0.3696178327116606,0.513249009886566 A0.03968459454311801,0.03968459454311801,0,0,0,0.4489870217978966,0.513249009886566 L0.45431502258230116,0.512812704278243 A0.04536053743958024,0.04536053743958024,0,1,1,0.3635939477031407,0.512812704278243 A0.04536053743958024,0.04536053743958024,0,1,1,0.45431502258230116,0.512812704278243 Z" fill="white" opacity="0.6" />
<path d="M0.5775185120085804,0.4315971638005848 A0.036312786754933324,0.036312786754933324,0,0,0,0.5048929384987138,0.4315971638005848 A0.036312786754933324,0.036312786754933324,0,0,0,0.5775185120085804,0.4315971638005848 L0.5822941840634985,0.4312614182558779 A0.04150947040646097,0.04150947040646097,0,1,1,0.49927524325057654,0.4312614182558779 A0.04150947040646097,0.04150947040646097,0,1,1,0.5822941840634985,0.4312614182558779 Z" fill="white" opacity="0.6" />
<path d="M0.6311437385645358,0.284831711822341 A0.03968459454311807,0.03968459454311807,0,0,0,0.5517745494782997,0.284831711822341 A0.03968459454311807,0.03968459454311807,0,0,0,0.6311437385645358,0.284831711822341 L0.6363168905414647,0.28458958047692684 A0.04536053743958035,0.04536053743958035,0,1,1,0.545595815662304,0.28458958047692684 A0.04536053743958035,0.04536053743958035,0,1,1,0.6363168905414647,0.28458958047692684 Z" fill="white" opacity="0.6" />
<path d="M0.5673629276387563,0.11805105075380441 A0.05014748010305625,0.05014748010305625,0,0,0,0.4670679674326438,0.11805105075380441 A0.05014748010305625,0.05014748010305625,0,0,0,0.5673629276387563,0.11805105075380441 L0.5739670205754628,0.11792426735978692 A0.057307047382923,0.057307047382923,0,1,1,0.45935292580961673,0.11792426735978691 A0.057307047382923,0.057307047382923,0,1,1,0.5739670205754628,0.11792426735978692 Z" fill="white" opacity="0.6" />
<path d="M0.2976781429701545,-0.18667661303685737 A0.06359307425272677,0.06359307425272677,0,0,0,0.17049199446470098,-0.18667661303685737 A0.06359307425272677,0.06359307425272677,0,0,0,0.2976781429701545,-0.18667661303685737 L0.3064177060069879,-0.18642244666113678 A0.07265135184388127,0.07265135184388127,0,1,1,0.16111500231922538,-0.18642244666113678 A0.07265135184388127,0.07265135184388127,0,1,1,0.3064177060069879,-0.18642244666113678 Z" fill="white" opacity="0.6" />
<path d="M0.3554923804781608,0.06662411182496734 A0.06359307425272677,0.06359307425272677,0,0,0,0.22830623197270727,0.06662411182496733 A0.06359307425272677,0.06359307425272677,0,0,0,0.3554923804781608,0.06662411182496734 L0.36415322752066903,0.06653340089571552 A0.07265135184388127,0.07265135184388127,0,1,1,0.21885052383290649,0.06653340089571551 A0.07265135184388127,0.07265135184388127,0,1,1,0.36415322752066903,0.06653340089571552 Z" fill="white" opacity="0.6" />
<path d="M0.5673629276387565,0.11805105075380432 A0.050147480103056224,0.050147480103056224,0,0,0,0.467067967432644,0.11805105075380432 A0.050147480103056224,0.050147480103056224,0,0,0,0.5673629276387565,0.11805105075380432 L0.573967020575463,0.11792426735978682 A0.05730704738292297,0.05730704738292297,0,1,1,0.459352925809617,0.11792426735978681 A0.05730704738292297,0.05730704738292297,0,1,1,0.573967020575463,0.11792426735978682 Z" fill="white" opacity="0.6" />
<path d="M0.696154718087361,-2.4987840716656153e-16 A0.03968459454311801,0.03968459454311801,0,0,0,0.6167855290011249,-2.547383683348305e-16 A0.03968459454311801,0.03968459454311801,0,0,0,0.696154718087361,-2.4987840716656153e-16 L0.7012726051647538,-2.4966598912318397e-16 A0.04536053743958024,0.04536053743958024,0,1,1,0.6105515302855933,-2.5522105282148255e-16 A0.04536053743958024,0.04536053743958024,0,1,1,0.7012726051647538,-2.4966598912318397e-16 Z" fill="white" opacity="0.6" />
<path d="M0.7111852875613505,-0.154035244354426 A0.03631278675493327,0.03631278675493327,0,0,0,0.6385597140514838,-0.154035244354426 A0.03631278675493327,0.03631278675493327,0,0,0,0.7111852875613505,-0.154035244354426 L0.7158569783389777,-0.1539154181568569 A0.04150947040646091,0.04150947040646091,0,1,1,0.6328380375260558,-0.1539154181568569 A0.04150947040646091,0.04150947040646091,0,1,1,0.7158569783389777,-0.1539154181568569 Z" fill="white" opacity="0.6" />
<path d="M0.6311437385645357,-0.28483171182234146 A0.03968459454311801,0.03968459454311801,0,0,0,0.5517745494782996,-0.28483171182234146 A0.03968459454311801,0.03968459454311801,0,0,0,0.6311437385645357,-0.28483171182234146 L0.6363168905414645,-0.2845895804769273 A0.045360537439580295,0.045360537439580295,0,1,1,0.545595815662304,-0.2845895804769273 A0.045360537439580295,0.045360537439580295,0,1,1,0.6363168905414645,-0.2845895804769273 Z" fill="white" opacity="0.6" />
<path d="M0.46492206502312194,-0.33077169385849703 A0.0501474801030562,0.0501474801030562,0,0,0,0.36462710481700955,-0.33077169385849703 A0.0501474801030562,0.0501474801030562,0,0,0,0.46492206502312194,-0.33077169385849703 L0.47163617646593714,-0.33041645468252606 A0.05730704738292294,0.05730704738292294,0,1,1,0.3570220817000912,-0.33041645468252606 A0.05730704738292294,0.05730704738292294,0,1,1,0.47163617646593714,-0.33041645468252606 Z" fill="white" opacity="0.6" />
<path d="M0.06359307425272678,-0.2994060407729867 A0.06359307425272677,0.06359307425272677,0,0,0,-0.06359307425272676,-0.2994060407729867 A0.06359307425272677,0.06359307425272677,0,0,0,0.06359307425272678,-0.2994060407729867 L0.07265135184388129,-0.29899838955726055 A0.07265135184388127,0.07265135184388127,0,1,1,-0.07265135184388126,-0.29899838955726055 A0.07265135184388127,0.07265135184388127,0,1,1,0.07265135184388129,-0.29899838955726055 Z" fill="white" opacity="0.6" />
<path d="M0.29767814297015427,-0.18667661303685734 A0.0635930742527268,0.0635930742527268,0,0,0,0.17049199446470065,-0.18667661303685734 A0.0635930742527268,0.0635930742527268,0,0,0,0.29767814297015427,-0.18667661303685734 L0.30641770600698764,-0.18642244666113675 A0.07265135184388126,0.07265135184388126,0,1,1,0.1611150023192251,-0.18642244666113675 A0.07265135184388126,0.07265135184388126,0,1,1,0.30641770600698764,-0.18642244666113675 Z" fill="white" opacity="0.6" />
<path d="M0.4649220650231216,-0.330771693858497 A0.05014748010305625,0.05014748010305625,0,0,0,0.3646271048170091,-0.330771693858497 A0.05014748010305625,0.05014748010305625,0,0,0,0.4649220650231216,-0.330771693858497 L0.4716361764659367,-0.33041645468252595 A0.057307047382923,0.057307047382923,0,1,1,0.35702208170009075,-0.33041645468252595 A0.057307047382923,0.057307047382923,0,1,1,0.4716361764659367,-0.33041645468252595 Z" fill="white" opacity="0.6" />
<path d="M0.4489870217978964,-0.513249009886566 A0.03968459454311801,0.03968459454311801,0,0,0,0.3696178327116604,-0.513249009886566 A0.03968459454311801,0.03968459454311801,0,0,0,0.4489870217978964,-0.513249009886566 L0.45431502258230094,-0.5128127042782429 A0.045360537439580295,0.045360537439580295,0,1,1,0.36359394770314035,-0.5128127042782429 A0.045360537439580295,0.045360537439580295,0,1,1,0.45431502258230094,-0.5128127042782429 Z" fill="white" opacity="0.6" />
<path d="M0.33665930511668835,-0.62367597176419 A0.036312786754933324,0.036312786754933324,0,0,0,0.2640337316068217,-0.62367597176419 A0.036312786754933324,0.036312786754933324,0,0,0,0.33665930511668835,-0.62367597176419 L0.3416223449589745,-0.6231908053951234 A0.04150947040646097,0.04150947040646097,0,1,1,0.25860340414605254,-0.6231908053951234 A0.04150947040646097,0.04150947040646097,0,1,1,0.3416223449589745,-0.6231908053951234 Z" fill="white" opacity="0.6" />
<path d="M0.1857629395486001,-0.6400110469567324 A0.03968459454311807,0.03968459454311807,0,0,0,0.10639375046236396,-0.6400110469567324 A0.03968459454311807,0.03968459454311807,0,0,0,0.1857629395486001,-0.6400110469567324 L0.19131470334300327,-0.639466982762166 A0.04536053743958035,0.04536053743958035,0,1,1,0.10059362846384257,-0.639466982762166 A0.04536053743958035,0.04536053743958035,0,1,1,0.19131470334300327,-0.639466982762166 Z" fill="white" opacity="0.6" />
<path d="M0.050147480103056495,-0.5305166064824285 A0.050147480103056224,0.050147480103056224,0,0,0,-0.050147480103055954,-0.5305166064824285 A0.050147480103056224,0.050147480103056224,0,0,0,0.050147480103056495,-0.5305166064824285 L0.05730704738292324,-0.5299468470815338 A0.05730704738292297,0.05730704738292297,0,1,1,-0.0573070473829227,-0.5299468470815338 A0.05730704738292297,0.05730704738292297,0,1,1,0.05730704738292324,-0.5299468470815338 Z" fill="white" opacity="0.6" />
</svg>