<?xml version="1.0" encoding="UTF-8"?>
<svg xmlns="http://www.w3.org/2000/svg" xmlns:xlink="http://www.w3.org/1999/xlink"
     width="400" height="400.0" viewBox="-1.05 -1.05 2.1 2.1">
<defs>
</defs>
<circle cx="0" cy="0" r="1" fill="silver" />
<path d="M0.938325628949,0.345752822197 A1.2343059512691035,1.2343059512691035,0,0,1,-0.0388719089752,-0.999244201731 A1.9515933247606898,1.9515933247606898,0,0,0,0.938325628949,0.345752822197 Z" fill="blue" />
<path d="M0.618789040181,-0.785557205907 A1.2343059512691026,1.2343059512691026,0,0,1,-0.962349789903,-0.271814057534 A1.9515933247606896,1.9515933247606896,0,0,0,0.618789040181,-0.785557205907 Z" fill="blue" />
<path d="M-0.555892970251,-0.831253875555 A1.2343059512691035,1.2343059512691035,0,0,1,-0.555892970251,0.831253875555 A1.9515933247606891,1.9515933247606891,0,0,0,-0.555892970251,-0.831253875555 Z" fill="blue" />
<path d="M-0.962349789903,0.271814057534 A1.234305951269103,1.234305951269103,0,0,1,0.618789040181,0.785557205907 A1.9515933247606896,1.9515933247606896,0,0,0,-0.962349789903,0.271814057534 Z" fill="blue" />
<path d="M-0.0388719089752,0.999244201731 A1.2343059512691033,1.2343059512691033,0,0,1,0.938325628949,-0.345752822197 A1.9515933247606911,1.9515933247606911,0,0,0,-0.0388719089752,0.999244201731 Z" fill="blue" />
<path d="M0.397975426785,2.22044604925e-16 A1.4953487812212216,1.4953487812212216,0,0,1,0.12298117022,-0.378497122969 A1.4953487812212205,1.4953487812212205,0,0,1,-0.321968883613,-0.233924086639 A1.4953487812212214,1.4953487812212214,0,0,1,-0.321968883613,0.233924086639 A1.4953487812212207,1.4953487812212207,0,0,1,0.12298117022,0.378497122969 A1.4953487812212212,1.4953487812212212,0,0,1,0.397975426785,4.4408920985e-16 L0.48302071233,8.881784197e-16 A1.9515933247606911,1.9515933247606911,0,0,0,0.149261608745,0.459379995967 A1.9515933247606896,1.9515933247606896,0,0,0,-0.39077196491,0.283912451259 A1.9515933247606891,1.9515933247606891,0,0,0,-0.39077196491,-0.283912451259 A1.9515933247606896,1.9515933247606896,0,0,0,0.149261608745,-0.459379995967 A1.9515933247606898,1.9515933247606898,0,0,0,0.48302071233,-4.4408920985e-16 Z" fill="green" />
<path d="M0.397975426785,2.22044604925e-16 A1.4953487812212214,1.4953487812212214,0,0,1,0.12298117022,-0.378497122969 A1.495348781221221,1.495348781221221,0,0,1,-0.321968883613,-0.233924086639 A1.495348781221221,1.495348781221221,0,0,1,-0.321968883613,0.233924086639 A1.495348781221221,1.495348781221221,0,0,1,0.12298117022,0.378497122969 A1.4953487812212205,1.4953487812212205,0,0,1,0.397975426785,2.22044604925e-16 Z" fill="black" opacity="0.3" />
<circle cx="0.39797542678479053" cy="-0.0" r="0.05" stroke-width="0.01" stroke="#ccccff" fill="none" opacity="0.6" />
<circle cx="0.12298117022012292" cy="-0.37849712296901983" r="0.05" stroke-width="0.01" stroke="#ccccff" fill="none" opacity="0.6" />
<circle cx="-0.32196888361251813" cy="-0.23392408663890282" r="0.05" stroke-width="0.01" stroke="#ccccff" fill="none" opacity="0.6" />
<circle cx="-0.3219688836125182" cy="0.23392408663890274" r="0.05" stroke-width="0.01" stroke="#ccccff" fill="none" opacity="0.6" />
<circle cx="0.12298117022012284" cy="0.3784971229690199" r="0.05" stroke-width="0.01" stroke="#ccccff" fill="none" opacity="0.6" />
</svg>