<?xml version="1.0" encoding="UTF-8"?>
<svg xmlns="http://www.w3.org/2000/svg" xmlns:xlink="http://www.w3.org/1999/xlink"
     width="400" height="400.0" viewBox="-1.05 -1.05 2.1 2.1">
<defs>
</defs>
<circle cx="0" cy="0" r="1" fill="silver" />
<path d="M0.164765421047,-0.986332781584 A1.62776477623532,1.62776477623532,0,0,0,0.912407764349,0.40928238608 A1.0963596587240623,1.0963596587240623,0,0,1,0.164765421047,-0.986332781584 Z" fill="blue" />
<path d="M0.937644617363,0.347595413564 A2.563971299428202,2.563971299428202,0,0,0,-0.800327549094,0.599563019341 A1.453932088443337,1.453932088443337,0,0,1,0.937644617363,0.347595413564 Z" fill="blue" />
<path d="M-0.442994829324,0.896524166541 A5.612538284341996,5.612538284341996,0,0,1,0.495277515572,-0.868734817173 A8.361374370661224,8.361374370661224,0,0,1,-0.442994829324,0.896524166541 Z" fill="blue" />
<path d="M0.213245197416,-0.364045682389 A1.2956274688086298,1.2956274688086298,0,0,0,0.677094326931,0.27237914213 A1.8349328962071214,1.8349328962071214,0,0,0,-0.133045006715,0.284967733298 A33.76373921055451,33.76373921055451,0,0,1,0.213245197416,-0.364045682389 Z" stroke-width="0.05" stroke="red" fill="none" />
<path d="M0.20912648736,-0.311706938329 A1.2182918337961057,1.2182918337961057,0,0,0,0.622616279753,0.247848263209 A1.6827738488744812,1.6827738488744812,0,0,0,-0.0893181180225,0.251300401358 A49.07304521682221,49.07304521682221,0,0,0,0.20912648736,-0.311706938329 L0.218290041003,-0.413850476765 A12.572454395113981,12.572454395113981,0,0,0,-0.174755752896,0.318235975905 A2.022898534071281,2.022898534071281,0,0,1,0.723141457635,0.29276089495 A1.3871460112008749,1.3871460112008749,0,0,1,0.218290041003,-0.413850476765 Z" fill="green" />
<path d="M0.213245197416,-0.364045682389 A1.2956274688086298,1.2956274688086298,0,0,0,0.677094326931,0.27237914213 A1.8349328962071214,1.8349328962071214,0,0,0,-0.133045006715,0.284967733298 A33.76373921055451,33.76373921055451,0,0,1,0.213245197416,-0.364045682389 Z" fill="black" opacity="0.5" />
<circle cx="0.2132451974160381" cy="-0.3640456823887541" r="0.05" stroke-width="0.01" stroke="#ccccff" fill="none" opacity="0.6" />
<circle cx="0.6770943269306975" cy="0.27237914213001546" r="0.05" stroke-width="0.01" stroke="#ccccff" fill="none" opacity="0.6" />
<circle cx="-0.1330450067152691" cy="0.28496773329770164" r="0.05" stroke-width="0.01" stroke="#ccccff" fill="none" opacity="0.6" />
</svg>