<?xml version="1.0" encoding="UTF-8"?>
<svg xmlns="http://www.w3.org/2000/svg" xmlns:xlink="http://www.w3.org/1999/xlink"
     width="600" height="600.0" viewBox="-1.0 -1.0 2 2">
<defs>
</defs>
<circle cx="0" cy="0" r="1" fill="silver" />
<path d="M0.017314738749194824,0.00999666907780039 A50.00666648889566,50.00666648889566,0,0,0,0.3776866479022681,0.008573364465142674 A2.1553511172296087,2.1553511172296087,0,0,0,0.6347863763025814,0.1326604293280853 A0.6611668446159663,0.6611668446159663,0,0,0,0.765330887941717,0.2590069030750321 A0.2821027885781439,0.2821027885781439,0,0,0,0.8275730441448766,0.3480834534444285 A0.11866620028536895,0.11866620028536895,0,0,1,0.8302931336189541,0.3453542844603235 A0.28532196423631456,0.28532196423631456,0,0,1,0.773566544673755,0.26082928500128155 A1.087238959427889,1.087238959427889,0,0,1,0.8683533508753811,0.27567004701479414 A0.0959407967839897,0.0959407967839897,0,0,1,0.8690884256979662,0.2723452960706469 A1.0419318444416468,1.0419318444416468,0,0,0,0.7694928858105046,0.25349290497868227 A0.6791250488792671,0.6791250488792671,0,0,1,0.6489176725528463,0.13225747909471808 A1.4214351632005484,1.4214351632005484,0,0,1,0.814168287485741,0.11980493712105522 A0.5201320809266584,0.5201320809266584,0,0,0,0.9017543487643473,0.15834092943850753 A0.09135106252531652,0.09135106252531652,0,0,1,0.9028313664336394,0.1553003997016885 A0.5311819995954714,0.5311819995954714,0,0,1,0.8213431208571312,0.11658745644010354 A0.31890268207315187,0.31890268207315187,0,0,1,0.9075732645569276,0.08278170605967078 A0.10020913249580583,0.10020913249580583,0,0,1,0.9068612677018144,0.07944925634540173 A0.3148864916810967,0.3148864916810967,0,0,0,0.8141643599728261,0.1133338385365083 A1.3449736445218012,1.3449736445218012,0,0,0,0.6392467738744466,0.12199559139908822 A2.3586749124197697,2.3586749124197697,0,0,1,0.39692706457157834,4.440892098500626e-16 A2.358674912419773,2.358674912419773,0,0,1,0.6392467738744482,-0.121995591399088 A1.3449736445218001,1.3449736445218001,0,0,0,0.814164359972825,-0.11333383853650858 A0.3148864916810949,0.3148864916810949,0,0,0,0.9068612677018137,-0.07944925634540206 A0.10020913249580564,0.10020913249580564,0,0,1,0.9075732645569271,-0.0827817060596711 A0.3189026820731499,0.3189026820731499,0,0,1,0.8213431208571313,-0.11658745644010338 A0.5311819995954716,0.5311819995954716,0,0,1,0.9028313664336389,-0.15530039970168796 A0.09135106252531666,0.09135106252531666,0,0,1,0.9017543487643462,-0.15834092943850664 A0.5201320809266585,0.5201320809266585,0,0,0,0.8141682874857439,-0.11980493712105639 A1.4214351632005473,1.4214351632005473,0,0,1,0.6489176725528465,-0.1322574790947182 A0.6791250488792668,0.6791250488792668,0,0,1,0.7694928858105048,-0.25349290497868227 A1.041931844441639,1.041931844441639,0,0,0,0.869088425697965,-0.27234529607064606 A0.09594079678398969,0.09594079678398969,0,0,1,0.8683533508753789,-0.2756700470147934 A1.0872389594278808,1.0872389594278808,0,0,1,0.7735665446737554,-0.26082928500128144 A0.28532196423631445,0.28532196423631445,0,0,1,0.8302931336189555,-0.3453542844603234 A0.11866620028536899,0.11866620028536899,0,0,1,0.8275730441448782,-0.34808345344442837 A0.28210278857814375,0.28210278857814375,0,0,0,0.7653308879417176,-0.2590069030750326 A0.6611668446159659,0.6611668446159659,0,0,0,0.634786376302582,-0.13266042932808553 A2.155351117229614,2.155351117229614,0,0,0,0.37768664790274875,-0.008573364465155109 A50.00666648889628,50.00666648889628,0,0,0,0.017314738749211123,-0.00999666907780039 A50.00666648889589,50.00666648889589,0,0,0,0.19626807537384394,-0.32279954952097256 A2.1553511172296087,2.1553511172296087,0,0,0,0.4322804900263637,-0.48341091319026175 A0.6611668446159646,0.6611668446159646,0,0,0,0.6069720017893696,-0.5332925397209118 A0.28210278857814464,0.28210278857814464,0,0,0,0.7152356353923323,-0.5426575529944699 A0.11866620028536867,0.11866620028536867,0,0,1,0.7142321504579154,-0.5463778040716398 A0.2853219642363156,0.2853219642363156,0,0,1,0.6126680591989179,-0.5395136367045806 A1.087238959427883,1.087238959427883,0,0,1,0.6729139392149526,-0.6141810378120248 A0.09594079678398967,0.09594079678398967,0,0,1,0.6704021578473573,-0.6164800067541402 A1.041931844441642,1.041931844441642,0,0,0,0.6042777382959047,-0.5396539346539534 A0.6791250488792653,0.6791250488792653,0,0,1,0.43899717301293895,-0.4958504498480778 A1.4214351632005493,1.4214351632005493,0,0,1,0.5108382627885024,-0.6451879513577958 A0.5201320809266583,0.5201320809266583,0,0,0,0.5880044417347596,-0.7017717092837628 A0.09135106252531679,0.09135106252531679,0,0,1,0.5859097745763591,-0.7042246988141045 A0.5311819995954715,0.5311819995954715,0,0,1,0.5116392594683069,-0.6530102796658163 A0.31890268207315176,0.31890268207315176,0,0,1,0.5254776926947551,-0.7445906498720385 A0.10020913249580579,0.10020913249580579,0,0,1,0.5222357081578073,-0.7456402673652304 A0.3148864916810965,0.3148864916810965,0,0,0,0.5052321632674331,-0.6484200993241098 A1.3449736445218021,1.3449736445218021,0,0,0,0.42527466823854065,-0.49260614976297407 A2.358674912419768,2.358674912419768,0,0,1,0.1984635322857896,-0.3437489213685727 A2.3586749124197732,2.3586749124197732,0,0,1,0.21397210563590718,-0.6146017411620601 A1.3449736445217972,1.3449736445217972,0,0,0,0.30893219670539296,-0.7617539378606202 A0.31488649168109595,0.31488649168109595,0,0,0,0.38462555954400723,-0.825089523710632 A0.1002091324958056,0.1002091324958056,0,0,1,0.3820955718621729,-0.8273723559317093 A0.3189026820731514,0.3189026820731514,0,0,1,0.30970386138882466,-0.7695977361059197 A0.5311819995954684,0.5311819995954684,0,0,1,0.3169215918572804,-0.8595250985157934 A0.09135106252531655,0.09135106252531655,0,0,1,0.313749907029587,-0.8601126387222705 A0.5201320809266556,0.5201320809266556,0,0,0,0.3033300246972396,-0.7649928884788506 A1.4214351632005446,1.4214351632005446,0,0,1,0.20992049953990877,-0.6281079289427959 A0.6791250488792671,0.6791250488792671,0,0,1,0.1652151475145992,-0.7931468396326363 A1.041931844441638,1.041931844441638,0,0,0,0.19868626785060894,-0.8888253028247852 A0.09594079678398974,0.09594079678398974,0,0,1,0.19543941166042805,-0.889851084826817 A1.087238959427879,1.087238959427879,0,0,1,0.1608984854748362,-0.8003429217058622 A0.28532196423631573,0.28532196423631573,0,0,1,0.11606098316103963,-0.8917320885319644 A0.1186662002853689,0.1186662002853689,0,0,1,0.11233740875254553,-0.8907410064388993 A0.28210278857814486,0.28210278857814486,0,0,0,0.15835888615234733,-0.7922994427959439 A0.6611668446159662,0.6611668446159662,0,0,0,0.20250588627621957,-0.6160713425183455 A2.1553511172296127,2.1553511172296127,0,0,0,0.1814185725286479,-0.3313729139865311 A50.006666488895895,50.006666488895895,0,0,0,0.0,-0.01999333815559723 A50.00666648889595,50.00666648889595,0,0,0,-0.18141857252866345,-0.331372913986538 A2.1553511172296096,2.1553511172296096,0,0,0,-0.20250588627621946,-0.6160713425183492 A0.6611668446159664,0.6611668446159664,0,0,0,-0.15835888615234706,-0.7922994427959438 A0.28210278857814464,0.28210278857814464,0,0,0,-0.112337408752545,-0.8907410064388988 A0.11866620028536927,0.11866620028536927,0,0,1,-0.11606098316103919,-0.891732088531964 A0.28532196423631556,0.28532196423631556,0,0,1,-0.16089848547483573,-0.8003429217058627 A1.0872389594278868,1.0872389594278868,0,0,1,-0.19543941166042744,-0.8898510848268166 A0.09594079678398984,0.09594079678398984,0,0,1,-0.1986862678506089,-0.8888253028247862 A1.0419318444416457,1.0419318444416457,0,0,0,-0.1652151475145991,-0.7931468396326362 A0.6791250488792663,0.6791250488792663,0,0,1,-0.209920499539908,-0.6281079289427963 A1.4214351632005435,1.4214351632005435,0,0,1,-0.3033300246972386,-0.7649928884788508 A0.5201320809266541,0.5201320809266541,0,0,0,-0.31374990702958616,-0.860112638722271 A0.0913510625253165,0.0913510625253165,0,0,1,-0.31692159185727997,-0.859525098515794 A0.5311819995954667,0.5311819995954667,0,0,1,-0.30970386138882433,-0.7695977361059197 A0.3189026820731511,0.3189026820731511,0,0,1,-0.38209557186217286,-0.8273723559317101 A0.10020913249580568,0.10020913249580568,0,0,1,-0.38462555954400696,-0.8250895237106328 A0.3148864916810958,0.3148864916810958,0,0,0,-0.3089321967053935,-0.7617539378606206 A1.3449736445217968,1.3449736445217968,0,0,0,-0.21397210563590685,-0.6146017411620613 A2.3586749124197683,2.3586749124197683,0,0,1,-0.19846353228578906,-0.34374892136857227 A2.3586749124197732,2.3586749124197732,0,0,1,-0.4252746682385389,-0.4926061497629737 A1.3449736445218003,1.3449736445218003,0,0,0,-0.5052321632674333,-0.6484200993241115 A0.3148864916810959,0.3148864916810959,0,0,0,-0.5222357081578068,-0.7456402673652303 A0.10020913249580596,0.10020913249580596,0,0,1,-0.5254776926947545,-0.7445906498720384 A0.3189026820731509,0.3189026820731509,0,0,1,-0.5116392594683066,-0.653010279665817 A0.5311819995954705,0.5311819995954705,0,0,1,-0.5859097745763585,-0.7042246988141057 A0.09135106252531718,0.09135106252531718,0,0,1,-0.588004441734759,-0.7017717092837638 A0.5201320809266577,0.5201320809266577,0,0,0,-0.5108382627885014,-0.645187951357797 A1.4214351632005473,1.4214351632005473,0,0,1,-0.43899717301293784,-0.49585044984807736 A0.679125048879267,0.679125048879267,0,0,1,-0.6042777382959039,-0.5396539346539537 A1.0419318444416479,1.0419318444416479,0,0,0,-0.6704021578473564,-0.6164800067541399 A0.09594079678399008,0.09594079678399008,0,0,1,-0.6729139392149508,-0.6141810378120237 A1.0872389594278895,1.0872389594278895,0,0,1,-0.6126680591989184,-0.5395136367045809 A0.2853219642363155,0.2853219642363155,0,0,1,-0.714232150457915,-0.5463778040716407 A0.1186662002853688,0.1186662002853688,0,0,1,-0.7152356353923318,-0.5426575529944704 A0.282102788578145,0.282102788578145,0,0,0,-0.6069720017893699,-0.5332925397209127 A0.6611668446159664,0.6611668446159664,0,0,0,-0.43228049002636176,-0.4834109131902613 A2.155351117229614,2.155351117229614,0,0,0,-0.19626807537372104,-0.32279954952116885 A50.00666648889651,50.00666648889651,0,0,0,-0.017314738749192315,-0.009996669077796838 A50.00666648889566,50.00666648889566,0,0,0,-0.377686647902268,-0.008573364465142674 A2.1553511172296096,2.1553511172296096,0,0,0,-0.6347863763025842,-0.1326604293280862 A0.6611668446159661,0.6611668446159661,0,0,0,-0.7653308879417167,-0.25900690307503205 A0.282102788578144,0.282102788578144,0,0,0,-0.827573044144877,-0.3480834534444289 A0.11866620028536884,0.11866620028536884,0,0,1,-0.8302931336189541,-0.3453542844603239 A0.28532196423631484,0.28532196423631484,0,0,1,-0.773566544673755,-0.2608292850012821 A1.0872389594278866,1.0872389594278866,0,0,1,-0.8683533508753808,-0.2756700470147946 A0.09594079678398994,0.09594079678398994,0,0,1,-0.8690884256979657,-0.27234529607064656 A1.0419318444416457,1.0419318444416457,0,0,0,-0.7694928858105048,-0.25349290497868204 A0.6791250488792664,0.6791250488792664,0,0,1,-0.6489176725528464,-0.13225747909471797 A1.4214351632005477,1.4214351632005477,0,0,1,-0.8141682874857417,-0.11980493712105544 A0.5201320809266579,0.5201320809266579,0,0,0,-0.9017543487643461,-0.1583409294385072 A0.09135106252531673,0.09135106252531673,0,0,1,-0.9028313664336391,-0.1553003997016886 A0.5311819995954711,0.5311819995954711,0,0,1,-0.8213431208571312,-0.11658745644010371 A0.31890268207315164,0.31890268207315164,0,0,1,-0.9075732645569274,-0.08278170605967095 A0.10020913249580601,0.10020913249580601,0,0,1,-0.9068612677018142,-0.07944925634540193 A0.3148864916810963,0.3148864916810963,0,0,0,-0.814164359972825,-0.11333383853650897 A1.3449736445218012,1.3449736445218012,0,0,0,-0.639246773874445,-0.12199559139908844 A2.3586749124197683,2.3586749124197683,0,0,1,-0.39692706457157567,4.440892098500626e-16 A2.358674912419768,2.358674912419768,0,0,1,-0.6392467738744468,0.12199559139908844 A1.3449736445218,1.3449736445218,0,0,0,-0.8141643599728277,0.11333383853650858 A0.31488649168109534,0.31488649168109534,0,0,0,-0.9068612677018136,0.07944925634540212 A0.10020913249580589,0.10020913249580589,0,0,1,-0.9075732645569271,0.08278170605967097 A0.31890268207315053,0.31890268207315053,0,0,1,-0.8213431208571318,0.11658745644010321 A0.5311819995954713,0.5311819995954713,0,0,1,-0.9028313664336386,0.15530039970168752 A0.09135106252531687,0.09135106252531687,0,0,1,-0.9017543487643463,0.15834092943850653 A0.5201320809266583,0.5201320809266583,0,0,0,-0.8141682874857425,0.11980493712105544 A1.4214351632005466,1.4214351632005466,0,0,1,-0.6489176725528466,0.1322574790947182 A0.6791250488792675,0.6791250488792675,0,0,1,-0.769492885810504,0.25349290497868127 A1.04193184444164,1.04193184444164,0,0,0,-0.8690884256979672,0.2723452960706465 A0.09594079678398969,0.09594079678398969,0,0,1,-0.8683533508753789,0.27567004701479325 A1.087238959427881,1.087238959427881,0,0,1,-0.7735665446737552,0.26082928500128144 A0.28532196423631534,0.28532196423631534,0,0,1,-0.830293133618955,0.34535428446032324 A0.11866620028536877,0.11866620028536877,0,0,1,-0.8275730441448776,0.34808345344442837 A0.2821027885781446,0.2821027885781446,0,0,0,-0.7653308879417171,0.25900690307503177 A0.6611668446159664,0.6611668446159664,0,0,0,-0.6347863763025833,0.13266042932808664 A2.155351117229609,2.155351117229609,0,0,0,-0.37768664790237505,0.0085733644649435 A50.00666648889566,50.00666648889566,0,0,0,-0.017314738749210908,0.00999666907780039 A50.006666488895874,50.006666488895874,0,0,0,-0.19626807537383684,0.32279954952095125 A2.1553511172296065,2.1553511172296065,0,0,0,-0.43228049002636504,0.48341091319026175 A0.6611668446159665,0.6611668446159665,0,0,0,-0.6069720017893714,0.5332925397209121 A0.2821027885781438,0.2821027885781438,0,0,0,-0.7152356353923319,0.5426575529944697 A0.11866620028536876,0.11866620028536876,0,0,1,-0.7142321504579152,0.5463778040716396 A0.2853219642363149,0.2853219642363149,0,0,1,-0.6126680591989191,0.5395136367045803 A1.0872389594278933,1.0872389594278933,0,0,1,-0.672913939214951,0.6141810378120225 A0.0959407967839898,0.0959407967839898,0,0,1,-0.6704021578473575,0.6164800067541395 A1.041931844441651,1.041931844441651,0,0,0,-0.6042777382959048,0.5396539346539528 A0.6791250488792672,0.6791250488792672,0,0,1,-0.43899717301293917,0.49585044984807747 A1.421435163200548,1.421435163200548,0,0,1,-0.5108382627885031,0.6451879513577964 A0.5201320809266562,0.5201320809266562,0,0,0,-0.5880044417347603,0.701771709283763 A0.09135106252531687,0.09135106252531687,0,0,1,-0.5859097745763593,0.7042246988141044 A0.5311819995954691,0.5311819995954691,0,0,1,-0.511639259468307,0.6530102796658162 A0.31890268207315103,0.31890268207315103,0,0,1,-0.5254776926947552,0.7445906498720389 A0.1002091324958059,0.1002091324958059,0,0,1,-0.5222357081578077,0.7456402673652305 A0.31488649168109584,0.31488649168109584,0,0,0,-0.5052321632674335,0.6484200993241087 A1.3449736445218008,1.3449736445218008,0,0,0,-0.4252746682385413,0.49260614976297384 A2.3586749124197657,2.3586749124197657,0,0,1,-0.1984635322857896,0.34374892136857227 A2.358674912419771,2.358674912419771,0,0,1,-0.21397210563590718,0.6146017411620612 A1.3449736445217986,1.3449736445217986,0,0,0,-0.30893219670539274,0.761753937860619 A0.3148864916810958,0.3148864916810958,0,0,0,-0.38462555954400757,0.8250895237106326 A0.10020913249580575,0.10020913249580575,0,0,1,-0.382095571862173,0.8273723559317097 A0.3189026820731508,0.3189026820731508,0,0,1,-0.30970386138882533,0.7695977361059201 A0.5311819995954687,0.5311819995954687,0,0,1,-0.3169215918572813,0.8595250985157937 A0.09135106252531645,0.09135106252531645,0,0,1,-0.31374990702958744,0.8601126387222705 A0.5201320809266562,0.5201320809266562,0,0,0,-0.30333002469724,0.7649928884788522 A1.4214351632005453,1.4214351632005453,0,0,1,-0.20992049953990788,0.6281079289427949 A0.6791250488792668,0.6791250488792668,0,0,1,-0.16521514751459943,0.7931468396326354 A1.0419318444416368,1.0419318444416368,0,0,0,-0.19868626785060906,0.8888253028247843 A0.09594079678398965,0.09594079678398965,0,0,1,-0.19543941166042827,0.8898510848268167 A1.087238959427878,1.087238959427878,0,0,1,-0.16089848547483654,0.8003429217058624 A0.2853219642363149,0.2853219642363149,0,0,1,-0.11606098316104024,0.8917320885319637 A0.11866620028536888,0.11866620028536888,0,0,1,-0.11233740875254605,0.8907410064388985 A0.282102788578144,0.282102788578144,0,0,0,-0.15835888615234747,0.792299442795944 A0.6611668446159663,0.6611668446159663,0,0,0,-0.20250588627621924,0.6160713425183466 A2.155351117229612,2.155351117229612,0,0,0,-0.18141857252864746,0.33137291398653107 A50.00666648889615,50.00666648889615,0,0,0,-2.1316282072803006e-14,0.019993338155618545 A50.006666488895625,50.006666488895625,0,0,0,0.18141857252841476,0.33137291398612945 A2.1553511172296127,2.1553511172296127,0,0,0,0.20250588627621902,0.6160713425183455 A0.6611668446159663,0.6611668446159663,0,0,0,0.15835888615234683,0.7922994427959442 A0.282102788578145,0.282102788578145,0,0,0,0.11233740875254511,0.8907410064388986 A0.11866620028536908,0.11866620028536908,0,0,1,0.11606098316103926,0.8917320885319637 A0.28532196423631584,0.28532196423631584,0,0,1,0.1608984854748361,0.8003429217058625 A1.087238959427888,1.087238959427888,0,0,1,0.19543941166042766,0.8898510848268169 A0.09594079678399005,0.09594079678399005,0,0,1,0.198686267850609,0.8888253028247863 A1.0419318444416463,1.0419318444416463,0,0,0,0.1652151475145991,0.7931468396326358 A0.6791250488792666,0.6791250488792666,0,0,1,0.209920499539908,0.6281079289427958 A1.4214351632005462,1.4214351632005462,0,0,1,0.30333002469723924,0.7649928884788516 A0.5201320809266576,0.5201320809266576,0,0,0,0.31374990702958705,0.8601126387222711 A0.09135106252531645,0.09135106252531645,0,0,1,0.31692159185728025,0.8595250985157936 A0.531181999595471,0.531181999595471,0,0,1,0.30970386138882444,0.7695977361059199 A0.3189026820731527,0.3189026820731527,0,0,1,0.38209557186217236,0.8273723559317097 A0.10020913249580599,0.10020913249580599,0,0,1,0.38462555954400685,0.8250895237106326 A0.3148864916810975,0.3148864916810975,0,0,0,0.30893219670539296,0.7617539378606202 A1.3449736445217997,1.3449736445217997,0,0,0,0.21397210563590852,0.6146017411620637 A2.3586749124197737,2.3586749124197737,0,0,1,0.19846353228578906,0.3437489213685725 A2.358674912419772,2.358674912419772,0,0,1,0.4252746682385422,0.49260614976297523 A1.3449736445218003,1.3449736445218003,0,0,0,0.5052321632674333,0.6484200993241115 A0.3148864916810959,0.3148864916810959,0,0,0,0.5222357081578065,0.7456402673652298 A0.10020913249580601,0.10020913249580601,0,0,1,0.5254776926947542,0.744590649872038 A0.318902682073151,0.318902682073151,0,0,1,0.5116392594683068,0.6530102796658164 A0.5311819995954716,0.5311819995954716,0,0,1,0.5859097745763587,0.7042246988141048 A0.09135106252531668,0.09135106252531668,0,0,1,0.5880044417347594,0.7017717092837631 A0.5201320809266585,0.5201320809266585,0,0,0,0.5108382627885024,0.6451879513577967 A1.421435163200547,1.421435163200547,0,0,1,0.43899717301293784,0.4958504498480772 A0.6791250488792663,0.6791250488792663,0,0,1,0.6042777382959051,0.5396539346539538 A1.0419318444416317,1.0419318444416317,0,0,0,0.6704021578473567,0.6164800067541397 A0.09594079678399023,0.09594079678399023,0,0,1,0.672913939214951,0.6141810378120233 A1.0872389594278717,1.0872389594278717,0,0,1,0.6126680591989196,0.5395136367045814 A0.285321964236315,0.285321964236315,0,0,1,0.7142321504579148,0.5463778040716403 A0.11866620028536873,0.11866620028536873,0,0,1,0.7152356353923316,0.5426575529944702 A0.28210278857814425,0.28210278857814425,0,0,0,0.6069720017893698,0.5332925397209123 A0.661166844615966,0.661166844615966,0,0,0,0.4322804900263625,0.4834109131902615 A2.1553511172296105,2.1553511172296105,0,0,0,0.1962680753740924,0.3227995495213871 A50.00666648889645,50.00666648889645,0,0,0,0.01731473874919942,0.009996669077789733 L0.06891674696768213,0.03978910241346956 A12.52665529581952,12.52665529581952,0,0,1,0.21549288503362973,0.3042936788699828 A1.9140017205463289,1.9140017205463289,0,0,1,0.43968506301019983,0.4668495439272513 A0.6378184402019922,0.6378184402019922,0,0,1,0.6088809587555635,0.5225376459809616 A0.2782343144249585,0.2782343144249585,0,0,1,0.7224380957324286,0.5389874563570071 A0.11987687382241004,0.11987687382241004,0,0,0,0.7183351139707107,0.5530401429850327 A0.2911688384849954,0.2911688384849954,0,0,0,0.629988117117312,0.5473790887467286 A1.166702268732728,1.166702268732728,0,0,0,0.6798732533562407,0.6147784255814793 A0.09678654007940432,0.09678654007940432,0,0,0,0.670416756834251,0.6235185524541332 A0.983500559030703,0.983500559030703,0,0,1,0.5980764917562301,0.5483031450067656 A0.7101340915752604,0.7101340915752604,0,0,0,0.4643978590695773,0.5157254219293285 A1.5588050084973455,1.5588050084973455,0,0,0,0.518234312068008,0.6383942408995001 A0.5058864350456904,0.5058864350456904,0,0,1,0.594693508298542,0.70156887401199 A0.09213079705731039,0.09213079705731039,0,0,0,0.5866836852101258,0.7107737560030427 A0.5503369254113454,0.5503369254113454,0,0,0,0.5206767315346732,0.6682732456656817 A0.3261070140766838,0.3261070140766838,0,0,0,0.5315429008727313,0.7479536974909244 A0.10111858015037668,0.10111858015037668,0,0,0,0.5193211758242653,0.752132210110618 A0.3099681812199738,0.3099681812199738,0,0,1,0.4955281964088155,0.6514368645452745 A1.2481642713415897,1.2481642713415897,0,0,1,0.4114733931763508,0.5040180703729222 A2.7562937555502662,2.7562937555502662,0,0,0,0.2230204149183277,0.38628268976363467 A2.756293755550271,2.756293755550271,0,0,0,0.23075575632118772,0.6083554466585599 A1.248164271341589,1.248164271341589,0,0,1,0.3163967754534833,0.754858438654157 A0.3099681812199753,0.3099681812199753,0,0,1,0.3917050130481976,0.8258114360423289 A0.1011185801503766,0.1011185801503766,0,0,0,0.38197545244527625,0.8343065041025219 A0.3261070140766856,0.3261070140766856,0,0,0,0.3184032416486229,0.785055899501318 A0.5503369254113444,0.5503369254113444,0,0,0,0.32220628643685445,0.8634698533793641 A0.0921307970573101,0.0921307970573101,0,0,0,0.3102297132495565,0.8658041226582243 A0.5058864350456898,0.5058864350456898,0,0,1,0.293748474214645,0.7680011998133974 A1.5588050084973442,1.5588050084973442,0,0,0,0.21443238723345837,0.6600430543820236 A0.7101340915752606,0.7101340915752606,0,0,0,0.17580620667264724,0.7921010077705527 A0.9835005590307162,0.9835005590307162,0,0,1,0.20477452773905402,0.8923572187683035 A0.09678654007940408,0.09678654007940408,0,0,0,0.19247710757404168,0.8961767215508188 A1.1667022687327464,1.1667022687327464,0,0,0,0.15905013779638766,0.8192752578792835 A0.2911688384849964,0.2911688384849964,0,0,0,0.1197792561522607,0.8986165286215412 A0.11987687382241023,0.11987687382241023,0,0,0,0.10555778166010954,0.89514347174444 A0.27823431442495905,0.27823431442495905,0,0,1,0.1480903964754505,0.7885752011534235 A0.6378184402019925,0.6378184402019925,0,0,1,0.18446103328107877,0.614203206195019 A1.9140017205463304,1.9140017205463304,0,0,1,0.15577961359561865,0.33876915220892223 A12.52665529581947,12.52665529581947,0,0,1,-1.7763568394002505e-15,0.07957820482692757 A12.526655295819515,12.526655295819515,0,0,1,-0.15577961359563197,0.33876915220894244 A1.9140017205463296,1.9140017205463296,0,0,1,-0.1844610332810792,0.6142032061950204 A0.6378184402019926,0.6378184402019926,0,0,1,-0.1480903964754512,0.7885752011534235 A0.2782343144249582,0.2782343144249582,0,0,1,-0.10555778166011054,0.895143471744441 A0.11987687382241022,0.11987687382241022,0,0,0,-0.11977925615226152,0.8986165286215418 A0.29116883848499525,0.29116883848499525,0,0,0,-0.15905013779638824,0.8192752578792825 A1.1667022687327346,1.1667022687327346,0,0,0,-0.1924771075740428,0.8961767215508188 A0.0967865400794037,0.0967865400794037,0,0,0,-0.20477452773905447,0.8923572187683025 A0.9835005590307077,0.9835005590307077,0,0,1,-0.17580620667264757,0.792101007770553 A0.7101340915752608,0.7101340915752608,0,0,0,-0.21443238723345848,0.6600430543820235 A1.558805008497343,1.558805008497343,0,0,0,-0.2937484742146452,0.7680011998133953 A0.5058864350456882,0.5058864350456882,0,0,1,-0.3102297132495571,0.8658041226582245 A0.09213079705731007,0.09213079705731007,0,0,0,-0.322206286436855,0.8634698533793631 A0.5503369254113424,0.5503369254113424,0,0,0,-0.31840324164862355,0.7850558995013182 A0.3261070140766834,0.3261070140766834,0,0,0,-0.3819754524452763,0.8343065041025215 A0.10111858015037628,0.10111858015037628,0,0,0,-0.3917050130481977,0.8258114360423281 A0.3099681812199737,0.3099681812199737,0,0,1,-0.3163967754534842,0.7548584386541575 A1.248164271341588,1.248164271341588,0,0,1,-0.2307557563211884,0.6083554466585629 A2.756293755550268,2.756293755550268,0,0,0,-0.22302041491832725,0.38628268976363533 A2.7562937555502582,2.7562937555502582,0,0,0,-0.4114733931763519,0.5040180703729229 A1.24816427134159,1.24816427134159,0,0,1,-0.49552819640881585,0.6514368645452747 A0.30996818121997366,0.30996818121997366,0,0,1,-0.5193211758242664,0.752132210110618 A0.10111858015037645,0.10111858015037645,0,0,0,-0.5315429008727319,0.7479536974909243 A0.32610701407668397,0.32610701407668397,0,0,0,-0.5206767315346734,0.6682732456656812 A0.5503369254113425,0.5503369254113425,0,0,0,-0.5866836852101268,0.7107737560030428 A0.09213079705731068,0.09213079705731068,0,0,0,-0.5946935082985428,0.7015688740119899 A0.5058864350456881,0.5058864350456881,0,0,1,-0.5182343120680083,0.6383942408994987 A1.5588050084973462,1.5588050084973462,0,0,0,-0.46439785906957765,0.5157254219293287 A0.7101340915752609,0.7101340915752609,0,0,0,-0.5980764917562302,0.5483031450067654 A0.9835005590307204,0.9835005590307204,0,0,1,-0.6704167568342514,0.6235185524541329 A0.09678654007940388,0.09678654007940388,0,0,0,-0.6798732533562416,0.6147784255814794 A1.1667022687327524,1.1667022687327524,0,0,0,-0.6299881171173127,0.5473790887467289 A0.2911688384849953,0.2911688384849953,0,0,0,-0.7183351139707113,0.5530401429850318 A0.11987687382241001,0.11987687382241001,0,0,0,-0.7224380957324289,0.5389874563570062 A0.27823431442495805,0.27823431442495805,0,0,1,-0.6088809587555651,0.5225376459809612 A0.6378184402019927,0.6378184402019927,0,0,1,-0.43968506301019805,0.46684954392724964 A1.914001720546326,1.914001720546326,0,0,1,-0.21549288503362696,0.3042936788699855 A12.526655295819499,12.526655295819499,0,0,1,-0.06891674696768568,0.039789102413470445 A12.526655295819483,12.526655295819483,0,0,1,-0.37127249862928213,0.03447547333893297 A1.9140017205463267,1.9140017205463267,0,0,1,-0.6241460962912786,0.14735366226776914 A0.6378184402019931,0.6378184402019931,0,0,1,-0.756971355231014,0.26603755517246175 A0.2782343144249586,0.2782343144249586,0,0,1,-0.8279958773925387,0.3561560153874334 A0.11987687382240982,0.11987687382240982,0,0,0,-0.8381143701229719,0.34557638563650867 A0.29116883848499575,0.29116883848499575,0,0,0,-0.7890382549137,0.2718961691325538 A1.1667022687327382,1.1667022687327382,0,0,0,-0.8723503609302815,0.2813982959693384 A0.09678654007940371,0.09678654007940371,0,0,0,-0.8751912845733052,0.2688386663141692 A0.9835005590307108,0.9835005590307108,0,0,1,-0.7738826984288767,0.24379786276378657 A0.7101340915752615,0.7101340915752615,0,0,0,-0.6788302463030353,0.14431763245269502 A1.5588050084973442,1.5588050084973442,0,0,0,-0.8119827862826536,0.12960695891389706 A0.5058864350456902,0.5058864350456902,0,0,1,-0.9049232215480982,0.1642352486462338 A0.09213079705731059,0.09213079705731059,0,0,0,-0.9088899716469804,0.15269609737631978 A0.5503369254113449,0.5503369254113449,0,0,0,-0.8390799731832963,0.1167826538356358 A0.32610701407668324,0.32610701407668324,0,0,0,-0.913518353318008,0.08635280661159689 A0.10111858015037654,0.10111858015037654,0,0,0,-0.9110261888724634,0.07367922593171032 A0.3099681812199733,0.3099681812199733,0,0,1,-0.8119249718622981,0.10342157410888209 A1.248164271341589,1.248164271341589,0,0,1,-0.6422291494975408,0.10433737628564144 A2.756293755550261,2.756293755550261,0,0,0,-0.44604082983665494,4.440892098500626e-16 A2.7562937555502605,2.7562937555502605,0,0,0,-0.6422291494975401,-0.10433737628564099 A1.2481642713415901,1.2481642713415901,0,0,1,-0.8119249718622981,-0.10342157410888131 A0.30996818121997427,0.30996818121997427,0,0,1,-0.9110261888724634,-0.07367922593171033 A0.1011185801503766,0.1011185801503766,0,0,0,-0.9135183533180076,-0.08635280661159714 A0.32610701407668446,0.32610701407668446,0,0,0,-0.839079973183296,-0.11678265383563641 A0.5503369254113446,0.5503369254113446,0,0,0,-0.9088899716469803,-0.1526960973763205 A0.09213079705731056,0.09213079705731056,0,0,0,-0.9049232215480986,-0.16423524864623468 A0.5058864350456898,0.5058864350456898,0,0,1,-0.8119827862826506,-0.129606958913897 A1.5588050084973462,1.5588050084973462,0,0,0,-0.6788302463030356,-0.1443176324526947 A0.7101340915752605,0.7101340915752605,0,0,0,-0.7738826984288769,-0.24379786276378645 A0.9835005590307158,0.9835005590307158,0,0,1,-0.8751912845733052,-0.26883866631416964 A0.09678654007940396,0.09678654007940396,0,0,0,-0.872350360930283,-0.28139829596933913 A1.1667022687327449,1.1667022687327449,0,0,0,-0.7890382549136983,-0.2718961691325541 A0.2911688384849953,0.2911688384849953,0,0,0,-0.8381143701229712,-0.3455763856365096 A0.11987687382241005,0.11987687382241005,0,0,0,-0.827995877392538,-0.3561560153874343 A0.2782343144249582,0.2782343144249582,0,0,1,-0.7569713552310138,-0.2660375551724621 A0.6378184402019923,0.6378184402019923,0,0,1,-0.6241460962912777,-0.14735366226776858 A1.9140017205463278,1.9140017205463278,0,0,1,-0.37127249862924994,-0.03447547333893031 A12.526655295819484,12.526655295819484,0,0,1,-0.0689167469676772,-0.039789102413465116 A12.526655295819522,12.526655295819522,0,0,1,-0.2154928850336315,-0.3042936788699837 A1.9140017205463307,1.9140017205463307,0,0,1,-0.4396850630101955,-0.46684954392724864 A0.6378184402019929,0.6378184402019929,0,0,1,-0.6088809587555639,-0.5225376459809621 A0.2782343144249589,0.2782343144249589,0,0,1,-0.7224380957324288,-0.5389874563570072 A0.11987687382241019,0.11987687382241019,0,0,0,-0.7183351139707109,-0.5530401429850329 A0.29116883848499603,0.29116883848499603,0,0,0,-0.6299881171173115,-0.547379088746729 A1.166702268732748,1.166702268732748,0,0,0,-0.6798732533562409,-0.6147784255814802 A0.09678654007940424,0.09678654007940424,0,0,0,-0.6704167568342512,-0.6235185524541339 A0.9835005590307176,0.9835005590307176,0,0,1,-0.5980764917562298,-0.548303145006766 A0.7101340915752608,0.7101340915752608,0,0,0,-0.46439785906957676,-0.5157254219293286 A1.558805008497345,1.558805008497345,0,0,0,-0.5182343120680071,-0.6383942408994991 A0.5058864350456895,0.5058864350456895,0,0,1,-0.5946935082985414,-0.7015688740119906 A0.09213079705731099,0.09213079705731099,0,0,0,-0.5866836852101253,-0.7107737560030438 A0.5503369254113443,0.5503369254113443,0,0,0,-0.5206767315346732,-0.6682732456656828 A0.3261070140766839,0.3261070140766839,0,0,0,-0.5315429008727313,-0.7479536974909242 A0.10111858015037647,0.10111858015037647,0,0,0,-0.5193211758242657,-0.7521322101106178 A0.3099681812199738,0.3099681812199738,0,0,1,-0.49552819640881585,-0.6514368645452755 A1.2481642713415892,1.2481642713415892,0,0,1,-0.411473393176351,-0.5040180703729227 A2.7562937555502702,2.7562937555502702,0,0,0,-0.22302041491832636,-0.3862826897636351 A2.7562937555502636,2.7562937555502636,0,0,0,-0.2307557563211886,-0.6083554466585672 A1.2481642713415866,1.2481642713415866,0,0,1,-0.31639677545348344,-0.7548584386541578 A0.3099681812199737,0.3099681812199737,0,0,1,-0.3917050130481975,-0.8258114360423288 A0.10111858015037627,0.10111858015037627,0,0,0,-0.3819754524452761,-0.8343065041025218 A0.3261070140766838,0.3261070140766838,0,0,0,-0.31840324164862266,-0.7850558995013182 A0.55033692541134,0.55033692541134,0,0,0,-0.322206286436854,-0.8634698533793641 A0.09213079705731025,0.09213079705731025,0,0,0,-0.3102297132495559,-0.865804122658225 A0.5058864350456861,0.5058864350456861,0,0,1,-0.29374847421464423,-0.7680011998133949 A1.558805008497341,1.558805008497341,0,0,0,-0.2144323872334577,-0.6600430543820228 A0.7101340915752603,0.7101340915752603,0,0,0,-0.17580620667264713,-0.7921010077705519 A0.9835005590307154,0.9835005590307154,0,0,1,-0.20477452773905347,-0.8923572187683015 A0.09678654007940385,0.09678654007940385,0,0,0,-0.19247710757404196,-0.8961767215508185 A1.1667022687327446,1.1667022687327446,0,0,0,-0.15905013779638777,-0.8192752578792822 A0.291168838484996,0.291168838484996,0,0,0,-0.1197792561522606,-0.8986165286215414 A0.11987687382241048,0.11987687382241048,0,0,0,-0.1055577816601097,-0.8951434717444404 A0.27823431442495866,0.27823431442495866,0,0,1,-0.1480903964754504,-0.7885752011534238 A0.6378184402019923,0.6378184402019923,0,0,1,-0.1844610332810782,-0.6142032061950207 A1.9140017205463289,1.9140017205463289,0,0,1,-0.1557796135956182,-0.3387691522089156 A12.526655295819502,12.526655295819502,0,0,1,0.0,-0.07957820482692934 A12.52665529581949,12.52665529581949,0,0,1,0.1557796135956142,-0.3387691522089167 A1.9140017205463298,1.9140017205463298,0,0,1,0.184461033281079,-0.6142032061950193 A0.6378184402019924,0.6378184402019924,0,0,1,0.14809039647545108,-0.7885752011534229 A0.27823431442495894,0.27823431442495894,0,0,1,0.10555778166011015,-0.8951434717444411 A0.11987687382241019,0.11987687382241019,0,0,0,0.11977925615226107,-0.898616528621542 A0.29116883848499614,0.29116883848499614,0,0,0,0.1590501377963879,-0.8192752578792823 A1.1667022687327366,1.1667022687327366,0,0,0,0.19247710757404168,-0.8961767215508167 A0.09678654007940364,0.09678654007940364,0,0,0,0.20477452773905408,-0.8923572187683023 A0.9835005590307089,0.9835005590307089,0,0,1,0.17580620667264724,-0.7921010077705531 A0.7101340915752608,0.7101340915752608,0,0,0,0.21443238723345837,-0.6600430543820233 A1.5588050084973408,1.5588050084973408,0,0,0,0.2937484742146452,-0.768001199813396 A0.5058864350456876,0.5058864350456876,0,0,1,0.3102297132495564,-0.8658041226582235 A0.0921307970573103,0.0921307970573103,0,0,0,0.32220628643685434,-0.8634698533793634 A0.5503369254113418,0.5503369254113418,0,0,0,0.3184032416486229,-0.7850558995013176 A0.326107014076684,0.326107014076684,0,0,0,0.3819754524452763,-0.834306504102521 A0.10111858015037614,0.10111858015037614,0,0,0,0.3917050130481977,-0.8258114360423279 A0.3099681812199738,0.3099681812199738,0,0,1,0.31639677545348466,-0.7548584386541577 A1.2481642713415868,1.2481642713415868,0,0,1,0.2307557563211894,-0.6083554466585651 A2.7562937555502693,2.7562937555502693,0,0,0,0.2230204149183277,-0.38628268976363617 A2.756293755550261,2.756293755550261,0,0,0,0.41147339317635123,-0.5040180703729233 A1.2481642713415906,1.2481642713415906,0,0,1,0.4955281964088163,-0.6514368645452753 A0.3099681812199745,0.3099681812199745,0,0,1,0.5193211758242662,-0.752132210110618 A0.10111858015037636,0.10111858015037636,0,0,0,0.5315429008727319,-0.7479536974909244 A0.32610701407668474,0.32610701407668474,0,0,0,0.5206767315346734,-0.6682732456656815 A0.5503369254113452,0.5503369254113452,0,0,0,0.586683685210126,-0.7107737560030425 A0.09213079705731053,0.09213079705731053,0,0,0,0.5946935082985423,-0.7015688740119896 A0.5058864350456903,0.5058864350456903,0,0,1,0.5182343120680076,-0.6383942408994986 A1.5588050084973475,1.5588050084973475,0,0,0,0.46439785906957765,-0.5157254219293296 A0.7101340915752591,0.7101340915752591,0,0,0,0.5980764917562301,-0.5483031450067659 A0.9835005590307124,0.9835005590307124,0,0,1,0.670416756834253,-0.6235185524541349 A0.09678654007940365,0.09678654007940365,0,0,0,0.6798732533562414,-0.61477842558148 A1.1667022687327406,1.1667022687327406,0,0,0,0.6299881171173113,-0.5473790887467276 A0.2911688384849961,0.2911688384849961,0,0,0,0.718335113970711,-0.553040142985032 A0.11987687382240991,0.11987687382240991,0,0,0,0.7224380957324287,-0.5389874563570065 A0.27823431442495883,0.27823431442495883,0,0,1,0.6088809587555637,-0.5225376459809614 A0.6378184402019912,0.6378184402019912,0,0,1,0.4396850630102,-0.46684954392725075 A1.9140017205463282,1.9140017205463282,0,0,1,0.21549288503365427,-0.3042936788700026 A12.526655295819468,12.526655295819468,0,0,1,0.06891674696768035,-0.03978910241346423 A12.526655295819522,12.526655295819522,0,0,1,0.37127249862924716,-0.03447547333893475 A1.91400172054633,1.91400172054633,0,0,1,0.6241460962912777,-0.1473536622677687 A0.6378184402019924,0.6378184402019924,0,0,1,0.7569713552310144,-0.26603755517246236 A0.2782343144249578,0.2782343144249578,0,0,1,0.8279958773925389,-0.35615601538743313 A0.11987687382241037,0.11987687382241037,0,0,0,0.8381143701229721,-0.3455763856365086 A0.29116883848499475,0.29116883848499475,0,0,0,0.7890382549136998,-0.27189616913255354 A1.1667022687327382,1.1667022687327382,0,0,0,0.8723503609302852,-0.28139829596933885 A0.0967865400794038,0.0967865400794038,0,0,0,0.8751912845733053,-0.2688386663141696 A0.9835005590307103,0.9835005590307103,0,0,1,0.773882698428878,-0.243797862763787 A0.7101340915752606,0.7101340915752606,0,0,0,0.6788302463030352,-0.14431763245269486 A1.5588050084973455,1.5588050084973455,0,0,0,0.8119827862826534,-0.12960695891389706 A0.5058864350456904,0.5058864350456904,0,0,1,0.9049232215480987,-0.16423524864623407 A0.09213079705731056,0.09213079705731056,0,0,0,0.9088899716469807,-0.15269609737632012 A0.5503369254113452,0.5503369254113452,0,0,0,0.8390799731832961,-0.11678265383563591 A0.3261070140766825,0.3261070140766825,0,0,0,0.9135183533180075,-0.08635280661159717 A0.10111858015037625,0.10111858015037625,0,0,0,0.9110261888724632,-0.0736792259317103 A0.30996818121997294,0.30996818121997294,0,0,1,0.8119249718622992,-0.10342157410888142 A1.248164271341589,1.248164271341589,0,0,1,0.6422291494975416,-0.10433737628564099 A2.7562937555502676,2.7562937555502676,0,0,0,0.4460408298366543,4.440892098500626e-16 A2.7562937555502627,2.7562937555502627,0,0,0,0.6422291494975394,0.10433737628564144 A1.2481642713415901,1.2481642713415901,0,0,1,0.8119249718623002,0.10342157410888131 A0.30996818121997466,0.30996818121997466,0,0,1,0.9110261888724633,0.07367922593171017 A0.10111858015037636,0.10111858015037636,0,0,0,0.9135183533180077,0.08635280661159697 A0.3261070140766847,0.3261070140766847,0,0,0,0.839079973183296,0.11678265383563624 A0.550336925411345,0.550336925411345,0,0,0,0.9088899716469799,0.15269609737632034 A0.09213079705731028,0.09213079705731028,0,0,0,0.9049232215480987,0.16423524864623434 A0.5058864350456902,0.5058864350456902,0,0,1,0.8119827862826519,0.12960695891389723 A1.5588050084973473,1.5588050084973473,0,0,0,0.6788302463030345,0.1443176324526947 A0.7101340915752608,0.7101340915752608,0,0,0,0.7738826984288775,0.24379786276378707 A0.9835005590307168,0.9835005590307168,0,0,1,0.8751912845733061,0.26883866631416997 A0.09678654007940386,0.09678654007940386,0,0,0,0.8723503609302837,0.28139829596933913 A1.1667022687327473,1.1667022687327473,0,0,0,0.7890382549136988,0.2718961691325541 A0.291168838484995,0.291168838484995,0,0,0,0.8381143701229714,0.34557638563650944 A0.11987687382241027,0.11987687382241027,0,0,0,0.8279958773925382,0.356156015387434 A0.278234314424958,0.278234314424958,0,0,1,0.7569713552310142,0.2660375551724624 A0.6378184402019925,0.6378184402019925,0,0,1,0.6241460962912784,0.1473536622677697 A1.9140017205463282,1.9140017205463282,0,0,1,0.37127249862925016,0.03447547333893031 A12.526655295819483,12.526655295819483,0,0,1,0.06891674696767999,0.039789102413465116 Z" fill="white" opacity="0.7" />
</svg>