<?xml version="1.0" encoding="UTF-8"?>
<svg xmlns="http://www.w3.org/2000/svg" xmlns:xlink="http://www.w3.org/1999/xlink"
     width="600" height="600.0" viewBox="-1.0 -1.0 2 2">
<defs>
</defs>
<circle cx="0" cy="0" r="1" fill="silver" />
<path d="M0.0173147387492,0.0099966690778 A50.00666648889566,50.00666648889566,0,0,0,0.377686647902,0.00857336446514 A2.1553511172296083,2.1553511172296083,0,0,0,0.634786376303,0.132660429328 A0.6611668446159663,0.6611668446159663,0,0,0,0.765330887942,0.259006903075 A0.28210278857814386,0.28210278857814386,0,0,0,0.827573044145,0.348083453444 A0.11866620028536894,0.11866620028536894,0,0,1,0.830293133619,0.34535428446 A0.28532196423631456,0.28532196423631456,0,0,1,0.773566544674,0.260829285001 A1.0872389594278884,1.0872389594278884,0,0,1,0.868353350875,0.275670047015 A0.09594079678398973,0.09594079678398973,0,0,1,0.869088425698,0.272345296071 A1.041931844441647,1.041931844441647,0,0,0,0.769492885811,0.253492904979 A0.679125048879267,0.679125048879267,0,0,1,0.648917672553,0.132257479095 A1.4214351632005477,1.4214351632005477,0,0,1,0.814168287486,0.119804937121 A0.5201320809266579,0.5201320809266579,0,0,0,0.901754348764,0.158340929439 A0.09135106252531659,0.09135106252531659,0,0,1,0.902831366434,0.155300399702 A0.5311819995954709,0.5311819995954709,0,0,1,0.821343120857,0.11658745644 A0.31890268207315137,0.31890268207315137,0,0,1,0.907573264557,0.0827817060597 A0.10020913249580578,0.10020913249580578,0,0,1,0.906861267702,0.0794492563454 A0.3148864916810961,0.3148864916810961,0,0,0,0.814164359973,0.113333838537 A1.3449736445218003,1.3449736445218003,0,0,0,0.639246773874,0.121995591399 A2.3586749124197692,2.3586749124197692,0,0,1,0.396927064572,-0.0 A2.3586749124197732,2.3586749124197732,0,0,1,0.639246773874,-0.121995591399 A1.3449736445218001,1.3449736445218001,0,0,0,0.814164359973,-0.113333838537 A0.31488649168109484,0.31488649168109484,0,0,0,0.906861267702,-0.0794492563454 A0.10020913249580565,0.10020913249580565,0,0,1,0.907573264557,-0.0827817060597 A0.31890268207314987,0.31890268207314987,0,0,1,0.821343120857,-0.11658745644 A0.5311819995954714,0.5311819995954714,0,0,1,0.902831366434,-0.155300399702 A0.09135106252531672,0.09135106252531672,0,0,1,0.901754348764,-0.158340929439 A0.5201320809266585,0.5201320809266585,0,0,0,0.814168287486,-0.119804937121 A1.4214351632005473,1.4214351632005473,0,0,1,0.648917672553,-0.132257479095 A0.6791250488792667,0.6791250488792667,0,0,1,0.769492885811,-0.253492904979 A1.041931844441639,1.041931844441639,0,0,0,0.869088425698,-0.272345296071 A0.09594079678398972,0.09594079678398972,0,0,1,0.868353350875,-0.275670047015 A1.0872389594278806,1.0872389594278806,0,0,1,0.773566544674,-0.260829285001 A0.2853219642363144,0.2853219642363144,0,0,1,0.830293133619,-0.34535428446 A0.1186662002853691,0.1186662002853691,0,0,1,0.827573044145,-0.348083453444 A0.28210278857814364,0.28210278857814364,0,0,0,0.765330887942,-0.259006903075 A0.6611668446159659,0.6611668446159659,0,0,0,0.634786376303,-0.132660429328 A2.1553511172296136,2.1553511172296136,0,0,0,0.377686647903,-0.00857336446515 A50.00666648889628,50.00666648889628,0,0,0,0.0173147387492,-0.0099966690778 A50.00666648889575,50.00666648889575,0,0,0,0.196268075374,-0.322799549521 A2.1553511172296096,2.1553511172296096,0,0,0,0.432280490026,-0.48341091319 A0.6611668446159642,0.6611668446159642,0,0,0,0.606972001789,-0.533292539721 A0.28210278857814475,0.28210278857814475,0,0,0,0.715235635392,-0.542657552994 A0.11866620028536891,0.11866620028536891,0,0,1,0.714232150458,-0.546377804072 A0.2853219642363155,0.2853219642363155,0,0,1,0.612668059199,-0.539513636705 A1.0872389594278828,1.0872389594278828,0,0,1,0.672913939215,-0.614181037812 A0.09594079678398955,0.09594079678398955,0,0,1,0.670402157847,-0.616480006754 A1.0419318444416419,1.0419318444416419,0,0,0,0.604277738296,-0.539653934654 A0.6791250488792648,0.6791250488792648,0,0,1,0.438997173013,-0.495850449848 A1.4214351632005475,1.4214351632005475,0,0,1,0.510838262789,-0.645187951358 A0.5201320809266579,0.5201320809266579,0,0,0,0.588004441735,-0.701771709284 A0.09135106252531648,0.09135106252531648,0,0,1,0.585909774576,-0.704224698814 A0.531181999595471,0.531181999595471,0,0,1,0.511639259468,-0.653010279666 A0.3189026820731518,0.3189026820731518,0,0,1,0.525477692695,-0.744590649872 A0.10020913249580578,0.10020913249580578,0,0,1,0.522235708158,-0.745640267365 A0.3148864916810966,0.3148864916810966,0,0,0,0.505232163267,-0.648420099324 A1.3449736445218003,1.3449736445218003,0,0,0,0.425274668239,-0.492606149763 A2.358674912419769,2.358674912419769,0,0,1,0.198463532286,-0.343748921369 A2.358674912419768,2.358674912419768,0,0,1,0.213972105636,-0.614601741162 A1.3449736445217968,1.3449736445217968,0,0,0,0.308932196705,-0.761753937861 A0.3148864916810959,0.3148864916810959,0,0,0,0.384625559544,-0.825089523711 A0.10020913249580579,0.10020913249580579,0,0,1,0.382095571862,-0.827372355932 A0.31890268207315126,0.31890268207315126,0,0,1,0.309703861389,-0.769597736106 A0.5311819995954691,0.5311819995954691,0,0,1,0.316921591857,-0.859525098516 A0.09135106252531659,0.09135106252531659,0,0,1,0.31374990703,-0.860112638722 A0.5201320809266559,0.5201320809266559,0,0,0,0.303330024697,-0.764992888479 A1.421435163200543,1.421435163200543,0,0,1,0.20992049954,-0.628107928943 A0.6791250488792676,0.6791250488792676,0,0,1,0.165215147515,-0.793146839633 A1.0419318444416383,1.0419318444416383,0,0,0,0.198686267851,-0.888825302825 A0.09594079678398974,0.09594079678398974,0,0,1,0.19543941166,-0.889851084827 A1.087238959427879,1.087238959427879,0,0,1,0.160898485475,-0.800342921706 A0.2853219642363157,0.2853219642363157,0,0,1,0.116060983161,-0.891732088532 A0.11866620028536888,0.11866620028536888,0,0,1,0.112337408753,-0.890741006439 A0.28210278857814486,0.28210278857814486,0,0,0,0.158358886152,-0.792299442796 A0.6611668446159671,0.6611668446159671,0,0,0,0.202505886276,-0.616071342518 A2.155351117229609,2.155351117229609,0,0,0,0.181418572529,-0.331372913987 A50.00666648889576,50.00666648889576,0,0,0,-7.1054273576e-15,-0.0199933381556 A50.00666648889608,50.00666648889608,0,0,0,-0.181418572529,-0.331372913987 A2.15535111722961,2.15535111722961,0,0,0,-0.202505886276,-0.616071342518 A0.6611668446159663,0.6611668446159663,0,0,0,-0.158358886152,-0.792299442796 A0.28210278857814386,0.28210278857814386,0,0,0,-0.112337408753,-0.890741006439 A0.11866620028536887,0.11866620028536887,0,0,1,-0.116060983161,-0.891732088532 A0.28532196423631456,0.28532196423631456,0,0,1,-0.160898485475,-0.800342921706 A1.087238959427886,1.087238959427886,0,0,1,-0.19543941166,-0.889851084827 A0.09594079678398981,0.09594079678398981,0,0,1,-0.198686267851,-0.888825302825 A1.041931844441644,1.041931844441644,0,0,0,-0.165215147515,-0.793146839633 A0.6791250488792662,0.6791250488792662,0,0,1,-0.20992049954,-0.628107928943 A1.4214351632005446,1.4214351632005446,0,0,1,-0.303330024697,-0.764992888479 A0.5201320809266541,0.5201320809266541,0,0,0,-0.31374990703,-0.860112638722 A0.09135106252531634,0.09135106252531634,0,0,1,-0.316921591857,-0.859525098516 A0.5311819995954664,0.5311819995954664,0,0,1,-0.309703861389,-0.769597736106 A0.3189026820731511,0.3189026820731511,0,0,1,-0.382095571862,-0.827372355932 A0.10020913249580561,0.10020913249580561,0,0,1,-0.384625559544,-0.825089523711 A0.31488649168109584,0.31488649168109584,0,0,0,-0.308932196705,-0.761753937861 A1.3449736445217975,1.3449736445217975,0,0,0,-0.213972105636,-0.614601741162 A2.358674912419769,2.358674912419769,0,0,1,-0.198463532286,-0.343748921369 A2.3586749124197706,2.3586749124197706,0,0,1,-0.425274668239,-0.492606149763 A1.3449736445218012,1.3449736445218012,0,0,0,-0.505232163267,-0.648420099324 A0.3148864916810959,0.3148864916810959,0,0,0,-0.522235708158,-0.745640267365 A0.10020913249580586,0.10020913249580586,0,0,1,-0.525477692695,-0.744590649872 A0.31890268207315114,0.31890268207315114,0,0,1,-0.511639259468,-0.653010279666 A0.5311819995954707,0.5311819995954707,0,0,1,-0.585909774576,-0.704224698814 A0.09135106252531676,0.09135106252531676,0,0,1,-0.588004441735,-0.701771709284 A0.5201320809266576,0.5201320809266576,0,0,0,-0.510838262789,-0.645187951358 A1.4214351632005482,1.4214351632005482,0,0,1,-0.438997173013,-0.495850449848 A0.6791250488792668,0.6791250488792668,0,0,1,-0.604277738296,-0.539653934654 A1.0419318444416477,1.0419318444416477,0,0,0,-0.670402157847,-0.616480006754 A0.0959407967839901,0.0959407967839901,0,0,1,-0.672913939215,-0.614181037812 A1.0872389594278893,1.0872389594278893,0,0,1,-0.612668059199,-0.539513636705 A0.2853219642363155,0.2853219642363155,0,0,1,-0.714232150458,-0.546377804072 A0.11866620028536885,0.11866620028536885,0,0,1,-0.715235635392,-0.542657552994 A0.28210278857814497,0.28210278857814497,0,0,0,-0.606972001789,-0.533292539721 A0.6611668446159664,0.6611668446159664,0,0,0,-0.432280490026,-0.48341091319 A2.1553511172296114,2.1553511172296114,0,0,0,-0.196268075374,-0.322799549521 A50.00666648889658,50.00666648889658,0,0,0,-0.0173147387492,-0.00999666907779 A50.00666648889566,50.00666648889566,0,0,0,-0.377686647902,-0.00857336446514 A2.155351117229609,2.155351117229609,0,0,0,-0.634786376303,-0.132660429328 A0.6611668446159662,0.6611668446159662,0,0,0,-0.765330887942,-0.259006903075 A0.282102788578144,0.282102788578144,0,0,0,-0.827573044145,-0.348083453444 A0.11866620028536883,0.11866620028536883,0,0,1,-0.830293133619,-0.34535428446 A0.2853219642363149,0.2853219642363149,0,0,1,-0.773566544674,-0.260829285001 A1.0872389594278868,1.0872389594278868,0,0,1,-0.868353350875,-0.275670047015 A0.09594079678398988,0.09594079678398988,0,0,1,-0.869088425698,-0.272345296071 A1.0419318444416459,1.0419318444416459,0,0,0,-0.769492885811,-0.253492904979 A0.6791250488792664,0.6791250488792664,0,0,1,-0.648917672553,-0.132257479095 A1.421435163200548,1.421435163200548,0,0,1,-0.814168287486,-0.119804937121 A0.5201320809266575,0.5201320809266575,0,0,0,-0.901754348764,-0.158340929439 A0.09135106252531673,0.09135106252531673,0,0,1,-0.902831366434,-0.155300399702 A0.5311819995954706,0.5311819995954706,0,0,1,-0.821343120857,-0.11658745644 A0.31890268207315087,0.31890268207315087,0,0,1,-0.907573264557,-0.0827817060597 A0.10020913249580601,0.10020913249580601,0,0,1,-0.906861267702,-0.0794492563454 A0.3148864916810958,0.3148864916810958,0,0,0,-0.814164359973,-0.113333838537 A1.3449736445218012,1.3449736445218012,0,0,0,-0.639246773874,-0.121995591399 A2.3586749124197675,2.3586749124197675,0,0,1,-0.396927064572,4.4408920985e-16 A2.3586749124197723,2.3586749124197723,0,0,1,-0.639246773874,0.121995591399 A1.3449736445217995,1.3449736445217995,0,0,0,-0.814164359973,0.113333838537 A0.3148864916810953,0.3148864916810953,0,0,0,-0.906861267702,0.0794492563454 A0.10020913249580589,0.10020913249580589,0,0,1,-0.907573264557,0.0827817060597 A0.3189026820731505,0.3189026820731505,0,0,1,-0.821343120857,0.11658745644 A0.5311819995954712,0.5311819995954712,0,0,1,-0.902831366434,0.155300399702 A0.09135106252531684,0.09135106252531684,0,0,1,-0.901754348764,0.158340929439 A0.5201320809266582,0.5201320809266582,0,0,0,-0.814168287486,0.119804937121 A1.4214351632005464,1.4214351632005464,0,0,1,-0.648917672553,0.132257479095 A0.6791250488792674,0.6791250488792674,0,0,1,-0.769492885811,0.253492904979 A1.04193184444164,1.04193184444164,0,0,0,-0.869088425698,0.272345296071 A0.09594079678398972,0.09594079678398972,0,0,1,-0.868353350875,0.275670047015 A1.0872389594278813,1.0872389594278813,0,0,1,-0.773566544674,0.260829285001 A0.28532196423631534,0.28532196423631534,0,0,1,-0.830293133619,0.34535428446 A0.11866620028536864,0.11866620028536864,0,0,1,-0.827573044145,0.348083453444 A0.2821027885781446,0.2821027885781446,0,0,0,-0.765330887942,0.259006903075 A0.6611668446159665,0.6611668446159665,0,0,0,-0.634786376303,0.132660429328 A2.155351117229613,2.155351117229613,0,0,0,-0.377686647902,0.00857336446494 A50.00666648889566,50.00666648889566,0,0,0,-0.0173147387492,0.0099966690778 A50.00666648889574,50.00666648889574,0,0,0,-0.196268075374,0.322799549521 A2.1553511172296096,2.1553511172296096,0,0,0,-0.432280490026,0.48341091319 A0.6611668446159656,0.6611668446159656,0,0,0,-0.606972001789,0.533292539721 A0.2821027885781438,0.2821027885781438,0,0,0,-0.715235635392,0.542657552994 A0.11866620028536881,0.11866620028536881,0,0,1,-0.714232150458,0.546377804072 A0.2853219642363149,0.2853219642363149,0,0,1,-0.612668059199,0.539513636705 A1.0872389594278926,1.0872389594278926,0,0,1,-0.672913939215,0.614181037812 A0.09594079678398984,0.09594079678398984,0,0,1,-0.670402157847,0.616480006754 A1.0419318444416505,1.0419318444416505,0,0,0,-0.604277738296,0.539653934654 A0.6791250488792661,0.6791250488792661,0,0,1,-0.438997173013,0.495850449848 A1.421435163200547,1.421435163200547,0,0,1,-0.510838262789,0.645187951358 A0.5201320809266562,0.5201320809266562,0,0,0,-0.588004441735,0.701771709284 A0.09135106252531687,0.09135106252531687,0,0,1,-0.585909774576,0.704224698814 A0.5311819995954691,0.5311819995954691,0,0,1,-0.511639259468,0.653010279666 A0.3189026820731511,0.3189026820731511,0,0,1,-0.525477692695,0.744590649872 A0.10020913249580582,0.10020913249580582,0,0,1,-0.522235708158,0.745640267365 A0.3148864916810959,0.3148864916810959,0,0,0,-0.505232163267,0.648420099324 A1.3449736445218003,1.3449736445218003,0,0,0,-0.425274668239,0.492606149763 A2.3586749124197666,2.3586749124197666,0,0,1,-0.198463532286,0.343748921369 A2.3586749124197706,2.3586749124197706,0,0,1,-0.213972105636,0.614601741162 A1.3449736445218003,1.3449736445218003,0,0,0,-0.308932196705,0.761753937861 A0.31488649168109567,0.31488649168109567,0,0,0,-0.384625559544,0.825089523711 A0.1002091324958055,0.1002091324958055,0,0,1,-0.382095571862,0.827372355932 A0.3189026820731506,0.3189026820731506,0,0,1,-0.309703861389,0.769597736106 A0.5311819995954689,0.5311819995954689,0,0,1,-0.316921591857,0.859525098516 A0.09135106252531641,0.09135106252531641,0,0,1,-0.31374990703,0.860112638722 A0.5201320809266561,0.5201320809266561,0,0,0,-0.303330024697,0.764992888479 A1.421435163200547,1.421435163200547,0,0,1,-0.20992049954,0.628107928943 A0.6791250488792682,0.6791250488792682,0,0,1,-0.165215147515,0.793146839633 A1.041931844441637,1.041931844441637,0,0,0,-0.198686267851,0.888825302825 A0.09594079678398966,0.09594079678398966,0,0,1,-0.19543941166,0.889851084827 A1.087238959427878,1.087238959427878,0,0,1,-0.160898485475,0.800342921706 A0.28532196423631556,0.28532196423631556,0,0,1,-0.116060983161,0.891732088532 A0.11866620028536894,0.11866620028536894,0,0,1,-0.112337408753,0.890741006439 A0.28210278857814475,0.28210278857814475,0,0,0,-0.158358886152,0.792299442796 A0.661166844615967,0.661166844615967,0,0,0,-0.202505886276,0.616071342518 A2.155351117229612,2.155351117229612,0,0,0,-0.181418572529,0.331372913987 A50.00666648889603,50.00666648889603,0,0,0,-7.1054273576e-15,0.0199933381556 A50.006666488895554,50.006666488895554,0,0,0,0.181418572528,0.331372913986 A2.155351117229613,2.155351117229613,0,0,0,0.202505886276,0.616071342518 A0.6611668446159662,0.6611668446159662,0,0,0,0.158358886152,0.792299442796 A0.2821027885781451,0.2821027885781451,0,0,0,0.112337408753,0.890741006439 A0.11866620028536906,0.11866620028536906,0,0,1,0.116060983161,0.891732088532 A0.28532196423631595,0.28532196423631595,0,0,1,0.160898485475,0.800342921706 A1.0872389594278895,1.0872389594278895,0,0,1,0.19543941166,0.889851084827 A0.09594079678398999,0.09594079678398999,0,0,1,0.198686267851,0.888825302825 A1.0419318444416479,1.0419318444416479,0,0,0,0.165215147515,0.793146839633 A0.6791250488792667,0.6791250488792667,0,0,1,0.20992049954,0.628107928943 A1.4214351632005466,1.4214351632005466,0,0,1,0.303330024697,0.764992888479 A0.5201320809266577,0.5201320809266577,0,0,0,0.31374990703,0.860112638722 A0.09135106252531645,0.09135106252531645,0,0,1,0.316921591857,0.859525098516 A0.531181999595471,0.531181999595471,0,0,1,0.309703861389,0.769597736106 A0.3189026820731528,0.3189026820731528,0,0,1,0.382095571862,0.827372355932 A0.10020913249580594,0.10020913249580594,0,0,1,0.384625559544,0.825089523711 A0.31488649168109745,0.31488649168109745,0,0,0,0.308932196705,0.761753937861 A1.3449736445217992,1.3449736445217992,0,0,0,0.213972105636,0.614601741162 A2.3586749124197737,2.3586749124197737,0,0,1,0.198463532286,0.343748921369 A2.3586749124197683,2.3586749124197683,0,0,1,0.425274668239,0.492606149763 A1.344973644521801,1.344973644521801,0,0,0,0.505232163267,0.648420099324 A0.31488649168109595,0.31488649168109595,0,0,0,0.522235708158,0.745640267365 A0.10020913249580606,0.10020913249580606,0,0,1,0.525477692695,0.744590649872 A0.31890268207315103,0.31890268207315103,0,0,1,0.511639259468,0.653010279666 A0.5311819995954723,0.5311819995954723,0,0,1,0.585909774576,0.704224698814 A0.09135106252531695,0.09135106252531695,0,0,1,0.588004441735,0.701771709284 A0.5201320809266593,0.5201320809266593,0,0,0,0.510838262789,0.645187951358 A1.4214351632005477,1.4214351632005477,0,0,1,0.438997173013,0.495850449848 A0.6791250488792663,0.6791250488792663,0,0,1,0.604277738296,0.539653934654 A1.041931844441631,1.041931844441631,0,0,0,0.670402157847,0.616480006754 A0.09594079678398991,0.09594079678398991,0,0,1,0.672913939215,0.614181037812 A1.0872389594278713,1.0872389594278713,0,0,1,0.612668059199,0.539513636705 A0.28532196423631484,0.28532196423631484,0,0,1,0.714232150458,0.546377804072 A0.1186662002853688,0.1186662002853688,0,0,1,0.715235635392,0.542657552994 A0.2821027885781443,0.2821027885781443,0,0,0,0.606972001789,0.533292539721 A0.6611668446159661,0.6611668446159661,0,0,0,0.432280490026,0.48341091319 A2.1553511172296087,2.1553511172296087,0,0,0,0.196268075374,0.322799549522 A50.00666648889631,50.00666648889631,0,0,0,0.0173147387492,0.00999666907779 L0.0689167469677,0.0397891024135 A12.526655295819515,12.526655295819515,0,0,1,0.215492885034,0.30429367887 A1.9140017205463284,1.9140017205463284,0,0,1,0.43968506301,0.466849543927 A0.6378184402019922,0.6378184402019922,0,0,1,0.608880958756,0.522537645981 A0.2782343144249585,0.2782343144249585,0,0,1,0.722438095732,0.538987456357 A0.1198768738224101,0.1198768738224101,0,0,0,0.718335113971,0.553040142985 A0.2911688384849954,0.2911688384849954,0,0,0,0.629988117117,0.547379088747 A1.166702268732727,1.166702268732727,0,0,0,0.679873253356,0.614778425581 A0.09678654007940403,0.09678654007940403,0,0,0,0.670416756834,0.623518552454 A0.9835005590307027,0.9835005590307027,0,0,1,0.598076491756,0.548303145007 A0.7101340915752604,0.7101340915752604,0,0,0,0.46439785907,0.515725421929 A1.5588050084973462,1.5588050084973462,0,0,0,0.518234312068,0.638394240899 A0.5058864350456911,0.5058864350456911,0,0,1,0.594693508299,0.701568874012 A0.09213079705731081,0.09213079705731081,0,0,0,0.58668368521,0.710773756003 A0.5503369254113457,0.5503369254113457,0,0,0,0.520676731535,0.668273245666 A0.32610701407668374,0.32610701407668374,0,0,0,0.531542900873,0.747953697491 A0.1011185801503767,0.1011185801503767,0,0,0,0.519321175824,0.752132210111 A0.30996818121997377,0.30996818121997377,0,0,1,0.495528196409,0.651436864545 A1.24816427134159,1.24816427134159,0,0,1,0.411473393176,0.504018070373 A2.756293755550263,2.756293755550263,0,0,0,0.223020414918,0.386282689764 A2.7562937555502716,2.7562937555502716,0,0,0,0.230755756321,0.608355446659 A1.2481642713415886,1.2481642713415886,0,0,1,0.316396775453,0.754858438654 A0.3099681812199753,0.3099681812199753,0,0,1,0.391705013048,0.825811436042 A0.10111858015037646,0.10111858015037646,0,0,0,0.381975452445,0.834306504103 A0.3261070140766855,0.3261070140766855,0,0,0,0.318403241649,0.785055899501 A0.5503369254113448,0.5503369254113448,0,0,0,0.322206286437,0.863469853379 A0.09213079705731017,0.09213079705731017,0,0,0,0.31022971325,0.865804122658 A0.5058864350456898,0.5058864350456898,0,0,1,0.293748474215,0.768001199813 A1.5588050084973442,1.5588050084973442,0,0,0,0.214432387233,0.660043054382 A0.7101340915752605,0.7101340915752605,0,0,0,0.175806206673,0.792101007771 A0.9835005590307172,0.9835005590307172,0,0,1,0.204774527739,0.892357218768 A0.09678654007940408,0.09678654007940408,0,0,0,0.192477107574,0.896176721551 A1.166702268732748,1.166702268732748,0,0,0,0.159050137796,0.819275257879 A0.2911688384849963,0.2911688384849963,0,0,0,0.119779256152,0.898616528622 A0.11987687382241023,0.11987687382241023,0,0,0,0.10555778166,0.895143471744 A0.27823431442495905,0.27823431442495905,0,0,1,0.148090396475,0.788575201153 A0.6378184402019925,0.6378184402019925,0,0,1,0.184461033281,0.614203206195 A1.9140017205463304,1.9140017205463304,0,0,1,0.155779613596,0.338769152209 A12.526655295819467,12.526655295819467,0,0,1,0.0,0.0795782048269 A12.526655295819513,12.526655295819513,0,0,1,-0.155779613596,0.338769152209 A1.9140017205463296,1.9140017205463296,0,0,1,-0.184461033281,0.614203206195 A0.6378184402019933,0.6378184402019933,0,0,1,-0.148090396475,0.788575201153 A0.2782343144249587,0.2782343144249587,0,0,1,-0.10555778166,0.895143471744 A0.11987687382241033,0.11987687382241033,0,0,0,-0.119779256152,0.898616528622 A0.2911688384849962,0.2911688384849962,0,0,0,-0.159050137796,0.819275257879 A1.1667022687327349,1.1667022687327349,0,0,0,-0.192477107574,0.896176721551 A0.0967865400794037,0.0967865400794037,0,0,0,-0.204774527739,0.892357218768 A0.9835005590307078,0.9835005590307078,0,0,1,-0.175806206673,0.792101007771 A0.7101340915752623,0.7101340915752623,0,0,0,-0.214432387233,0.660043054382 A1.558805008497345,1.558805008497345,0,0,0,-0.293748474215,0.768001199813 A0.505886435045688,0.505886435045688,0,0,1,-0.31022971325,0.865804122658 A0.09213079705731009,0.09213079705731009,0,0,0,-0.322206286437,0.863469853379 A0.5503369254113425,0.5503369254113425,0,0,0,-0.318403241649,0.785055899501 A0.32610701407668335,0.32610701407668335,0,0,0,-0.381975452445,0.834306504103 A0.1011185801503761,0.1011185801503761,0,0,0,-0.391705013048,0.825811436042 A0.3099681812199737,0.3099681812199737,0,0,1,-0.316396775453,0.754858438654 A1.2481642713415897,1.2481642713415897,0,0,1,-0.230755756321,0.608355446659 A2.756293755550268,2.756293755550268,0,0,0,-0.223020414918,0.386282689764 A2.756293755550259,2.756293755550259,0,0,0,-0.411473393176,0.504018070373 A1.2481642713415897,1.2481642713415897,0,0,1,-0.495528196409,0.651436864545 A0.30996818121997377,0.30996818121997377,0,0,1,-0.519321175824,0.752132210111 A0.10111858015037645,0.10111858015037645,0,0,0,-0.531542900873,0.747953697491 A0.32610701407668385,0.32610701407668385,0,0,0,-0.520676731535,0.668273245666 A0.5503369254113427,0.5503369254113427,0,0,0,-0.58668368521,0.710773756003 A0.09213079705731067,0.09213079705731067,0,0,0,-0.594693508299,0.701568874012 A0.5058864350456881,0.5058864350456881,0,0,1,-0.518234312068,0.638394240899 A1.5588050084973448,1.5588050084973448,0,0,0,-0.46439785907,0.515725421929 A0.7101340915752602,0.7101340915752602,0,0,0,-0.598076491756,0.548303145007 A0.9835005590307202,0.9835005590307202,0,0,1,-0.670416756834,0.623518552454 A0.09678654007940388,0.09678654007940388,0,0,0,-0.679873253356,0.614778425581 A1.1667022687327517,1.1667022687327517,0,0,0,-0.629988117117,0.547379088747 A0.2911688384849954,0.2911688384849954,0,0,0,-0.718335113971,0.553040142985 A0.11987687382241002,0.11987687382241002,0,0,0,-0.722438095732,0.538987456357 A0.27823431442495805,0.27823431442495805,0,0,1,-0.608880958756,0.522537645981 A0.6378184402019923,0.6378184402019923,0,0,1,-0.43968506301,0.466849543927 A1.9140017205463287,1.9140017205463287,0,0,1,-0.215492885034,0.30429367887 A12.52665529581949,12.52665529581949,0,0,1,-0.0689167469677,0.0397891024135 A12.52665529581948,12.52665529581948,0,0,1,-0.371272498629,0.0344754733389 A1.9140017205463296,1.9140017205463296,0,0,1,-0.624146096291,0.147353662268 A0.637818440201993,0.637818440201993,0,0,1,-0.756971355231,0.266037555172 A0.2782343144249586,0.2782343144249586,0,0,1,-0.827995877393,0.356156015387 A0.11987687382240987,0.11987687382240987,0,0,0,-0.838114370123,0.345576385637 A0.29116883848499575,0.29116883848499575,0,0,0,-0.789038254914,0.271896169133 A1.1667022687327384,1.1667022687327384,0,0,0,-0.87235036093,0.281398295969 A0.09678654007940371,0.09678654007940371,0,0,0,-0.875191284573,0.268838666314 A0.9835005590307107,0.9835005590307107,0,0,1,-0.773882698429,0.243797862764 A0.7101340915752615,0.7101340915752615,0,0,0,-0.678830246303,0.144317632453 A1.5588050084973444,1.5588050084973444,0,0,0,-0.811982786283,0.129606958914 A0.5058864350456902,0.5058864350456902,0,0,1,-0.904923221548,0.164235248646 A0.09213079705731059,0.09213079705731059,0,0,0,-0.908889971647,0.152696097376 A0.5503369254113449,0.5503369254113449,0,0,0,-0.839079973183,0.116782653836 A0.32610701407668324,0.32610701407668324,0,0,0,-0.913518353318,0.0863528066116 A0.1011185801503765,0.1011185801503765,0,0,0,-0.911026188872,0.0736792259317 A0.30996818121997316,0.30996818121997316,0,0,1,-0.811924971862,0.103421574109 A1.2481642713415888,1.2481642713415888,0,0,1,-0.642229149498,0.104337376286 A2.75629375555027,2.75629375555027,0,0,0,-0.446040829837,-4.4408920985e-16 A2.756293755550261,2.756293755550261,0,0,0,-0.642229149498,-0.104337376286 A1.2481642713415901,1.2481642713415901,0,0,1,-0.811924971862,-0.103421574109 A0.3099681812199739,0.3099681812199739,0,0,1,-0.911026188872,-0.0736792259317 A0.1011185801503766,0.1011185801503766,0,0,0,-0.913518353318,-0.0863528066116 A0.3261070140766835,0.3261070140766835,0,0,0,-0.839079973183,-0.116782653836 A0.5503369254113445,0.5503369254113445,0,0,0,-0.908889971647,-0.152696097376 A0.09213079705731053,0.09213079705731053,0,0,0,-0.904923221548,-0.164235248646 A0.5058864350456895,0.5058864350456895,0,0,1,-0.811982786283,-0.129606958914 A1.5588050084973462,1.5588050084973462,0,0,0,-0.678830246303,-0.144317632453 A0.7101340915752605,0.7101340915752605,0,0,0,-0.773882698429,-0.243797862764 A0.9835005590307158,0.9835005590307158,0,0,1,-0.875191284573,-0.268838666314 A0.0967865400794039,0.0967865400794039,0,0,0,-0.87235036093,-0.281398295969 A1.166702268732745,1.166702268732745,0,0,0,-0.789038254914,-0.271896169133 A0.2911688384849953,0.2911688384849953,0,0,0,-0.838114370123,-0.345576385637 A0.11987687382241007,0.11987687382241007,0,0,0,-0.827995877393,-0.356156015387 A0.27823431442495805,0.27823431442495805,0,0,1,-0.756971355231,-0.266037555172 A0.6378184402019924,0.6378184402019924,0,0,1,-0.624146096291,-0.147353662268 A1.9140017205463276,1.9140017205463276,0,0,1,-0.371272498629,-0.0344754733389 A12.526655295819483,12.526655295819483,0,0,1,-0.0689167469677,-0.0397891024135 A12.526655295819525,12.526655295819525,0,0,1,-0.215492885034,-0.30429367887 A1.91400172054633,1.91400172054633,0,0,1,-0.43968506301,-0.466849543927 A0.6378184402019929,0.6378184402019929,0,0,1,-0.608880958756,-0.522537645981 A0.27823431442495894,0.27823431442495894,0,0,1,-0.722438095732,-0.538987456357 A0.11987687382241011,0.11987687382241011,0,0,0,-0.718335113971,-0.553040142985 A0.29116883848499614,0.29116883848499614,0,0,0,-0.629988117117,-0.547379088747 A1.1667022687327484,1.1667022687327484,0,0,0,-0.679873253356,-0.614778425581 A0.09678654007940421,0.09678654007940421,0,0,0,-0.670416756834,-0.623518552454 A0.9835005590307173,0.9835005590307173,0,0,1,-0.598076491756,-0.548303145007 A0.710134091575261,0.710134091575261,0,0,0,-0.46439785907,-0.515725421929 A1.5588050084973466,1.5588050084973466,0,0,0,-0.518234312068,-0.6383942409 A0.5058864350456895,0.5058864350456895,0,0,1,-0.594693508299,-0.701568874012 A0.09213079705731053,0.09213079705731053,0,0,0,-0.58668368521,-0.710773756003 A0.5503369254113443,0.5503369254113443,0,0,0,-0.520676731535,-0.668273245666 A0.3261070140766839,0.3261070140766839,0,0,0,-0.531542900873,-0.747953697491 A0.10111858015037642,0.10111858015037642,0,0,0,-0.519321175824,-0.752132210111 A0.30996818121997394,0.30996818121997394,0,0,1,-0.495528196409,-0.651436864545 A1.24816427134159,1.24816427134159,0,0,1,-0.411473393176,-0.504018070373 A2.756293755550265,2.756293755550265,0,0,0,-0.223020414918,-0.386282689764 A2.756293755550263,2.756293755550263,0,0,0,-0.230755756321,-0.608355446659 A1.2481642713415873,1.2481642713415873,0,0,1,-0.316396775453,-0.754858438654 A0.3099681812199737,0.3099681812199737,0,0,1,-0.391705013048,-0.825811436042 A0.1011185801503762,0.1011185801503762,0,0,0,-0.381975452445,-0.834306504103 A0.3261070140766839,0.3261070140766839,0,0,0,-0.318403241649,-0.785055899501 A0.5503369254113402,0.5503369254113402,0,0,0,-0.322206286437,-0.863469853379 A0.09213079705731013,0.09213079705731013,0,0,0,-0.31022971325,-0.865804122658 A0.5058864350456861,0.5058864350456861,0,0,1,-0.293748474215,-0.768001199813 A1.5588050084973422,1.5588050084973422,0,0,0,-0.214432387233,-0.660043054382 A0.7101340915752603,0.7101340915752603,0,0,0,-0.175806206673,-0.792101007771 A0.9835005590307143,0.9835005590307143,0,0,1,-0.204774527739,-0.892357218768 A0.09678654007940383,0.09678654007940383,0,0,0,-0.192477107574,-0.896176721551 A1.166702268732744,1.166702268732744,0,0,0,-0.159050137796,-0.819275257879 A0.2911688384849949,0.2911688384849949,0,0,0,-0.119779256152,-0.898616528622 A0.11987687382241015,0.11987687382241015,0,0,0,-0.10555778166,-0.895143471744 A0.27823431442495794,0.27823431442495794,0,0,1,-0.148090396475,-0.788575201153 A0.6378184402019924,0.6378184402019924,0,0,1,-0.184461033281,-0.614203206195 A1.9140017205463289,1.9140017205463289,0,0,1,-0.155779613596,-0.338769152209 A12.52665529581951,12.52665529581951,0,0,1,-1.7763568394e-15,-0.0795782048269 A12.526655295819497,12.526655295819497,0,0,1,0.155779613596,-0.338769152209 A1.9140017205463273,1.9140017205463273,0,0,1,0.184461033281,-0.614203206195 A0.6378184402019932,0.6378184402019932,0,0,1,0.148090396475,-0.788575201153 A0.27823431442495894,0.27823431442495894,0,0,1,0.10555778166,-0.895143471744 A0.11987687382241016,0.11987687382241016,0,0,0,0.119779256152,-0.898616528622 A0.29116883848499614,0.29116883848499614,0,0,0,0.159050137796,-0.819275257879 A1.1667022687327366,1.1667022687327366,0,0,0,0.192477107574,-0.896176721551 A0.09678654007940375,0.09678654007940375,0,0,0,0.204774527739,-0.892357218768 A0.9835005590307089,0.9835005590307089,0,0,1,0.175806206673,-0.792101007771 A0.7101340915752614,0.7101340915752614,0,0,0,0.214432387233,-0.660043054382 A1.558805008497341,1.558805008497341,0,0,0,0.293748474215,-0.768001199813 A0.5058864350456879,0.5058864350456879,0,0,1,0.31022971325,-0.865804122658 A0.0921307970573103,0.0921307970573103,0,0,0,0.322206286437,-0.863469853379 A0.5503369254113425,0.5503369254113425,0,0,0,0.318403241649,-0.785055899501 A0.326107014076684,0.326107014076684,0,0,0,0.381975452445,-0.834306504103 A0.10111858015037632,0.10111858015037632,0,0,0,0.391705013048,-0.825811436042 A0.3099681812199738,0.3099681812199738,0,0,1,0.316396775453,-0.754858438654 A1.2481642713415864,1.2481642713415864,0,0,1,0.230755756321,-0.608355446659 A2.756293755550264,2.756293755550264,0,0,0,0.223020414918,-0.386282689764 A2.7562937555502622,2.7562937555502622,0,0,0,0.411473393176,-0.504018070373 A1.2481642713415897,1.2481642713415897,0,0,1,0.495528196409,-0.651436864545 A0.30996818121997455,0.30996818121997455,0,0,1,0.519321175824,-0.752132210111 A0.10111858015037636,0.10111858015037636,0,0,0,0.531542900873,-0.747953697491 A0.3261070140766847,0.3261070140766847,0,0,0,0.520676731535,-0.668273245666 A0.5503369254113447,0.5503369254113447,0,0,0,0.58668368521,-0.710773756003 A0.09213079705731021,0.09213079705731021,0,0,0,0.594693508299,-0.701568874012 A0.5058864350456898,0.5058864350456898,0,0,1,0.518234312068,-0.638394240899 A1.5588050084973455,1.5588050084973455,0,0,0,0.46439785907,-0.515725421929 A0.7101340915752586,0.7101340915752586,0,0,0,0.598076491756,-0.548303145007 A0.9835005590307123,0.9835005590307123,0,0,1,0.670416756834,-0.623518552454 A0.09678654007940363,0.09678654007940363,0,0,0,0.679873253356,-0.614778425581 A1.1667022687327406,1.1667022687327406,0,0,0,0.629988117117,-0.547379088747 A0.2911688384849959,0.2911688384849959,0,0,0,0.718335113971,-0.553040142985 A0.11987687382241004,0.11987687382241004,0,0,0,0.722438095732,-0.538987456357 A0.2782343144249587,0.2782343144249587,0,0,1,0.608880958756,-0.522537645981 A0.6378184402019911,0.6378184402019911,0,0,1,0.43968506301,-0.466849543927 A1.9140017205463276,1.9140017205463276,0,0,1,0.215492885034,-0.30429367887 A12.526655295819465,12.526655295819465,0,0,1,0.0689167469677,-0.0397891024135 A12.52665529581952,12.52665529581952,0,0,1,0.371272498629,-0.0344754733389 A1.91400172054633,1.91400172054633,0,0,1,0.624146096291,-0.147353662268 A0.6378184402019925,0.6378184402019925,0,0,1,0.756971355231,-0.266037555172 A0.2782343144249578,0.2782343144249578,0,0,1,0.827995877393,-0.356156015387 A0.1198768738224103,0.1198768738224103,0,0,0,0.838114370123,-0.345576385637 A0.29116883848499486,0.29116883848499486,0,0,0,0.789038254914,-0.271896169133 A1.1667022687327382,1.1667022687327382,0,0,0,0.87235036093,-0.281398295969 A0.09678654007940378,0.09678654007940378,0,0,0,0.875191284573,-0.268838666314 A0.9835005590307102,0.9835005590307102,0,0,1,0.773882698429,-0.243797862764 A0.7101340915752606,0.7101340915752606,0,0,0,0.678830246303,-0.144317632453 A1.5588050084973457,1.5588050084973457,0,0,0,0.811982786283,-0.129606958914 A0.5058864350456903,0.5058864350456903,0,0,1,0.904923221548,-0.164235248646 A0.0921307970573104,0.0921307970573104,0,0,0,0.908889971647,-0.152696097376 A0.5503369254113453,0.5503369254113453,0,0,0,0.839079973183,-0.116782653836 A0.3261070140766825,0.3261070140766825,0,0,0,0.913518353318,-0.0863528066116 A0.10111858015037625,0.10111858015037625,0,0,0,0.911026188872,-0.0736792259317 A0.30996818121997277,0.30996818121997277,0,0,1,0.811924971862,-0.103421574109 A1.248164271341589,1.248164271341589,0,0,1,0.642229149498,-0.104337376286 A2.756293755550267,2.756293755550267,0,0,0,0.446040829837,4.4408920985e-16 A2.756293755550263,2.756293755550263,0,0,0,0.642229149498,0.104337376286 A1.2481642713415892,1.2481642713415892,0,0,1,0.811924971862,0.103421574109 A0.30996818121997405,0.30996818121997405,0,0,1,0.911026188872,0.0736792259317 A0.10111858015037636,0.10111858015037636,0,0,0,0.913518353318,0.0863528066116 A0.32610701407668413,0.32610701407668413,0,0,0,0.839079973183,0.116782653836 A0.5503369254113445,0.5503369254113445,0,0,0,0.908889971647,0.152696097376 A0.09213079705731031,0.09213079705731031,0,0,0,0.904923221548,0.164235248646 A0.5058864350456898,0.5058864350456898,0,0,1,0.811982786283,0.129606958914 A1.5588050084973464,1.5588050084973464,0,0,0,0.678830246303,0.144317632453 A0.7101340915752608,0.7101340915752608,0,0,0,0.773882698429,0.243797862764 A0.9835005590307165,0.9835005590307165,0,0,1,0.875191284573,0.268838666314 A0.09678654007940386,0.09678654007940386,0,0,0,0.87235036093,0.281398295969 A1.1667022687327468,1.1667022687327468,0,0,0,0.789038254914,0.271896169133 A0.29116883848499503,0.29116883848499503,0,0,0,0.838114370123,0.345576385637 A0.11987687382241016,0.11987687382241016,0,0,0,0.827995877393,0.356156015387 A0.278234314424958,0.278234314424958,0,0,1,0.756971355231,0.266037555172 A0.6378184402019924,0.6378184402019924,0,0,1,0.624146096291,0.147353662268 A1.9140017205463282,1.9140017205463282,0,0,1,0.371272498629,0.0344754733389 A12.52665529581948,12.52665529581948,0,0,1,0.0689167469677,0.0397891024135 Z" fill="white" opacity="0.7" />
</svg>